<?xml version="1.0" standalone="no"?><!DOCTYPE svg PUBLIC "-//W3C//DTD SVG 1.1//EN" "http://www.w3.org/Graphics/SVG/1.1/DTD/svg11.dtd"><svg width="100%" height="100%" viewBox="0 0 1280 380" version="1.1" xmlns="http://www.w3.org/2000/svg" xmlns:xlink="http://www.w3.org/1999/xlink" xml:space="preserve" style="fill-rule:evenodd;clip-rule:evenodd;stroke-linejoin:round;stroke-miterlimit:1.41421;"><path d="M477.082,61.222l2.528,-1.125c0.558,-0.249 0.854,-0.38 0.85,-0.858c-0.002,-0.266 -0.297,-0.134 -0.79,0.085l-2.43,1.081l0.605,-2.986c0.094,-0.548 0.509,-2.438 0.671,-2.777c0.26,-0.568 0.749,-1.159 1.373,-1.437c0.132,-0.058 0.887,-0.394 1.448,-0.218c-1.28,0.676 -1.569,1.631 -1.567,2.003c0.004,0.531 0.532,0.59 1.09,0.341c0.755,-0.336 1.605,-1.247 1.598,-2.15c-0.007,-1.089 -1.358,-1.047 -2.573,-0.507c-0.985,0.439 -2.853,1.723 -3.69,4.44c-0.193,0.592 -0.257,0.86 -0.958,4.183l-2.035,0.906c-0.558,0.248 -0.887,0.394 -0.884,0.846c0.003,0.292 0.265,0.175 0.823,-0.073l1.97,-0.877l-2.164,10.368c-0.509,2.544 -0.986,4.941 -2.496,5.613c-0.131,0.059 -0.854,0.38 -1.415,0.177c1.346,-0.652 1.602,-1.619 1.599,-1.991c-0.003,-0.531 -0.531,-0.589 -1.089,-0.341c-0.788,0.351 -1.638,1.236 -1.632,2.138c0.008,1.089 1.326,1.062 2.541,0.522c1.608,-0.716 2.78,-2.65 3.299,-3.787c0.909,-1.896 1.577,-5.071 1.609,-5.271l1.719,-8.305" style="fill:#000;fill-rule:nonzero;"/><path d="M1101.36,61.222l2.528,-1.125c0.558,-0.249 0.853,-0.38 0.85,-0.858c-0.002,-0.266 -0.297,-0.134 -0.79,0.085l-2.43,1.081l0.605,-2.986c0.094,-0.548 0.509,-2.438 0.671,-2.777c0.26,-0.568 0.749,-1.159 1.373,-1.437c0.132,-0.058 0.887,-0.394 1.448,-0.218c-1.28,0.676 -1.569,1.631 -1.567,2.003c0.004,0.531 0.532,0.59 1.09,0.341c0.755,-0.336 1.605,-1.247 1.598,-2.15c-0.007,-1.089 -1.358,-1.047 -2.573,-0.507c-0.985,0.439 -2.853,1.723 -3.69,4.44c-0.193,0.592 -0.257,0.86 -0.958,4.183l-2.035,0.906c-0.559,0.248 -0.887,0.394 -0.884,0.846c0.003,0.292 0.265,0.175 0.823,-0.073l1.97,-0.877l-2.164,10.368c-0.509,2.544 -0.986,4.941 -2.496,5.613c-0.131,0.059 -0.854,0.38 -1.415,0.177c1.346,-0.652 1.602,-1.619 1.599,-1.991c-0.003,-0.531 -0.531,-0.589 -1.089,-0.341c-0.788,0.351 -1.638,1.236 -1.632,2.138c0.008,1.089 1.326,1.062 2.541,0.522c1.608,-0.716 2.78,-2.65 3.299,-3.787c0.909,-1.896 1.577,-5.071 1.609,-5.271l1.719,-8.305" style="fill:#000;fill-rule:nonzero;"/><g id="rescal_factor_R"><path id="path6260" d="M378.549,126.171l0,109.996l117.943,54.998l0,-109.996l-117.943,-54.998Z" style="fill:#fff;fill-rule:nonzero;stroke-width:1.35px;stroke:#000;"/><path id="path6262" d="M378.549,126.171l148.711,-69.345l117.944,54.998l-56.408,112.387l-210.247,-98.04Z" style="fill:#fff;fill-rule:nonzero;stroke-width:1.35px;stroke:#000;"/><path id="path6264" d="M496.492,291.165l148.712,-69.345l0,-109.996l-148.712,69.345l0,109.996Z" style="fill:#fff;fill-rule:nonzero;stroke-width:1.35px;stroke:#000;"/></g><g id="rescal_factor_R1"><path id="path62601" d="M1002.36,126.171l0,109.996l117.943,54.998l0,-109.996l-117.943,-54.998Z" style="fill:#fff;fill-rule:nonzero;stroke-width:1.35px;stroke:#000;"/><path id="path62621" d="M1002.36,126.171l148.711,-69.345l117.944,54.998l-56.408,112.387l-210.247,-98.04Z" style="fill:#fff;fill-rule:nonzero;stroke-width:1.35px;stroke:#000;"/><path id="path62641" d="M1120.3,291.165l148.712,-69.345l0,-109.996l-148.712,69.345l0,109.996Z" style="fill:#fff;fill-rule:nonzero;stroke-width:1.35px;stroke:#000;"/></g><g id="rescal_factor_R2"><path id="path62602" d="M378.549,126.171l0,109.996l117.943,54.998l0,-109.996l-117.943,-54.998Z" style="fill:#fff;fill-rule:nonzero;stroke-width:1.35px;stroke:#000;"/><path id="path62622" d="M378.549,126.171l148.711,-69.345l117.944,54.998l-56.408,112.387l-210.247,-98.04Z" style="fill:#fff;fill-rule:nonzero;stroke-width:1.35px;stroke:#000;"/><path id="path62642" d="M496.492,291.165l148.712,-69.345l0,-109.996l-148.712,69.345l0,109.996Z" style="fill:#fff;fill-rule:nonzero;stroke-width:1.35px;stroke:#000;"/></g><g id="rescal_factor_R3"><path id="path62603" d="M1002.36,126.171l0,109.996l117.943,54.998l0,-109.996l-117.943,-54.998Z" style="fill:#fff;fill-rule:nonzero;stroke-width:1.35px;stroke:#000;"/><path id="path62623" d="M1002.36,126.171l148.711,-69.345l117.944,54.998l-56.408,112.387l-210.247,-98.04Z" style="fill:#fff;fill-rule:nonzero;stroke-width:1.35px;stroke:#000;"/><path id="path62643" d="M1120.3,291.165l148.712,-69.345l0,-109.996l-148.712,69.345l0,109.996Z" style="fill:#fff;fill-rule:nonzero;stroke-width:1.35px;stroke:#000;"/></g><g><path id="path3045" d="M516.526,51.145l0,248.972l22.247,10.373l0,-248.971l-22.247,-10.374Z" style="fill:#fff;fill-rule:nonzero;stroke-width:1.17px;stroke:#000;"/><path id="path3047" d="M516.526,51.145l22.247,-10.373l22.247,10.373l-22.247,10.374l-22.247,-10.374Z" style="fill:#fff;fill-rule:nonzero;stroke-width:1.17px;stroke:#000;"/><path id="path3049" d="M538.773,310.49l22.247,-10.373l0,-248.972l-22.247,10.374l0,248.971Z" style="fill:#fff;fill-rule:nonzero;stroke-width:1.17px;stroke:#000;"/></g><g><path id="path30451" d="M1140.33,51.145l0,248.972l22.247,10.373l0,-248.971l-22.247,-10.374Z" style="fill:#fff;fill-rule:nonzero;stroke-width:1.17px;stroke:#000;"/><path id="path30471" d="M1140.33,51.145l22.247,-10.373l22.247,10.373l-22.247,10.374l-22.247,-10.374Z" style="fill:#fff;fill-rule:nonzero;stroke-width:1.17px;stroke:#000;"/><path id="path30491" d="M1162.58,310.49l22.247,-10.373l0,-248.972l-22.247,10.374l0,248.971Z" style="fill:#fff;fill-rule:nonzero;stroke-width:1.17px;stroke:#000;"/></g><g><path d="M32.482,249.388c0.296,-1.14 0.803,-2.027 3.084,-2.112c0.126,0 0.485,-0.021 0.485,-0.57c0,-0.021 0,-0.316 -0.38,-0.316c-0.929,0 -1.943,0.084 -2.872,0.084c-0.971,0 -1.964,-0.084 -2.914,-0.084c-0.169,0 -0.507,0 -0.507,0.57c0,0.316 0.274,0.316 0.507,0.316c1.626,0.022 1.943,0.634 1.943,1.247c0,0.084 -0.064,0.527 -0.085,0.612l-3.189,12.671l-6.293,-14.867c-0.233,-0.507 -0.254,-0.549 -0.908,-0.549l-3.823,0c-0.57,0 -0.824,0 -0.824,0.57c0,0.316 0.254,0.316 0.803,0.316c0.127,0 1.922,0 1.922,0.254l-3.802,15.29c-0.295,1.141 -0.781,2.07 -3.083,2.154c-0.169,0 -0.486,0.021 -0.486,0.571c0,0.19 0.148,0.295 0.359,0.295c0.929,0 1.922,-0.084 2.851,-0.084c0.972,0 2.007,0.084 2.936,0.084c0.148,0 0.528,0 0.528,-0.57c0,-0.275 -0.275,-0.296 -0.57,-0.296c-1.669,-0.063 -1.88,-0.697 -1.88,-1.267c0,-0.19 0.021,-0.338 0.106,-0.654l3.759,-15.037c0.105,0.169 0.105,0.232 0.253,0.507l7.096,16.789c0.19,0.486 0.275,0.528 0.549,0.528c0.296,0 0.296,-0.084 0.444,-0.591l3.991,-15.861" style="fill:#000;fill-rule:nonzero;"/><path d="M42.176,262.546c-0.422,-0.655 -1.098,-1.183 -2.049,-1.183c-2.534,0 -5.131,2.809 -5.131,5.66c0,1.943 1.309,3.316 3.02,3.316c1.055,0 2.027,-0.634 2.808,-1.394c0.381,1.182 1.542,1.394 2.049,1.394c0.718,0 1.225,-0.444 1.563,-1.056c0.443,-0.782 0.697,-1.922 0.697,-1.986c0,-0.274 -0.254,-0.274 -0.317,-0.274c-0.275,0 -0.296,0.084 -0.422,0.633c-0.254,0.951 -0.634,2.112 -1.458,2.112c-0.528,0 -0.654,-0.422 -0.654,-0.971c0,-0.338 0.147,-1.056 0.295,-1.563c0.148,-0.549 0.338,-1.352 0.444,-1.795l0.401,-1.5c0.106,-0.528 0.338,-1.457 0.338,-1.562c0,-0.444 -0.338,-0.634 -0.676,-0.634c-0.338,0 -0.781,0.232 -0.908,0.803ZM40.909,267.656c-0.148,0.55 -0.57,0.951 -1.014,1.331c-0.19,0.148 -0.971,0.781 -1.837,0.781c-0.739,0 -1.436,-0.506 -1.436,-1.921c0,-1.056 0.57,-3.232 1.034,-4.034c0.909,-1.584 1.922,-1.901 2.471,-1.901c1.394,0 1.774,1.521 1.774,1.732c0,0.084 -0.042,0.232 -0.063,0.295l-0.929,3.717" style="fill:#000;fill-rule:nonzero;"/><path d="M65.027,257.921l-5.702,-5.66c-0.338,-0.338 -0.401,-0.402 -0.634,-0.402c-0.274,0 -0.57,0.254 -0.57,0.571c0,0.211 0.063,0.253 0.38,0.57l5.681,5.723l-5.681,5.723c-0.317,0.317 -0.38,0.38 -0.38,0.571c0,0.316 0.296,0.57 0.57,0.57c0.233,0 0.296,-0.042 0.634,-0.401l5.66,-5.66l5.892,5.892c0.063,0.042 0.254,0.169 0.443,0.169c0.338,0 0.571,-0.254 0.571,-0.57c0,-0.043 0,-0.169 -0.085,-0.317c-0.042,-0.042 -4.562,-4.52 -5.998,-5.977l5.217,-5.216c0.148,-0.169 0.57,-0.528 0.718,-0.697c0.021,-0.064 0.148,-0.169 0.148,-0.38c0,-0.317 -0.233,-0.571 -0.571,-0.571c-0.232,0 -0.359,0.127 -0.654,0.423l-5.639,5.639" style="fill:#000;fill-rule:nonzero;"/><path d="M103.865,249.388c0.295,-1.14 0.803,-2.027 3.084,-2.112c0.126,0 0.485,-0.021 0.485,-0.57c0,-0.021 0,-0.316 -0.38,-0.316c-0.929,0 -1.943,0.084 -2.872,0.084c-0.971,0 -1.964,-0.084 -2.915,-0.084c-0.169,0 -0.507,0 -0.507,0.57c0,0.316 0.275,0.316 0.507,0.316c1.627,0.022 1.944,0.634 1.944,1.247c0,0.084 -0.064,0.527 -0.085,0.612l-3.189,12.671l-6.294,-14.867c-0.232,-0.507 -0.253,-0.549 -0.908,-0.549l-3.822,0c-0.57,0 -0.824,0 -0.824,0.57c0,0.316 0.254,0.316 0.802,0.316c0.127,0 1.922,0 1.922,0.254l-3.801,15.29c-0.296,1.141 -0.782,2.07 -3.083,2.154c-0.169,0 -0.486,0.021 -0.486,0.571c0,0.19 0.148,0.295 0.359,0.295c0.929,0 1.922,-0.084 2.851,-0.084c0.972,0 2.007,0.084 2.935,0.084c0.148,0 0.528,0 0.528,-0.57c0,-0.275 -0.274,-0.296 -0.57,-0.296c-1.668,-0.063 -1.879,-0.697 -1.879,-1.267c0,-0.19 0.021,-0.338 0.105,-0.654l3.759,-15.037c0.106,0.169 0.106,0.232 0.254,0.507l7.096,16.789c0.19,0.486 0.275,0.528 0.549,0.528c0.295,0 0.295,-0.084 0.444,-0.591l3.991,-15.861" style="fill:#000;fill-rule:nonzero;"/><path d="M110.412,256.928c0.021,-0.042 0.084,-0.296 0.084,-0.317c0,-0.105 -0.084,-0.274 -0.316,-0.274c-0.402,0 -2.049,0.147 -2.535,0.19c-0.169,0.021 -0.443,0.042 -0.443,0.464c0,0.275 0.274,0.275 0.507,0.275c0.971,0 0.971,0.148 0.971,0.295c0,0.148 -0.211,0.951 -0.317,1.394l-0.464,1.838c-0.19,0.676 -1.267,5.026 -1.309,5.28c-0.106,0.485 -0.106,0.739 -0.106,0.971c0,2.006 1.267,3.295 2.914,3.295c2.492,0 5.132,-2.704 5.132,-5.66c0,-2.323 -1.605,-3.316 -2.978,-3.316c-1.035,0 -1.9,0.57 -2.513,1.098l1.373,-5.533ZM109.419,269.768c-0.971,0 -1.52,-0.844 -1.52,-2.027c0,-0.739 0.169,-1.415 0.739,-3.654c0.106,-0.38 0.106,-0.422 0.486,-0.844c0.76,-0.887 1.647,-1.331 2.365,-1.331c0.781,0 1.457,0.591 1.457,1.943c0,0.803 -0.443,2.83 -1.035,3.992c-0.485,0.971 -1.478,1.921 -2.492,1.921" style="fill:#000;fill-rule:nonzero;"/><path d="M134.023,257.921l-5.702,-5.66c-0.338,-0.338 -0.401,-0.402 -0.634,-0.402c-0.274,0 -0.57,0.254 -0.57,0.571c0,0.211 0.064,0.253 0.381,0.57l5.701,5.723l-5.701,5.723c-0.317,0.317 -0.381,0.38 -0.381,0.571c0,0.316 0.296,0.57 0.57,0.57c0.233,0 0.296,-0.042 0.634,-0.401l5.66,-5.66l5.913,5.892c0.042,0.042 0.254,0.169 0.422,0.169c0.338,0 0.571,-0.254 0.571,-0.57c0,-0.043 0,-0.169 -0.085,-0.317c-0.042,-0.042 -4.562,-4.52 -5.976,-5.977l5.195,-5.216c0.148,-0.169 0.57,-0.528 0.718,-0.697c0.021,-0.064 0.148,-0.169 0.148,-0.38c0,-0.317 -0.233,-0.571 -0.571,-0.571c-0.232,0 -0.337,0.127 -0.654,0.423l-5.639,5.639" style="fill:#000;fill-rule:nonzero;"/><path d="M172.946,249.388c0.295,-1.14 0.802,-2.027 3.083,-2.112c0.127,0 0.486,-0.021 0.486,-0.57c0,-0.021 0,-0.316 -0.381,-0.316c-0.928,0 -1.942,0.084 -2.871,0.084c-0.972,0 -1.965,-0.084 -2.915,-0.084c-0.169,0 -0.507,0 -0.507,0.57c0,0.316 0.275,0.316 0.507,0.316c1.626,0.022 1.943,0.634 1.943,1.247c0,0.084 -0.063,0.527 -0.084,0.612l-3.19,12.671l-6.293,-14.867c-0.232,-0.507 -0.253,-0.549 -0.908,-0.549l-3.822,0c-0.571,0 -0.824,0 -0.824,0.57c0,0.316 0.253,0.316 0.802,0.316c0.127,0 1.922,0 1.922,0.254l-3.801,15.29c-0.296,1.141 -0.782,2.07 -3.084,2.154c-0.168,0 -0.485,0.021 -0.485,0.571c0,0.19 0.147,0.295 0.359,0.295c0.929,0 1.921,-0.084 2.851,-0.084c0.971,0 2.006,0.084 2.935,0.084c0.148,0 0.528,0 0.528,-0.57c0,-0.275 -0.274,-0.296 -0.57,-0.296c-1.668,-0.063 -1.88,-0.697 -1.88,-1.267c0,-0.19 0.021,-0.338 0.106,-0.654l3.759,-15.037c0.106,0.169 0.106,0.232 0.253,0.507l7.096,16.789c0.191,0.486 0.275,0.528 0.55,0.528c0.295,0 0.295,-0.084 0.443,-0.591l3.992,-15.861" style="fill:#000;fill-rule:nonzero;"/><path d="M182.344,262.271l1.943,0c0.401,0 0.655,0 0.655,-0.422c0,-0.296 -0.254,-0.296 -0.613,-0.296l-1.838,0c0.444,-2.513 0.613,-3.421 0.761,-4.013c0.106,-0.422 0.549,-0.844 1.014,-0.844c0.021,0 0.57,0 0.95,0.232c-0.824,0.253 -0.887,0.971 -0.887,1.098c0,0.444 0.338,0.739 0.802,0.739c0.529,0 1.141,-0.464 1.141,-1.225c0,-0.908 -0.992,-1.393 -2.006,-1.393c-0.866,0 -1.838,0.485 -2.387,1.478c-0.38,0.739 -0.549,1.626 -0.971,3.928l-1.563,0c-0.401,0 -0.655,0 -0.655,0.444c0,0.274 0.254,0.274 0.613,0.274l1.478,0c-0.021,0.127 -1.289,7.286 -1.753,9.419c-0.105,0.423 -0.443,1.943 -1.394,1.943c-0.021,0 -0.507,0 -0.866,-0.232c0.803,-0.275 0.866,-0.993 0.866,-1.098c0,-0.444 -0.338,-0.739 -0.802,-0.739c-0.528,0 -1.12,0.464 -1.12,1.203c0,0.908 0.93,1.415 1.922,1.415c1.268,0 2.154,-1.309 2.387,-1.753c0.718,-1.33 1.161,-3.759 1.204,-4.012l1.119,-6.146" style="fill:#000;fill-rule:nonzero;"/><path d="M206.441,257.921l-5.703,-5.66c-0.337,-0.338 -0.401,-0.402 -0.633,-0.402c-0.274,0 -0.57,0.254 -0.57,0.571c0,0.211 0.063,0.253 0.38,0.57l5.702,5.723l-5.702,5.723c-0.317,0.317 -0.38,0.38 -0.38,0.571c0,0.316 0.296,0.57 0.57,0.57c0.232,0 0.296,-0.042 0.633,-0.401l5.661,-5.66l5.891,5.892c0.064,0.042 0.275,0.169 0.444,0.169c0.338,0 0.57,-0.254 0.57,-0.57c0,-0.043 0,-0.169 -0.084,-0.317c-0.042,-0.042 -4.562,-4.52 -5.998,-5.977l5.217,-5.216c0.147,-0.169 0.57,-0.528 0.718,-0.697c0.021,-0.064 0.147,-0.169 0.147,-0.38c0,-0.317 -0.232,-0.571 -0.57,-0.571c-0.232,0 -0.338,0.127 -0.654,0.423l-5.639,5.639" style="fill:#000;fill-rule:nonzero;"/><path d="M245.279,249.388c0.295,-1.14 0.802,-2.027 3.083,-2.112c0.127,0 0.486,-0.021 0.486,-0.57c0,-0.021 0,-0.316 -0.38,-0.316c-0.929,0 -1.943,0.084 -2.872,0.084c-0.972,0 -1.965,-0.084 -2.915,-0.084c-0.169,0 -0.507,0 -0.507,0.57c0,0.316 0.296,0.316 0.507,0.316c1.626,0.022 1.943,0.634 1.943,1.247c0,0.084 -0.063,0.527 -0.084,0.612l-3.19,12.671l-6.293,-14.867c-0.232,-0.507 -0.253,-0.549 -0.908,-0.549l-3.822,0c-0.571,0 -0.824,0 -0.824,0.57c0,0.316 0.253,0.316 0.802,0.316c0.127,0 1.922,0 1.922,0.254l-3.801,15.29c-0.296,1.141 -0.782,2.07 -3.084,2.154c-0.168,0 -0.485,0.021 -0.485,0.571c0,0.19 0.147,0.295 0.38,0.295c0.908,0 1.9,-0.084 2.83,-0.084c0.971,0 2.006,0.084 2.935,0.084c0.148,0 0.528,0 0.528,-0.57c0,-0.275 -0.274,-0.296 -0.57,-0.296c-1.668,-0.063 -1.88,-0.697 -1.88,-1.267c0,-0.19 0.021,-0.338 0.106,-0.654l3.759,-15.037c0.106,0.169 0.106,0.232 0.253,0.507l7.097,16.789c0.19,0.486 0.295,0.528 0.549,0.528c0.317,0 0.317,-0.084 0.443,-0.591l3.992,-15.861" style="fill:#000;fill-rule:nonzero;"/><path d="M251.488,262.271l2.027,0c0.36,0 0.634,0 0.634,-0.422c0,-0.296 -0.274,-0.296 -0.612,-0.296l-1.88,0l0.739,-2.936c0.021,-0.105 0.063,-0.19 0.063,-0.274c0,-0.359 -0.296,-0.634 -0.676,-0.634c-0.506,0 -0.802,0.338 -0.95,0.845c-0.127,0.507 0.127,-0.443 -0.739,2.999l-2.028,0c-0.38,0 -0.633,0 -0.633,0.444c0,0.274 0.232,0.274 0.591,0.274l1.88,0l-1.162,4.71c-0.126,0.485 -0.296,1.203 -0.296,1.457c0,1.183 0.993,1.901 2.113,1.901c2.217,0 3.463,-2.788 3.463,-3.042c0,-0.274 -0.253,-0.274 -0.317,-0.274c-0.232,0 -0.253,0.042 -0.422,0.38c-0.549,1.267 -1.563,2.365 -2.661,2.365c-0.422,0 -0.697,-0.253 -0.697,-0.971c0,-0.19 0.084,-0.613 0.127,-0.803l1.436,-5.723" style="fill:#000;fill-rule:nonzero;"/></g><path d="M756.839,173.641l8.985,0c0.431,0 1.042,0 1.042,-0.647c0,-0.611 -0.611,-0.611 -1.042,-0.611l-8.985,0l0,-9.021c0,-0.467 0,-1.078 -0.647,-1.078c-0.647,0 -0.647,0.611 -0.647,1.078l0,9.021l-9.02,0c-0.432,0 -1.042,0 -1.042,0.611c0,0.647 0.61,0.647 1.042,0.647l9.02,0l0,9.02c0,0.467 0,1.078 0.647,1.078c0.647,0 0.647,-0.611 0.647,-1.078l0,-9.02" style="fill:#000;fill-rule:nonzero;"/><path d="M916.162,173.641l8.985,0c0.431,0 1.042,0 1.042,-0.647c0,-0.611 -0.611,-0.611 -1.042,-0.611l-8.985,0l0,-9.021c0,-0.467 0,-1.078 -0.647,-1.078c-0.646,0 -0.646,0.611 -0.646,1.078l0,9.021l-9.021,0c-0.431,0 -1.042,0 -1.042,0.611c0,0.647 0.611,0.647 1.042,0.647l9.021,0l0,9.02c0,0.467 0,1.078 0.646,1.078c0.647,0 0.647,-0.611 0.647,-1.078l0,-9.02" style="fill:#000;fill-rule:nonzero;"/><path d="M314.758,168.336c0,-0.683 -0.216,-0.97 -0.431,-0.97c-0.144,0 -0.431,0.144 -0.467,0.862c-0.144,2.229 -2.372,3.558 -4.457,3.558c-1.869,0 -3.486,-1.006 -5.175,-2.12c-1.725,-1.186 -3.45,-2.336 -5.571,-2.336c-2.983,0 -5.355,2.3 -5.355,5.247c0,0.719 0.252,0.97 0.468,0.97c0.287,0 0.431,-0.611 0.431,-0.754c0.179,-2.696 2.803,-3.666 4.456,-3.666c1.869,0 3.486,1.006 5.176,2.12c1.725,1.186 3.45,2.336 5.57,2.336c2.983,0 5.355,-2.3 5.355,-5.247ZM314.758,175.848c0,-0.935 -0.395,-0.971 -0.431,-0.971c-0.144,0 -0.431,0.144 -0.467,0.863c-0.144,2.228 -2.372,3.522 -4.457,3.522c-1.869,0 -3.486,-1.007 -5.175,-2.121c-1.725,-1.15 -3.45,-2.3 -5.571,-2.3c-2.983,0 -5.355,2.264 -5.355,5.247c0,0.683 0.252,0.935 0.468,0.935c0.287,0 0.431,-0.611 0.431,-0.719c0.179,-2.695 2.803,-3.666 4.456,-3.666c1.869,0 3.486,1.006 5.176,2.121c1.725,1.15 3.45,2.3 5.57,2.3c3.055,0 5.355,-2.372 5.355,-5.211" style="fill:#000;fill-rule:nonzero;"/><path d="M830.043,174.555c0,-0.899 -0.791,-1.689 -1.725,-1.689c-0.935,0 -1.689,0.79 -1.689,1.689c0,0.934 0.754,1.725 1.689,1.725c0.934,0 1.725,-0.791 1.725,-1.725" style="fill:#000;fill-rule:nonzero;"/><path d="M844.347,174.555c0,-0.899 -0.791,-1.689 -1.725,-1.689c-0.935,0 -1.689,0.79 -1.689,1.689c0,0.934 0.754,1.725 1.689,1.725c0.934,0 1.725,-0.791 1.725,-1.725" style="fill:#000;fill-rule:nonzero;"/><path d="M858.651,174.555c0,-0.899 -0.791,-1.689 -1.725,-1.689c-0.935,0 -1.69,0.79 -1.69,1.689c0,0.934 0.755,1.725 1.69,1.725c0.934,0 1.725,-0.791 1.725,-1.725" style="fill:#000;fill-rule:nonzero;"/><path d="M431.252,215.556c-1.258,2.157 -2.516,2.624 -3.954,2.696c-0.359,0.036 -0.647,0.036 -0.647,0.647c0,0.215 0.144,0.359 0.396,0.359c0.862,0 1.868,-0.072 2.767,-0.072c1.078,0 2.192,0.072 3.234,0.072c0.18,0 0.611,0 0.611,-0.611c0,-0.359 -0.287,-0.395 -0.539,-0.395c-0.718,-0.036 -1.509,-0.288 -1.509,-1.114c0,-0.396 0.216,-0.719 0.467,-1.186l2.444,-4.133l8.086,0c0.036,0.682 0.503,5.067 0.503,5.391c0,0.97 -1.689,1.042 -2.3,1.042c-0.467,0 -0.79,0 -0.79,0.647c0,0.359 0.395,0.359 0.467,0.359c1.294,0 2.695,-0.072 3.989,-0.072c0.827,0 2.839,0.072 3.666,0.072c0.18,0 0.575,0 0.575,-0.647c0,-0.359 -0.323,-0.359 -0.755,-0.359c-1.976,0 -1.976,-0.216 -2.084,-1.15l-1.977,-20.09c-0.036,-0.647 -0.036,-0.791 -0.611,-0.791c-0.503,0 -0.647,0.216 -0.826,0.539l-11.213,18.796ZM435.133,210.848l6.325,-10.638l1.043,10.638l-7.368,0" style="fill:#000;fill-rule:nonzero;"/><path d="M457.272,209.698c0,-0.611 -0.036,-0.647 -0.683,-0.647c-1.438,1.438 -3.522,1.474 -4.457,1.474l0,0.791c0.539,0 2.049,0 3.307,-0.611l0,11.572c0,0.755 0,1.042 -2.265,1.042l-0.862,0l0,0.791c0.395,0 3.199,-0.072 4.025,-0.072c0.719,0 3.558,0.072 4.061,0.072l0,-0.791l-0.862,0c-2.264,0 -2.264,-0.287 -2.264,-1.042l0,-12.579" style="fill:#000;fill-rule:nonzero;"/><path d="M1047.37,212.19c-1.294,2.156 -2.516,2.623 -3.953,2.695c-0.396,0.036 -0.683,0.036 -0.683,0.647c0,0.216 0.179,0.359 0.431,0.359c0.863,0 1.869,-0.071 2.767,-0.071c1.043,0 2.193,0.071 3.199,0.071c0.216,0 0.611,0 0.611,-0.611c0,-0.359 -0.288,-0.395 -0.503,-0.395c-0.719,-0.036 -1.51,-0.287 -1.51,-1.114c0,-0.395 0.18,-0.719 0.468,-1.186l2.443,-4.133l8.051,0c0.072,0.683 0.539,5.067 0.539,5.391c0,0.97 -1.689,1.042 -2.336,1.042c-0.431,0 -0.755,0 -0.755,0.647c0,0.359 0.395,0.359 0.431,0.359c1.33,0 2.732,-0.071 4.026,-0.071c0.826,0 2.839,0.071 3.629,0.071c0.216,0 0.575,0 0.575,-0.646c0,-0.36 -0.287,-0.36 -0.718,-0.36c-2.013,0 -2.013,-0.215 -2.085,-1.15l-1.976,-20.09c-0.072,-0.647 -0.072,-0.791 -0.611,-0.791c-0.504,0 -0.647,0.216 -0.827,0.54l-11.213,18.796ZM1051.25,207.482l6.326,-10.638l1.042,10.638l-7.368,0" style="fill:#000;fill-rule:nonzero;"/><path d="M1079.32,207.014c0.216,-0.79 0.216,-0.934 1.509,-0.934c0.252,0 0.575,0 0.575,-0.467c0,-0.252 -0.179,-0.36 -0.323,-0.36c-0.539,0 -1.905,0.108 -2.444,0.108c-0.503,0 -1.258,-0.036 -1.761,-0.036c-0.575,-0.036 -1.222,-0.072 -1.797,-0.072c-0.144,0 -0.503,0 -0.503,0.504c0,0.323 0.216,0.323 0.898,0.323c0.504,0 0.611,0 1.186,0.036c0.647,0.072 0.719,0.144 0.719,0.431c0,0.144 0,0.18 -0.108,0.503l-2.587,10.387c-0.431,1.725 -1.905,3.127 -3.378,3.127c-0.324,0 -1.726,-0.036 -2.265,-1.151c1.33,0 1.618,-1.078 1.618,-1.473c0,-0.647 -0.54,-1.006 -1.043,-1.006c-0.611,0 -1.509,0.503 -1.509,1.797c0,1.473 1.366,2.479 3.27,2.479c2.229,0 4.744,-1.437 5.319,-3.701l2.624,-10.495" style="fill:#000;fill-rule:nonzero;"/><path d="M491.582,160.475c-0.54,-1.549 -1.403,-2.889 -2.711,-3.485c-3.435,-1.564 -6.998,1.987 -6.932,7.19c0.043,3.337 1.709,6.425 3.966,7.453c0.588,0.268 2.059,0.819 3.792,-0.919c0.249,1.614 1.277,3.227 2.684,3.868c1.047,0.476 1.691,-0.02 2.166,-0.949c0.475,-1.048 0.806,-3.068 0.805,-3.148c-0.004,-0.357 -0.266,-0.477 -0.331,-0.506c-0.295,-0.134 -0.325,0.01 -0.417,0.442c-0.461,2.12 -0.958,3.947 -2.168,3.396c-0.785,-0.357 -0.895,-1.316 -0.904,-2.031c-0.01,-0.754 0.052,-1.042 0.359,-2.443c0.308,-1.36 0.336,-1.703 0.613,-2.919l0.983,-4.489c0.183,-0.904 0.182,-0.983 0.181,-1.102c-0.009,-0.636 -0.373,-1.157 -0.864,-1.38c-0.687,-0.313 -1.134,0.273 -1.222,1.022ZM489.803,168.827c-0.122,0.576 -0.121,0.656 -0.572,1.043c-1.25,1.365 -2.453,1.371 -3.271,0.998c-1.472,-0.67 -1.889,-2.795 -1.907,-4.185c-0.023,-1.748 0.869,-5.725 1.502,-7.056c0.889,-1.688 2.181,-2.403 3.358,-1.867c1.897,0.864 2.36,3.997 2.363,4.195c0.002,0.199 -0.06,0.407 -0.091,0.551l-1.382,6.321" style="fill:#000;fill-rule:nonzero;"/><path d="M368.697,208.425c0,-0.04 -0.001,-0.397 -0.359,-0.564c-0.684,-0.318 -2.802,-1.026 -3.584,-1.311c-0.228,-0.067 -0.553,-0.178 -0.552,0.456c0,0.397 0.261,0.518 0.717,0.731c1.401,0.652 1.467,0.96 1.468,1.317c0,0.238 -0.259,1.307 -0.42,1.985l-2.359,10.478c-0.355,1.618 -0.484,2.113 -0.482,3.383c0.006,3.372 1.573,6.282 3.724,7.283c3.453,1.608 7.028,-2 7.019,-7.118c-0.005,-3.254 -1.573,-6.402 -3.887,-7.479c-1.336,-0.622 -2.539,-0.191 -3.417,0.51l2.132,-9.671ZM365.983,220.561c0.162,-0.718 0.162,-0.757 0.422,-1.033c1.429,-1.634 2.764,-1.567 3.513,-1.218c1.043,0.485 1.827,1.92 1.831,4.182c0.003,2.102 -0.934,5.749 -1.453,6.855c-0.974,1.926 -2.307,2.574 -3.448,2.043c-0.977,-0.455 -1.956,-1.863 -1.961,-4.481c-0.001,-0.675 -0.002,-1.349 0.45,-3.359l0.646,-2.989" style="fill:#000;fill-rule:nonzero;"/><path d="M542.615,32.32l-15.713,7.346l4.807,10.281l15.713,-7.346l-4.807,-10.281Z" style="fill:#fff;"/><path d="M1168.91,32.32l-15.713,7.346l4.806,10.281l15.713,-7.346l-4.806,-10.281Z" style="fill:#fff;"/><rect x="521.535" y="191.567" width="35.601" height="37.404" style="fill:#fff;"/><rect x="1144.32" y="188.722" width="35.601" height="37.404" style="fill:#fff;"/><g><path d="M543.434,201.079c0.287,-1.186 0.359,-1.51 2.731,-1.51c0.827,0 1.078,0 1.078,-0.611c0,-0.359 -0.359,-0.359 -0.467,-0.359c-0.898,0 -3.199,0.072 -4.097,0.072c-0.934,0 -3.235,-0.072 -4.169,-0.072c-0.252,0 -0.611,0 -0.611,0.647c0,0.323 0.288,0.323 0.898,0.323c0.072,0 0.683,0 1.222,0.072c0.611,0.072 0.899,0.108 0.899,0.539c0,0.108 -0.036,0.18 -0.144,0.611l-1.941,7.835l-9.811,0l1.905,-7.547c0.287,-1.186 0.395,-1.51 2.695,-1.51c0.863,0 1.114,0 1.114,-0.611c0,-0.359 -0.359,-0.359 -0.467,-0.359c-0.898,0 -3.198,0.072 -4.097,0.072c-0.934,0 -3.234,-0.072 -4.169,-0.072c-0.251,0 -0.611,0 -0.611,0.647c0,0.323 0.288,0.323 0.899,0.323c0.071,0 0.682,0 1.222,0.072c0.575,0.072 0.862,0.108 0.862,0.539c0,0.108 -0.036,0.216 -0.108,0.611l-4.312,17.251c-0.324,1.258 -0.396,1.509 -2.947,1.509c-0.575,0 -0.863,0 -0.863,0.647c0,0.36 0.395,0.36 0.467,0.36c0.899,0 3.163,-0.072 4.061,-0.072c0.683,0 1.402,0 2.085,0c0.683,0 1.401,0.072 2.084,0.072c0.252,0 0.647,0 0.647,-0.647c0,-0.36 -0.287,-0.36 -0.898,-0.36c-1.186,0 -2.085,0 -2.085,-0.575c0,-0.179 0.036,-0.323 0.072,-0.539l2.192,-8.805l9.812,0c-1.33,5.319 -2.085,8.41 -2.228,8.877c-0.324,1.042 -0.935,1.042 -2.912,1.042c-0.467,0 -0.79,0 -0.79,0.647c0,0.36 0.395,0.36 0.467,0.36c0.899,0 3.199,-0.072 4.097,-0.072c0.647,0 1.366,0 2.049,0c0.718,0 1.401,0.072 2.084,0.072c0.252,0 0.647,0 0.647,-0.647c0,-0.36 -0.287,-0.36 -0.898,-0.36c-1.186,0 -2.085,0 -2.085,-0.575c0,-0.179 0.072,-0.323 0.072,-0.539l4.349,-17.358" style="fill:#000;fill-rule:nonzero;"/><path d="M553.353,210.998c0,-0.611 -0.036,-0.647 -0.683,-0.647c-1.438,1.438 -3.522,1.474 -4.456,1.474l0,0.79c0.575,0 2.048,0 3.306,-0.611l0,11.573c0,0.754 0,1.042 -2.264,1.042l-0.863,0l0,0.791c0.396,0 3.199,-0.072 4.025,-0.072c0.719,0 3.558,0.072 4.062,0.072l0,-0.791l-0.863,0c-2.264,0 -2.264,-0.288 -2.264,-1.042l0,-12.579" style="fill:#000;fill-rule:nonzero;"/></g><path d="M1165.87,196.472c0.288,-1.186 0.359,-1.509 2.695,-1.509c0.863,0 1.115,0 1.115,-0.611c0,-0.359 -0.36,-0.359 -0.468,-0.359c-0.898,0 -3.198,0.072 -4.097,0.072c-0.934,0 -3.234,-0.072 -4.169,-0.072c-0.251,0 -0.611,0 -0.611,0.647c0,0.323 0.288,0.323 0.899,0.323c0.072,0 0.683,0 1.222,0.072c0.575,0.072 0.862,0.108 0.862,0.539c0,0.108 -0.036,0.18 -0.107,0.611l-1.941,7.835l-9.812,0l1.905,-7.548c0.288,-1.186 0.396,-1.509 2.696,-1.509c0.826,0 1.078,0 1.078,-0.611c0,-0.359 -0.324,-0.359 -0.431,-0.359c-0.899,0 -3.235,0.072 -4.133,0.072c-0.935,0 -3.199,-0.072 -4.134,-0.072c-0.251,0 -0.61,0 -0.61,0.647c0,0.323 0.287,0.323 0.898,0.323c0.072,0 0.683,0 1.222,0.072c0.575,0.072 0.862,0.108 0.862,0.539c0,0.108 -0.035,0.216 -0.143,0.611l-4.277,17.251c-0.324,1.258 -0.395,1.509 -2.947,1.509c-0.575,0 -0.863,0 -0.863,0.647c0,0.36 0.396,0.36 0.432,0.36c0.898,0 3.198,-0.072 4.097,-0.072c0.683,0 1.401,0 2.048,0c0.719,0 1.438,0.072 2.121,0.072c0.251,0 0.647,0 0.647,-0.647c0,-0.36 -0.324,-0.36 -0.935,-0.36c-1.186,0 -2.084,0 -2.084,-0.575c0,-0.179 0.072,-0.323 0.108,-0.539l2.192,-8.805l9.811,0c-1.365,5.319 -2.084,8.41 -2.228,8.877c-0.324,1.042 -0.934,1.042 -2.911,1.042c-0.503,0 -0.791,0 -0.791,0.647c0,0.36 0.396,0.36 0.467,0.36c0.899,0 3.163,-0.072 4.062,-0.072c0.682,0 1.401,0 2.084,0c0.683,0 1.402,0.072 2.085,0.072c0.251,0 0.646,0 0.646,-0.647c0,-0.36 -0.287,-0.36 -0.898,-0.36c-1.186,0 -2.085,0 -2.085,-0.575c0,-0.179 0.036,-0.323 0.072,-0.539l4.349,-17.359" style="fill:#000;fill-rule:nonzero;"/><path d="M1181.71,207.075c0.216,-0.791 0.252,-0.935 1.51,-0.935c0.251,0 0.575,0 0.575,-0.467c0,-0.252 -0.18,-0.359 -0.324,-0.359c-0.539,0 -1.905,0.107 -2.444,0.107c-0.503,0 -1.257,-0.036 -1.761,-0.036c-0.575,-0.036 -1.222,-0.071 -1.797,-0.071c-0.143,0 -0.503,0 -0.503,0.503c0,0.323 0.216,0.323 0.899,0.323c0.503,0 0.611,0 1.186,0.036c0.647,0.072 0.719,0.144 0.719,0.431c0,0.144 0,0.18 -0.108,0.503l-2.588,10.387c-0.431,1.725 -1.905,3.127 -3.378,3.127c-0.288,0 -1.725,-0.036 -2.264,-1.15c1.329,0 1.617,-1.079 1.617,-1.474c0,-0.647 -0.539,-1.006 -1.042,-1.006c-0.611,0 -1.51,0.503 -1.51,1.797c0,1.473 1.366,2.48 3.271,2.48c2.228,0 4.744,-1.438 5.319,-3.702l2.623,-10.494" style="fill:#000;fill-rule:nonzero;"/><g><path d="M537.138,41.763l2.791,1.243c0.591,0.264 0.854,0.381 0.882,-0.315c0.016,-0.386 -0.247,-0.503 -0.805,-0.752l-2.56,-1.14c1.252,-4.439 1.412,-5.076 1.421,-5.308c0.024,-0.58 -0.29,-1.074 -0.815,-1.308c-0.066,-0.029 -0.888,-0.356 -1.202,0.763l-1.374,4.975l-2.791,-1.243c-0.558,-0.249 -0.853,-0.38 -0.88,0.276c-0.018,0.425 0.212,0.528 0.803,0.791l2.561,1.141c-2.505,8.878 -2.66,9.399 -2.685,10.017c-0.078,1.893 0.984,3.704 2.593,4.421c2.987,1.331 4.87,-2.985 4.881,-3.255c0.014,-0.348 -0.216,-0.451 -0.347,-0.509c-0.263,-0.117 -0.299,-0.054 -0.446,0.273c-1.428,3.023 -3.006,3.186 -3.991,2.747c-0.623,-0.278 -0.9,-0.873 -0.854,-1.993c0.035,-0.85 0.11,-1.053 0.233,-1.589l2.585,-9.235" style="fill:#000;fill-rule:nonzero;"/></g><g><path d="M1163.43,41.763l2.79,1.243c0.591,0.264 0.854,0.381 0.882,-0.315c0.016,-0.386 -0.246,-0.503 -0.804,-0.752l-2.561,-1.14c1.252,-4.439 1.412,-5.076 1.421,-5.308c0.024,-0.58 -0.29,-1.074 -0.815,-1.308c-0.066,-0.029 -0.888,-0.356 -1.201,0.763l-1.375,4.975l-2.79,-1.243c-0.558,-0.249 -0.854,-0.38 -0.881,0.276c-0.017,0.425 0.213,0.528 0.803,0.791l2.561,1.141c-2.504,8.878 -2.659,9.399 -2.685,10.017c-0.078,1.893 0.985,3.704 2.593,4.421c2.988,1.331 4.87,-2.985 4.881,-3.255c0.014,-0.348 -0.215,-0.451 -0.347,-0.509c-0.262,-0.117 -0.298,-0.054 -0.446,0.273c-1.428,3.023 -3.005,3.186 -3.99,2.747c-0.624,-0.278 -0.9,-0.873 -0.854,-1.993c0.034,-0.85 0.11,-1.053 0.232,-1.589l2.586,-9.235" style="fill:#000;fill-rule:nonzero;"/></g><path d="M1115.53,160.266c-0.54,-1.55 -1.403,-2.89 -2.711,-3.486c-3.434,-1.564 -6.998,1.987 -6.931,7.19c0.043,3.337 1.708,6.425 3.965,7.453c0.589,0.268 2.059,0.819 3.793,-0.919c0.248,1.614 1.277,3.227 2.683,3.868c1.047,0.476 1.691,-0.02 2.167,-0.949c0.474,-1.047 0.806,-3.068 0.805,-3.148c-0.005,-0.357 -0.267,-0.476 -0.332,-0.506c-0.294,-0.134 -0.325,0.01 -0.417,0.442c-0.461,2.12 -0.957,3.947 -2.168,3.396c-0.785,-0.357 -0.894,-1.316 -0.904,-2.031c-0.009,-0.754 0.052,-1.042 0.359,-2.443c0.308,-1.36 0.336,-1.703 0.613,-2.919l0.983,-4.489c0.183,-0.904 0.182,-0.983 0.181,-1.102c-0.008,-0.636 -0.373,-1.157 -0.863,-1.38c-0.687,-0.313 -1.135,0.273 -1.223,1.023ZM1113.75,168.617c-0.122,0.576 -0.121,0.656 -0.571,1.043c-1.251,1.366 -2.454,1.371 -3.272,0.998c-1.472,-0.67 -1.889,-2.795 -1.907,-4.185c-0.023,-1.748 0.869,-5.725 1.503,-7.056c0.888,-1.688 2.18,-2.403 3.357,-1.867c1.897,0.864 2.36,3.997 2.363,4.195c0.002,0.199 -0.06,0.407 -0.091,0.551l-1.382,6.321" style="fill:#000;fill-rule:nonzero;"/><path d="M992.648,208.215c0,-0.04 -0.001,-0.397 -0.359,-0.564c-0.684,-0.318 -2.802,-1.026 -3.583,-1.311c-0.228,-0.066 -0.554,-0.178 -0.553,0.456c0.001,0.397 0.261,0.518 0.717,0.731c1.401,0.652 1.467,0.96 1.468,1.317c0,0.238 -0.258,1.307 -0.42,1.985l-2.359,10.478c-0.355,1.618 -0.484,2.113 -0.482,3.383c0.006,3.372 1.573,6.282 3.724,7.283c3.453,1.608 7.028,-2 7.02,-7.118c-0.006,-3.254 -1.574,-6.402 -3.887,-7.479c-1.336,-0.622 -2.54,-0.191 -3.418,0.51l2.132,-9.671ZM989.934,220.351c0.162,-0.718 0.162,-0.757 0.422,-1.033c1.429,-1.634 2.764,-1.567 3.514,-1.218c1.042,0.485 1.826,1.92 1.83,4.182c0.004,2.102 -0.934,5.749 -1.453,6.855c-0.974,1.926 -2.307,2.574 -3.448,2.043c-0.977,-0.455 -1.956,-1.863 -1.961,-4.481c-0.001,-0.675 -0.002,-1.349 0.45,-3.358l0.646,-2.99" style="fill:#000;fill-rule:nonzero;"/><path d="M97.483,129.618l-6.681,6.792l0.891,0.891l5.79,-5.122l5.734,5.122l0.891,-0.891l-6.625,-6.792" style="fill:#000;fill-rule:nonzero;"/><path d="M112.069,146.209c0.334,-0.668 0.501,-1.114 4.176,-1.114l0.946,0l0,-2.338c-1.893,0.056 -4.287,0.167 -5.678,0.167c-1.949,0 -4.566,0 -6.514,-0.167l0,2.338c0.445,0 4.398,0 4.398,0.613c0,0.167 -0.167,0.445 -0.223,0.612l-10.021,22.659l-10.633,-23.884l4.676,0l0,-2.338c-1.893,0.167 -6.68,0.167 -8.796,0.167c-1.949,0 -6.18,0 -7.906,-0.167l0,2.338l4.566,0l13.806,30.954c0.39,0.891 0.557,1.281 1.949,1.281c0.835,0 1.447,0 2.004,-1.169l13.25,-29.952" style="fill:#000;fill-rule:nonzero;"/><path d="M133.503,171.039c-0.724,-1.169 -1.893,-2.06 -3.618,-2.06c-4.51,0 -9.075,4.955 -9.075,10.021c0,3.396 2.282,5.845 5.344,5.845c1.893,0 3.563,-1.113 4.955,-2.449c0.668,2.06 2.728,2.449 3.619,2.449c1.281,0 2.171,-0.779 2.784,-1.892c0.779,-1.337 1.224,-3.341 1.224,-3.508c0,-0.445 -0.445,-0.445 -0.556,-0.445c-0.501,0 -0.501,0.111 -0.78,1.113c-0.389,1.671 -1.058,3.73 -2.561,3.73c-0.89,0 -1.169,-0.779 -1.169,-1.725c0,-0.613 0.334,-1.838 0.557,-2.784c0.223,-0.946 0.612,-2.394 0.779,-3.173l0.668,-2.673c0.223,-0.89 0.668,-2.561 0.668,-2.728c0,-0.779 -0.668,-1.113 -1.224,-1.113c-0.557,0 -1.392,0.445 -1.615,1.392ZM131.276,180.113c-0.278,0.947 -1.002,1.671 -1.781,2.339c-0.334,0.278 -1.726,1.391 -3.229,1.391c-1.336,0 -2.561,-0.89 -2.561,-3.396c0,-1.892 1.002,-5.734 1.781,-7.126c1.615,-2.839 3.452,-3.34 4.399,-3.34c2.449,0 3.117,2.672 3.117,3.062c0,0.111 -0.056,0.39 -0.056,0.445l-1.67,6.625" style="fill:#000;fill-rule:nonzero;"/><path d="M147.867,183.899c0,1.949 -0.39,4.176 -2.784,6.458c-0.111,0.112 -0.223,0.223 -0.223,0.39c0,0.278 0.279,0.501 0.502,0.501c0.5,0 3.451,-2.784 3.451,-6.959c0,-2.227 -0.835,-3.842 -2.449,-3.842c-1.169,0 -2.005,0.891 -2.005,2.005c0,1.113 0.836,2.004 2.06,2.004c0.835,0 1.392,-0.557 1.448,-0.557" style="fill:#000;fill-rule:nonzero;"/><path d="M161.618,161.129c0.056,-0.056 0.167,-0.501 0.167,-0.557c0,-0.167 -0.167,-0.501 -0.557,-0.501c-0.724,0 -3.619,0.278 -4.509,0.39c-0.279,0 -0.78,0.056 -0.78,0.779c0,0.501 0.501,0.501 0.891,0.501c1.726,0 1.726,0.223 1.726,0.501c0,0.279 -0.39,1.671 -0.557,2.506l-0.835,3.229c-0.334,1.169 -2.227,8.852 -2.338,9.353c-0.167,0.835 -0.167,1.28 -0.167,1.725c0,3.508 2.282,5.79 5.177,5.79c4.399,0 9.075,-4.787 9.075,-10.021c0,-4.064 -2.839,-5.845 -5.289,-5.845c-1.837,0 -3.34,1.002 -4.398,1.948l2.394,-9.798ZM159.892,183.843c-1.726,0 -2.728,-1.503 -2.728,-3.563c0,-1.336 0.334,-2.505 1.281,-6.513c0.222,-0.613 0.222,-0.724 0.89,-1.504c1.337,-1.503 2.951,-2.282 4.176,-2.282c1.392,0 2.561,1.002 2.561,3.396c0,1.447 -0.78,5.011 -1.782,7.07c-0.891,1.726 -2.616,3.396 -4.398,3.396" style="fill:#000;fill-rule:nonzero;"/><path d="M177.318,183.899c0,1.949 -0.334,4.176 -2.728,6.458c-0.167,0.112 -0.223,0.223 -0.223,0.39c0,0.278 0.278,0.501 0.445,0.501c0.501,0 3.508,-2.784 3.508,-6.959c0,-2.227 -0.835,-3.842 -2.45,-3.842c-1.169,0 -2.004,0.891 -2.004,2.005c0,1.113 0.779,2.004 2.004,2.004c0.835,0 1.448,-0.557 1.448,-0.557" style="fill:#000;fill-rule:nonzero;"/><path d="M196.135,170.593l3.452,0c0.668,0 1.169,0 1.169,-0.779c0,-0.501 -0.501,-0.501 -1.114,-0.501l-3.284,0c0.835,-4.454 1.113,-6.068 1.391,-7.071c0.167,-0.779 0.947,-1.503 1.782,-1.503c0.056,0 1.002,0 1.67,0.39c-1.447,0.445 -1.559,1.726 -1.559,1.949c0,0.779 0.613,1.28 1.392,1.28c0.946,0 2.004,-0.779 2.004,-2.116c0,-1.614 -1.725,-2.505 -3.507,-2.505c-1.559,0 -3.229,0.891 -4.231,2.617c-0.668,1.336 -0.947,2.895 -1.67,6.959l-2.784,0c-0.724,0 -1.169,0 -1.169,0.779c0,0.501 0.445,0.501 1.058,0.501l2.616,0c-0.055,0.223 -2.227,12.861 -3.062,16.646c-0.222,0.78 -0.779,3.452 -2.505,3.452c0,0 -0.835,0 -1.503,-0.445c1.392,-0.446 1.503,-1.726 1.503,-1.949c0,-0.779 -0.557,-1.28 -1.392,-1.28c-0.946,0 -2.004,0.779 -2.004,2.115c0,1.615 1.67,2.506 3.396,2.506c2.283,0 3.841,-2.283 4.231,-3.062c1.281,-2.394 2.06,-6.681 2.171,-7.127l1.949,-10.856" style="fill:#000;fill-rule:nonzero;"/><path d="M210.554,183.899c0,1.949 -0.334,4.176 -2.728,6.458c-0.111,0.112 -0.223,0.223 -0.223,0.39c0,0.278 0.279,0.501 0.446,0.501c0.501,0 3.507,-2.784 3.507,-6.959c0,-2.227 -0.835,-3.842 -2.449,-3.842c-1.17,0 -2.005,0.891 -2.005,2.005c0,1.113 0.78,2.004 2.005,2.004c0.89,0 1.447,-0.557 1.447,-0.557" style="fill:#000;fill-rule:nonzero;"/><path d="M223.526,170.593l3.563,0c0.669,0 1.113,0 1.113,-0.779c0,-0.501 -0.444,-0.501 -1.057,-0.501l-3.341,0l1.337,-5.178c0,-0.167 0.111,-0.334 0.111,-0.501c0,-0.612 -0.502,-1.113 -1.226,-1.113c-0.89,0 -1.391,0.612 -1.613,1.503c-0.279,0.891 0.167,-0.835 -1.337,5.289l-3.618,0c-0.668,0 -1.114,0 -1.114,0.779c0,0.501 0.446,0.501 1.058,0.501l3.341,0l-2.061,8.296c-0.223,0.89 -0.556,2.171 -0.556,2.616c0,2.06 1.781,3.34 3.785,3.34c3.897,0 6.125,-4.954 6.125,-5.4c0,-0.445 -0.502,-0.445 -0.613,-0.445c-0.389,0 -0.445,0.055 -0.724,0.668c-0.947,2.227 -2.784,4.175 -4.677,4.175c-0.779,0 -1.224,-0.445 -1.224,-1.725c0,-0.334 0.111,-1.058 0.167,-1.448l2.561,-10.077" style="fill:#000;fill-rule:nonzero;"/></svg>