<?xml version="1.0" standalone="no"?><!DOCTYPE svg PUBLIC "-//W3C//DTD SVG 1.1//EN" "http://www.w3.org/Graphics/SVG/1.1/DTD/svg11.dtd"><svg width="100%" height="100%" viewBox="0 0 1100 300" version="1.1" xmlns="http://www.w3.org/2000/svg" xmlns:xlink="http://www.w3.org/1999/xlink" xml:space="preserve" style="fill-rule:evenodd;clip-rule:evenodd;stroke-linecap:round;stroke-linejoin:round;stroke-miterlimit:1.41421;"><g><rect x="501.148" y="101.937" width="43.418" height="26.689" style="fill:#fff;stroke-width:1px;stroke:#000;"/><rect x="501.148" y="138.651" width="43.418" height="26.689" style="fill:#fff;stroke-width:1px;stroke:#000;"/><rect x="501.148" y="174.925" width="43.418" height="26.689" style="fill:#fff;stroke-width:1px;stroke:#000;"/><rect x="501.148" y="211.405" width="43.418" height="26.689" style="fill:#fff;stroke-width:1px;stroke:#000;"/><rect x="501.148" y="138.651" width="43.418" height="26.689" style="fill:#fff;stroke-width:1px;stroke:#000;"/><rect x="554.613" y="101.937" width="43.418" height="26.689" style="fill:#fff;stroke-width:1px;stroke:#000;"/><rect x="554.613" y="138.651" width="43.418" height="26.689" style="fill:#fff;stroke-width:1px;stroke:#000;"/><rect x="554.613" y="174.925" width="43.418" height="26.689" style="fill:#fff;stroke-width:1px;stroke:#000;"/><rect x="554.613" y="211.405" width="43.418" height="26.689" style="fill:#fff;stroke-width:1px;stroke:#000;"/><rect x="608.433" y="101.937" width="43.418" height="26.689" style="fill:#fff;stroke-width:1px;stroke:#000;"/><rect x="608.433" y="174.925" width="43.418" height="26.689" style="fill:#fff;stroke-width:1px;stroke:#000;"/><rect x="608.433" y="211.405" width="43.418" height="26.689" style="fill:#fff;stroke-width:1px;stroke:#000;"/><rect x="608.433" y="138.651" width="43.418" height="26.689" style="fill:#fff;stroke-width:1px;stroke:#000;"/><rect x="664.807" y="101.937" width="43.418" height="26.689" style="fill:#fff;stroke-width:1px;stroke:#000;"/><rect x="664.807" y="174.925" width="43.418" height="26.689" style="fill:#fff;stroke-width:1px;stroke:#000;"/><rect x="664.807" y="211.405" width="43.418" height="26.689" style="fill:#fff;stroke-width:1px;stroke:#000;"/><rect x="664.807" y="138.651" width="43.418" height="26.689" style="fill:#fff;stroke-width:1px;stroke:#000;"/></g><g><rect x="847.859" y="101.937" width="43.418" height="26.689" style="fill:#f1d5b1;stroke-width:1px;stroke:#000;"/><rect x="847.859" y="138.651" width="43.418" height="26.689" style="fill:#f1d5b1;stroke-width:1px;stroke:#000;"/><rect x="847.859" y="174.925" width="43.418" height="26.689" style="fill:#f1d5b1;stroke-width:1px;stroke:#000;"/><rect x="847.859" y="211.405" width="43.418" height="26.689" style="fill:#f1d5b1;stroke-width:1px;stroke:#000;"/><rect x="847.859" y="138.651" width="43.418" height="26.689" style="fill:#f1d5b1;stroke-width:1px;stroke:#000;"/><rect x="901.324" y="101.937" width="43.418" height="26.689" style="fill:#f1d5b1;stroke-width:1px;stroke:#000;"/><rect x="901.324" y="138.651" width="43.418" height="26.689" style="fill:#f1d5b1;stroke-width:1px;stroke:#000;"/><rect x="901.324" y="174.925" width="43.418" height="26.689" style="fill:#f1d5b1;stroke-width:1px;stroke:#000;"/><rect x="901.324" y="211.405" width="43.418" height="26.689" style="fill:#f1d5b1;stroke-width:1px;stroke:#000;"/><rect x="955.144" y="101.937" width="43.418" height="26.689" style="fill:#f1d5b1;stroke-width:1px;stroke:#000;"/><rect x="955.144" y="174.925" width="43.418" height="26.689" style="fill:#f1d5b1;stroke-width:1px;stroke:#000;"/><rect x="955.144" y="211.405" width="43.418" height="26.689" style="fill:#f1d5b1;stroke-width:1px;stroke:#000;"/><rect x="955.144" y="138.651" width="43.418" height="26.689" style="fill:#f1d5b1;stroke-width:1px;stroke:#000;"/><rect x="1011.52" y="101.937" width="43.418" height="26.689" style="fill:#f1d5b1;stroke-width:1px;stroke:#000;"/><rect x="1011.52" y="174.925" width="43.418" height="26.689" style="fill:#f1d5b1;stroke-width:1px;stroke:#000;"/><rect x="1011.52" y="211.405" width="43.418" height="26.689" style="fill:#f1d5b1;stroke-width:1px;stroke:#000;"/><rect x="1011.52" y="138.651" width="43.418" height="26.689" style="fill:#f1d5b1;stroke-width:1px;stroke:#000;"/></g><text x="243.412px" y="58.13px" style="font-family:'FiraSans-Regular';font-size:36px;fill:#000;">S<tspan x="262.656px " y="58.13px ">T</tspan>FT</text><text x="528.48px" y="60.629px" style="font-family:'FiraSans-Regular';font-size:36px;fill:#000;">S<tspan x="547.724px " y="60.629px ">T</tspan>FT<tspan x="600.062px " y="60.629px ">-</tspan>Grid</text><text x="920.261px" y="57.415px" style="font-family:'FiraSans-Regular';font-size:36px;fill:#000;">CFT</text><rect x="181.66" y="111.732" width="217.685" height="105.544" style="fill:#fff;stroke-width:1px;stroke:#000;"/><path d="M83.754,162.577l0,-2.048l55.93,0l0,-4.96l5.984,5.984l-5.984,5.984l0,-4.96l-55.93,0Z" style="fill:#000;stroke-width:1px;stroke:#000;"/><path d="M399.626,164.399l0,-2.049l50.146,0l0,-4.959l5.983,5.983l-5.983,5.984l0,-4.959l-50.146,0Z" style="fill:#000;stroke-width:1px;stroke:#000;"/><path d="M729.939,115.947l0,-2.048l73.85,0l0,-4.96l5.984,5.984l-5.984,5.984l0,-4.96l-73.85,0Z" style="fill:#000;stroke-width:1px;stroke:#000;"/><path d="M731.656,153.175l0,-2.048l73.85,0l0,-4.96l5.984,5.984l-5.984,5.984l0,-4.96l-73.85,0Z" style="fill:#000;stroke-width:1px;stroke:#000;"/><path d="M732.818,189.459l0,-2.048l73.851,0l0,-4.96l5.983,5.984l-5.983,5.983l0,-4.959l-73.851,0Z" style="fill:#000;stroke-width:1px;stroke:#000;"/><path d="M732.719,226.775l0,-2.048l73.85,0l0,-4.959l5.984,5.983l-5.984,5.984l0,-4.96l-73.85,0Z" style="fill:#000;stroke-width:1px;stroke:#000;"/><path d="M22.811,158.826c0.24,-0.932 1.066,-4.26 3.569,-4.26c0.186,0 1.038,0 1.784,0.479c-0.986,0.187 -1.705,1.092 -1.705,1.944c0,0.559 0.4,1.252 1.358,1.252c0.799,0 1.944,-0.64 1.944,-2.077c0,-1.864 -2.13,-2.37 -3.355,-2.37c-2.077,0 -3.328,1.89 -3.754,2.716c-0.906,-2.37 -2.849,-2.716 -3.888,-2.716c-3.728,0 -5.778,4.633 -5.778,5.538c0,0.346 0.346,0.346 0.426,0.346c0.293,0 0.399,-0.079 0.479,-0.399c1.198,-3.808 3.568,-4.713 4.793,-4.713c0.692,0 1.944,0.346 1.944,2.423c0,1.118 -0.612,3.515 -1.944,8.547c-0.559,2.237 -1.81,3.728 -3.408,3.728c-0.213,0 -1.039,0 -1.784,-0.452c0.905,-0.187 1.677,-0.932 1.677,-1.944c0,-0.985 -0.772,-1.252 -1.331,-1.252c-1.065,0 -1.97,0.932 -1.97,2.077c0,1.651 1.81,2.37 3.381,2.37c2.37,0 3.648,-2.529 3.781,-2.742c0.426,1.331 1.705,2.742 3.861,2.742c3.702,0 5.752,-4.633 5.752,-5.538c0,-0.346 -0.32,-0.346 -0.426,-0.346c-0.32,0 -0.4,0.133 -0.479,0.372c-1.172,3.861 -3.622,4.713 -4.767,4.713c-1.411,0 -1.97,-1.145 -1.97,-2.37c0,-0.798 0.213,-1.571 0.612,-3.168l1.198,-4.9" style="fill:#000;fill-rule:nonzero;"/><path d="M43.208,178.291c0,-0.106 0,-0.186 -0.612,-0.799c-4.474,-4.526 -5.619,-11.316 -5.619,-16.802c0,-6.257 1.358,-12.515 5.778,-16.988c0.453,-0.426 0.453,-0.506 0.453,-0.612c0,-0.267 -0.133,-0.373 -0.346,-0.373c-0.373,0 -3.595,2.449 -5.725,7.003c-1.811,3.967 -2.263,7.935 -2.263,10.97c0,2.796 0.399,7.136 2.37,11.21c2.156,4.394 5.245,6.737 5.618,6.737c0.213,0 0.346,-0.106 0.346,-0.346" style="fill:#000;fill-rule:nonzero;"/><path d="M48.48,167.534c-0.106,0.559 -0.319,1.384 -0.319,1.544c0,0.666 0.506,0.985 1.038,0.985c0.426,0 1.092,-0.293 1.332,-1.012c0.053,-0.08 0.479,-1.757 0.692,-2.662l0.772,-3.222c0.24,-0.799 0.453,-1.598 0.613,-2.397c0.159,-0.612 0.452,-1.677 0.479,-1.811c0.532,-1.118 2.45,-4.393 5.858,-4.393c1.624,0 1.944,1.331 1.944,2.53c0,2.236 -1.758,6.816 -2.343,8.361c-0.32,0.825 -0.347,1.251 -0.347,1.65c0,1.705 1.252,2.956 2.929,2.956c3.382,0 4.713,-5.245 4.713,-5.538c0,-0.346 -0.319,-0.346 -0.426,-0.346c-0.372,0 -0.372,0.106 -0.559,0.639c-0.719,2.449 -1.89,4.446 -3.648,4.446c-0.612,0 -0.878,-0.346 -0.878,-1.171c0,-0.906 0.346,-1.758 0.665,-2.557c0.666,-1.917 2.184,-5.858 2.184,-7.908c0,-2.396 -1.545,-3.834 -4.128,-3.834c-3.248,0 -5.006,2.29 -5.618,3.115c-0.16,-1.997 -1.651,-3.115 -3.302,-3.115c-1.651,0 -2.316,1.384 -2.689,2.05c-0.559,1.225 -1.065,3.329 -1.065,3.488c0,0.346 0.346,0.346 0.426,0.346c0.346,0 0.399,-0.026 0.612,-0.825c0.613,-2.556 1.332,-4.287 2.61,-4.287c0.719,0 1.118,0.479 1.118,1.677c0,0.746 -0.106,1.145 -0.559,3.009l-2.104,8.282" style="fill:#000;fill-rule:nonzero;"/><path d="M77.211,160.69c0,-2.796 -0.399,-7.162 -2.369,-11.21c-2.157,-4.42 -5.246,-6.763 -5.619,-6.763c-0.213,0 -0.346,0.16 -0.346,0.373c0,0.106 0,0.186 0.692,0.825c3.515,3.541 5.565,9.266 5.565,16.775c0,6.125 -1.331,12.462 -5.804,16.989c-0.453,0.426 -0.453,0.506 -0.453,0.612c0,0.213 0.133,0.346 0.346,0.346c0.373,0 3.595,-2.45 5.725,-7.003c1.837,-3.941 2.263,-7.935 2.263,-10.944" style="fill:#000;fill-rule:nonzero;"/><text x="258.414px" y="243.886px" style="font-family:'FiraSans-Regular';font-size:24px;fill:#000;">time</text><text x="526.908px" y="266.17px" style="font-family:'FiraSans-Regular';font-size:16px;fill:#000;">pat<tspan x="550.732px " y="266.17px ">c</tspan>h time inde<tspan x="641.132px " y="266.17px ">x</tspan></text><text x="873.618px" y="266.17px" style="font-family:'FiraSans-Regular';font-size:16px;fill:#000;">pat<tspan x="897.442px " y="266.17px ">c</tspan>h time inde<tspan x="987.842px " y="266.17px ">x</tspan></text><g transform="matrix(-1.60812e-16,-1,1,-1.60812e-16,-487.639,232.608)"><text x="18.552px" y="656.721px" style="font-family:'FiraSans-Regular';font-size:24px;fill:#000;">F<tspan x="29.856px 38.88px " y="656.721px 656.721px ">re</tspan>quency</text></g><g transform="matrix(-1.60812e-16,-1,1,-1.60812e-16,-203.42,586.503)"><text x="337.609px" y="691.559px" style="font-family:'FiraSans-Regular';font-size:18px;fill:#000;">pat<tspan x="364.411px " y="691.559px ">c</tspan>h fr<tspan x="401.131px " y="691.559px ">e</tspan>q inde<tspan x="462.583px " y="691.559px ">x</tspan></text></g><g transform="matrix(-1.60812e-16,-1,1,-1.60812e-16,143.291,933.213)"><text x="684.32px" y="691.559px" style="font-family:'FiraSans-Regular';font-size:18px;fill:#000;">pat<tspan x="711.122px " y="691.559px ">c</tspan>h fr<tspan x="747.842px " y="691.559px ">e</tspan>q inde<tspan x="809.294px " y="691.559px ">x</tspan></text></g><path d="M252.244,155.445c0.227,-0.944 0.664,-1.678 2.551,-1.747c0.105,0 0.385,-0.018 0.385,-0.472c0,-0.018 0,-0.262 -0.298,-0.262c-0.786,0 -1.607,0.069 -2.376,0.069c-0.804,0 -1.625,-0.069 -2.412,-0.069c-0.14,0 -0.419,0 -0.419,0.471c0,0.263 0.227,0.263 0.419,0.263c1.346,0.034 1.608,0.524 1.608,1.048c0,0.07 -0.052,0.419 -0.07,0.489l-2.639,10.485l-5.207,-12.302c-0.192,-0.419 -0.21,-0.454 -0.752,-0.454l-3.163,0c-0.471,0 -0.681,0 -0.681,0.471c0,0.263 0.21,0.263 0.646,0.263c0.123,0 1.608,0 1.608,0.209l-3.163,12.67c-0.227,0.943 -0.629,1.695 -2.534,1.765c-0.14,0 -0.402,0.017 -0.402,0.471c0,0.158 0.123,0.263 0.297,0.263c0.769,0 1.591,-0.07 2.36,-0.07c0.803,0 1.66,0.07 2.429,0.07c0.122,0 0.419,0 0.419,-0.472c0,-0.245 -0.21,-0.262 -0.472,-0.262c-1.363,-0.053 -1.555,-0.577 -1.555,-1.049c0,-0.157 0.035,-0.28 0.105,-0.542l3.11,-12.442c0.088,0.14 0.088,0.192 0.21,0.437l5.872,13.875c0.157,0.402 0.227,0.455 0.436,0.455c0.263,0 0.263,-0.07 0.385,-0.507l3.303,-13.124" style="fill:#000;fill-rule:nonzero;"/><path d="M264.564,166.524c0,-0.489 -0.228,-1.171 -0.892,-1.171c-0.402,0 -0.838,0.507 -0.838,0.909c0,0.542 0.891,0.664 0.891,1.783c0,1.048 -1.066,3.425 -2.901,3.425c-0.786,0 -1.45,-0.542 -1.678,-1.276c0.21,-0.367 0.612,-1.503 0.612,-1.922c0,-0.245 -0.157,-0.49 -0.437,-0.49c-0.839,0 -0.891,1.765 -0.891,2.342c-0.472,0.594 -1.293,1.346 -2.359,1.346c-0.891,0 -1.538,-0.822 -1.538,-1.923c0,-1.904 1.678,-3.495 1.678,-3.739c0,-0.21 -0.158,-0.385 -0.332,-0.385c-0.175,0 -0.263,0.088 -0.385,0.227c-0.21,0.245 -0.419,0.612 -0.629,0.944c-0.577,0.979 -0.979,2.377 -0.979,3.565c0,1.311 0.525,2.621 2.045,2.621c1.101,0 2.045,-0.734 2.639,-1.607c0.314,0.978 1.031,1.59 2.097,1.59c2.883,0 3.897,-4.876 3.897,-6.239" style="fill:#000;fill-rule:nonzero;"/><path d="M281.392,162.522l-4.718,-4.7c-0.28,-0.28 -0.332,-0.332 -0.507,-0.332c-0.245,0 -0.472,0.227 -0.472,0.471c0,0.175 0.035,0.228 0.297,0.472l4.718,4.736l-4.718,4.753c-0.262,0.245 -0.297,0.297 -0.297,0.472c0,0.245 0.227,0.454 0.472,0.454c0.175,0 0.227,-0.035 0.507,-0.314l4.701,-4.701l4.875,4.876c0.052,0.035 0.21,0.139 0.349,0.139c0.28,0 0.472,-0.209 0.472,-0.454c0,-0.052 0,-0.157 -0.069,-0.262c-0.018,-0.053 -3.775,-3.757 -4.946,-4.963l4.317,-4.299c0.104,-0.14 0.471,-0.454 0.576,-0.594c0.035,-0.052 0.122,-0.14 0.122,-0.315c0,-0.244 -0.192,-0.471 -0.472,-0.471c-0.192,0 -0.279,0.104 -0.541,0.367l-4.666,4.665" style="fill:#000;fill-rule:nonzero;"/><path d="M313.546,155.445c0.227,-0.944 0.647,-1.678 2.534,-1.747c0.122,0 0.402,-0.018 0.402,-0.472c0,-0.018 0,-0.262 -0.297,-0.262c-0.787,0 -1.608,0.069 -2.394,0.069c-0.787,0 -1.625,-0.069 -2.394,-0.069c-0.14,0 -0.42,0 -0.42,0.471c0,0.263 0.227,0.263 0.42,0.263c1.345,0.034 1.607,0.524 1.607,1.048c0,0.07 -0.052,0.419 -0.087,0.489l-2.639,10.485l-5.207,-12.302c-0.175,-0.419 -0.21,-0.454 -0.752,-0.454l-3.163,0c-0.472,0 -0.681,0 -0.681,0.471c0,0.263 0.209,0.263 0.664,0.263c0.122,0 1.607,0 1.607,0.209l-3.162,12.67c-0.228,0.943 -0.629,1.695 -2.552,1.765c-0.14,0 -0.402,0.017 -0.402,0.471c0,0.158 0.123,0.263 0.315,0.263c0.751,0 1.573,-0.07 2.359,-0.07c0.804,0 1.643,0.07 2.429,0.07c0.122,0 0.419,0 0.419,-0.472c0,-0.245 -0.209,-0.262 -0.472,-0.262c-1.362,-0.053 -1.555,-0.577 -1.555,-1.049c0,-0.157 0.018,-0.28 0.088,-0.542l3.128,-12.442c0.087,0.14 0.087,0.192 0.209,0.437l5.872,13.875c0.157,0.402 0.227,0.455 0.437,0.455c0.262,0 0.262,-0.07 0.384,-0.507l3.303,-13.124" style="fill:#000;fill-rule:nonzero;"/><path d="M320.257,166.647l3.058,0c0.192,0 0.873,0 0.873,-0.665c0,-0.454 -0.419,-0.454 -0.699,-0.454l-5.19,0c-0.472,0 -0.996,0.035 -1.852,0.821c-0.472,0.42 -1.084,1.294 -1.084,1.433c0,0.193 0.21,0.193 0.28,0.193c0.175,0 0.192,-0.035 0.297,-0.175c0.839,-1.153 1.835,-1.153 2.219,-1.153l1.469,0l-1.643,5.26c-0.07,0.262 -0.07,0.279 -0.07,0.384c0,0.437 0.402,0.524 0.541,0.524c0.63,0 0.734,-0.594 0.787,-0.821l1.014,-5.347" style="fill:#000;fill-rule:nonzero;"/><path d="M720.171,109.832c0.141,-0.586 0.412,-1.03 1.583,-1.084c0.065,0 0.239,-0.011 0.239,-0.293c0,-0.011 0,-0.152 -0.185,-0.152c-0.488,0 -0.997,0.043 -1.474,0.043c-0.499,0 -1.009,-0.043 -1.497,-0.043c-0.087,0 -0.26,0 -0.26,0.293c0,0.152 0.141,0.152 0.26,0.152c0.835,0.021 0.998,0.325 0.998,0.65c0,0.044 -0.033,0.261 -0.044,0.304l-1.637,6.506l-3.231,-7.634c-0.12,-0.26 -0.13,-0.271 -0.467,-0.271l-1.962,0c-0.293,0 -0.423,0 -0.423,0.293c0,0.152 0.13,0.152 0.401,0.152c0.076,0 0.998,0 0.998,0.141l-1.963,7.85c-0.141,0.586 -0.39,1.052 -1.572,1.095c-0.087,0 -0.25,0.011 -0.25,0.293c0,0.098 0.076,0.163 0.185,0.163c0.477,0 0.986,-0.044 1.464,-0.044c0.498,0 1.03,0.044 1.507,0.044c0.076,0 0.26,0 0.26,-0.293c0,-0.152 -0.13,-0.163 -0.293,-0.163c-0.846,-0.032 -0.965,-0.347 -0.965,-0.639c0,-0.109 0.022,-0.174 0.065,-0.337l1.93,-7.72c0.055,0.087 0.055,0.108 0.13,0.26l3.644,8.61c0.097,0.249 0.141,0.282 0.271,0.282c0.163,0 0.163,-0.044 0.238,-0.304l2.05,-8.154" style="fill:#000;fill-rule:nonzero;"/><path d="M1066.88,109.832c0.141,-0.586 0.412,-1.03 1.583,-1.084c0.065,0 0.238,-0.011 0.238,-0.293c0,-0.011 0,-0.152 -0.184,-0.152c-0.488,0 -0.997,0.043 -1.475,0.043c-0.498,0 -1.008,-0.043 -1.496,-0.043c-0.087,0 -0.26,0 -0.26,0.293c0,0.152 0.141,0.152 0.26,0.152c0.835,0.021 0.998,0.325 0.998,0.65c0,0.044 -0.033,0.261 -0.044,0.304l-1.637,6.506l-3.231,-7.634c-0.12,-0.26 -0.131,-0.271 -0.467,-0.271l-1.962,0c-0.293,0 -0.423,0 -0.423,0.293c0,0.152 0.13,0.152 0.401,0.152c0.076,0 0.998,0 0.998,0.141l-1.963,7.85c-0.141,0.586 -0.39,1.052 -1.572,1.095c-0.087,0 -0.25,0.011 -0.25,0.293c0,0.098 0.076,0.163 0.185,0.163c0.477,0 0.986,-0.044 1.463,-0.044c0.499,0 1.031,0.044 1.508,0.044c0.076,0 0.26,0 0.26,-0.293c0,-0.152 -0.13,-0.163 -0.293,-0.163c-0.846,-0.032 -0.965,-0.347 -0.965,-0.639c0,-0.109 0.022,-0.174 0.065,-0.337l1.93,-7.72c0.054,0.087 0.054,0.108 0.13,0.26l3.644,8.61c0.097,0.249 0.141,0.282 0.271,0.282c0.162,0 0.162,-0.044 0.238,-0.304l2.05,-8.154" style="fill:#000;fill-rule:nonzero;"/><path d="M725.148,116.587c-0.217,-0.336 -0.564,-0.596 -1.052,-0.596c-1.301,0 -2.635,1.431 -2.635,2.906c0,0.987 0.662,1.692 1.54,1.692c0.553,0 1.041,-0.315 1.453,-0.716c0.195,0.618 0.792,0.716 1.052,0.716c0.368,0 0.618,-0.228 0.802,-0.543c0.228,-0.39 0.358,-0.976 0.358,-1.019c0,-0.13 -0.13,-0.13 -0.163,-0.13c-0.141,0 -0.151,0.043 -0.217,0.314c-0.13,0.488 -0.325,1.096 -0.748,1.096c-0.271,0 -0.336,-0.228 -0.336,-0.499c0,-0.174 0.076,-0.542 0.152,-0.813c0.065,-0.271 0.173,-0.694 0.228,-0.911l0.195,-0.781c0.065,-0.26 0.184,-0.748 0.184,-0.792c0,-0.227 -0.184,-0.336 -0.347,-0.336c-0.173,0 -0.401,0.13 -0.466,0.412ZM724.497,119.211c-0.076,0.282 -0.303,0.488 -0.52,0.684c-0.098,0.086 -0.499,0.412 -0.944,0.412c-0.379,0 -0.748,-0.271 -0.748,-0.998c0,-0.531 0.304,-1.659 0.532,-2.071c0.477,-0.813 0.997,-0.965 1.279,-0.965c0.716,0 0.911,0.77 0.911,0.889c0,0.043 -0.022,0.109 -0.033,0.141l-0.477,1.908" style="fill:#000;fill-rule:nonzero;"/><path d="M1071.86,116.587c-0.217,-0.336 -0.564,-0.596 -1.052,-0.596c-1.301,0 -2.635,1.431 -2.635,2.906c0,0.987 0.662,1.692 1.54,1.692c0.553,0 1.041,-0.315 1.453,-0.716c0.195,0.618 0.791,0.716 1.052,0.716c0.368,0 0.618,-0.228 0.802,-0.543c0.228,-0.39 0.358,-0.976 0.358,-1.019c0,-0.13 -0.13,-0.13 -0.163,-0.13c-0.141,0 -0.152,0.043 -0.217,0.314c-0.13,0.488 -0.325,1.096 -0.748,1.096c-0.271,0 -0.336,-0.228 -0.336,-0.499c0,-0.174 0.076,-0.542 0.152,-0.813c0.065,-0.271 0.173,-0.694 0.228,-0.911l0.195,-0.781c0.065,-0.26 0.184,-0.748 0.184,-0.792c0,-0.227 -0.184,-0.336 -0.347,-0.336c-0.173,0 -0.401,0.13 -0.466,0.412ZM1071.21,119.211c-0.076,0.282 -0.303,0.488 -0.52,0.684c-0.098,0.086 -0.499,0.412 -0.944,0.412c-0.379,0 -0.748,-0.271 -0.748,-0.998c0,-0.531 0.304,-1.659 0.532,-2.071c0.477,-0.813 0.997,-0.965 1.279,-0.965c0.716,0 0.911,0.77 0.911,0.889c0,0.043 -0.022,0.109 -0.033,0.141l-0.477,1.908" style="fill:#000;fill-rule:nonzero;"/><path d="M687.614,89.251c0.126,-0.524 0.368,-0.921 1.415,-0.969c0.058,0 0.213,-0.01 0.213,-0.262c0,-0.01 0,-0.136 -0.164,-0.136c-0.436,0 -0.892,0.039 -1.319,0.039c-0.446,0 -0.901,-0.039 -1.338,-0.039c-0.077,0 -0.232,0 -0.232,0.262c0,0.136 0.126,0.136 0.232,0.136c0.747,0.019 0.892,0.29 0.892,0.581c0,0.039 -0.029,0.233 -0.038,0.272l-1.464,5.816l-2.889,-6.825c-0.107,-0.232 -0.126,-0.242 -0.427,-0.242l-1.744,0c-0.262,0 -0.379,0 -0.379,0.262c0,0.136 0.117,0.136 0.359,0.136c0.068,0 0.892,0 0.892,0.126l-1.755,7.018c-0.126,0.523 -0.348,0.94 -1.405,0.979c-0.078,0 -0.223,0.01 -0.223,0.262c0,0.087 0.058,0.145 0.165,0.145c0.416,0 0.882,-0.039 1.308,-0.039c0.446,0 0.921,0.039 1.348,0.039c0.068,0 0.232,0 0.232,-0.262c0,-0.135 -0.116,-0.145 -0.261,-0.145c-0.756,-0.029 -0.863,-0.31 -0.863,-0.572c0,-0.097 0.019,-0.155 0.058,-0.3l1.725,-6.902c0.049,0.077 0.049,0.096 0.117,0.232l3.257,7.697c0.087,0.223 0.126,0.252 0.242,0.252c0.146,0 0.146,-0.039 0.214,-0.271l1.832,-7.29" style="fill:#000;fill-rule:nonzero;"/><path d="M1034.33,89.251c0.126,-0.524 0.368,-0.921 1.415,-0.969c0.058,0 0.213,-0.01 0.213,-0.262c0,-0.01 0,-0.136 -0.165,-0.136c-0.436,0 -0.891,0.039 -1.318,0.039c-0.446,0 -0.901,-0.039 -1.338,-0.039c-0.077,0 -0.232,0 -0.232,0.262c0,0.136 0.126,0.136 0.232,0.136c0.747,0.019 0.892,0.29 0.892,0.581c0,0.039 -0.029,0.233 -0.038,0.272l-1.464,5.816l-2.889,-6.825c-0.107,-0.232 -0.126,-0.242 -0.427,-0.242l-1.744,0c-0.262,0 -0.379,0 -0.379,0.262c0,0.136 0.117,0.136 0.359,0.136c0.068,0 0.892,0 0.892,0.126l-1.755,7.018c-0.126,0.523 -0.349,0.94 -1.405,0.979c-0.078,0 -0.223,0.01 -0.223,0.262c0,0.087 0.058,0.145 0.165,0.145c0.416,0 0.882,-0.039 1.308,-0.039c0.446,0 0.921,0.039 1.348,0.039c0.068,0 0.232,0 0.232,-0.262c0,-0.135 -0.116,-0.145 -0.262,-0.145c-0.755,-0.029 -0.862,-0.31 -0.862,-0.572c0,-0.097 0.019,-0.155 0.058,-0.3l1.725,-6.902c0.049,0.077 0.049,0.096 0.117,0.232l3.257,7.697c0.087,0.223 0.126,0.252 0.242,0.252c0.146,0 0.146,-0.039 0.214,-0.271l1.832,-7.29" style="fill:#000;fill-rule:nonzero;"/><path d="M690.619,92.721c0.01,-0.019 0.039,-0.135 0.039,-0.145c0,-0.049 -0.039,-0.136 -0.146,-0.136c-0.184,0 -0.94,0.078 -1.173,0.097c-0.067,0.01 -0.193,0.02 -0.193,0.204c0,0.135 0.126,0.135 0.232,0.135c0.436,0 0.436,0.059 0.436,0.136c0,0.058 -0.087,0.427 -0.145,0.64l-0.204,0.834c-0.087,0.31 -0.591,2.307 -0.601,2.433c-0.048,0.213 -0.048,0.329 -0.048,0.446c0,0.921 0.581,1.502 1.338,1.502c1.144,0 2.355,-1.241 2.355,-2.588c0,-1.066 -0.736,-1.522 -1.366,-1.522c-0.475,0 -0.873,0.262 -1.154,0.494l0.63,-2.53ZM690.163,98.615c-0.446,0 -0.698,-0.397 -0.698,-0.93c0,-0.34 0.078,-0.65 0.34,-1.677c0.048,-0.175 0.048,-0.194 0.222,-0.398c0.35,-0.397 0.757,-0.601 1.086,-0.601c0.359,0 0.669,0.262 0.669,0.882c0,0.378 -0.203,1.309 -0.475,1.832c-0.223,0.456 -0.678,0.892 -1.144,0.892" style="fill:#000;fill-rule:nonzero;"/><path d="M1037.33,92.721c0.009,-0.019 0.039,-0.135 0.039,-0.145c0,-0.049 -0.039,-0.136 -0.146,-0.136c-0.184,0 -0.94,0.078 -1.173,0.097c-0.067,0.01 -0.194,0.02 -0.194,0.204c0,0.135 0.127,0.135 0.233,0.135c0.436,0 0.436,0.059 0.436,0.136c0,0.058 -0.087,0.427 -0.145,0.64l-0.204,0.834c-0.087,0.31 -0.591,2.307 -0.601,2.433c-0.048,0.213 -0.048,0.329 -0.048,0.446c0,0.921 0.581,1.502 1.337,1.502c1.145,0 2.356,-1.241 2.356,-2.588c0,-1.066 -0.737,-1.522 -1.367,-1.522c-0.475,0 -0.872,0.262 -1.153,0.494l0.63,-2.53ZM1036.87,98.615c-0.446,0 -0.698,-0.397 -0.698,-0.93c0,-0.34 0.078,-0.65 0.34,-1.677c0.048,-0.175 0.048,-0.194 0.222,-0.398c0.35,-0.397 0.757,-0.601 1.086,-0.601c0.359,0 0.669,0.262 0.669,0.882c0,0.378 -0.204,1.309 -0.475,1.832c-0.223,0.456 -0.679,0.892 -1.144,0.892" style="fill:#000;fill-rule:nonzero;"/><path d="M474.969,92.181c-0.826,-0.198 -1.453,-0.581 -1.53,-2.232c0,-0.092 -0.015,-0.352 -0.413,-0.352c-0.015,0 -0.214,0 -0.214,0.275c0,0.688 0.062,1.407 0.062,2.08c0,0.704 -0.062,1.422 -0.062,2.11c0,0.123 0,0.367 0.413,0.367c0.214,0 0.214,-0.199 0.214,-0.367c0.031,-1.177 0.459,-1.406 0.918,-1.406c0.061,0 0.367,0.045 0.428,0.061l9.175,2.309l-10.765,4.557c-0.367,0.168 -0.383,0.183 -0.383,0.657l0,2.768c0,0.413 0,0.596 0.413,0.596c0.214,0 0.214,-0.183 0.214,-0.565c0,-0.107 0,-1.407 0.199,-1.407l11.071,2.768c0.826,0.198 1.484,0.55 1.545,2.217c0,0.122 0.015,0.352 0.413,0.352c0.137,0 0.229,-0.107 0.229,-0.26c0,-0.673 -0.061,-1.392 -0.061,-2.065c0,-0.703 0.061,-1.452 0.061,-2.125c0,-0.108 0,-0.367 -0.413,-0.367c-0.214,0 -0.229,0.183 -0.229,0.412c-0.046,1.193 -0.489,1.362 -0.902,1.362c-0.153,0 -0.245,-0.031 -0.474,-0.092l-10.888,-2.722c0.122,-0.077 0.153,-0.077 0.367,-0.184l12.142,-5.138c0.351,-0.137 0.397,-0.198 0.397,-0.382c0,-0.229 -0.061,-0.229 -0.428,-0.337l-11.499,-2.89" style="fill:#000;fill-rule:nonzero;"/><path d="M821.679,92.181c-0.825,-0.198 -1.452,-0.581 -1.529,-2.232c0,-0.092 -0.015,-0.352 -0.413,-0.352c-0.015,0 -0.214,0 -0.214,0.275c0,0.688 0.061,1.407 0.061,2.08c0,0.704 -0.061,1.422 -0.061,2.11c0,0.123 0,0.367 0.413,0.367c0.214,0 0.214,-0.199 0.214,-0.367c0.031,-1.177 0.459,-1.406 0.918,-1.406c0.061,0 0.367,0.045 0.428,0.061l9.175,2.309l-10.765,4.557c-0.367,0.168 -0.383,0.183 -0.383,0.657l0,2.768c0,0.413 0,0.596 0.413,0.596c0.214,0 0.214,-0.183 0.214,-0.565c0,-0.107 0,-1.407 0.199,-1.407l11.071,2.768c0.826,0.198 1.484,0.55 1.545,2.217c0,0.122 0.015,0.352 0.413,0.352c0.137,0 0.229,-0.107 0.229,-0.26c0,-0.673 -0.061,-1.392 -0.061,-2.065c0,-0.703 0.061,-1.452 0.061,-2.125c0,-0.108 0,-0.367 -0.413,-0.367c-0.214,0 -0.229,0.183 -0.229,0.412c-0.046,1.193 -0.489,1.362 -0.902,1.362c-0.153,0 -0.245,-0.031 -0.474,-0.092l-10.888,-2.722c0.122,-0.077 0.153,-0.077 0.367,-0.184l12.142,-5.138c0.351,-0.137 0.397,-0.198 0.397,-0.382c0,-0.229 -0.061,-0.229 -0.428,-0.337l-11.5,-2.89" style="fill:#000;fill-rule:nonzero;"/><path d="M484.312,85.376l0,-1.406c0,-0.291 0,-0.475 -0.321,-0.475c-0.199,0 -0.199,0.184 -0.199,0.444l0,1.33c-1.835,-0.321 -2.493,-0.443 -2.906,-0.55c-0.321,-0.077 -0.626,-0.397 -0.626,-0.734c0,-0.015 0,-0.413 0.183,-0.673c0.184,0.581 0.703,0.627 0.78,0.627c0.321,0 0.535,-0.245 0.535,-0.581c0,-0.382 -0.321,-0.811 -0.872,-0.811c-0.657,0 -1.024,0.704 -1.024,1.438c0,0.627 0.367,1.33 1.086,1.728c0.52,0.29 1.177,0.398 2.844,0.703l0,1.132c0,0.29 0,0.474 0.321,0.474c0.199,0 0.199,-0.184 0.199,-0.443l0,-1.071c0.092,0.016 5.26,0.933 6.805,1.269c0.321,0.077 1.407,0.321 1.407,1.01c0,0.015 0,0.366 -0.169,0.642c-0.183,-0.597 -0.703,-0.642 -0.795,-0.642c-0.306,0 -0.535,0.244 -0.535,0.581c0,0.382 0.336,0.81 0.887,0.81c0.642,0 1.025,-0.673 1.025,-1.391c0,-0.918 -0.949,-1.545 -1.27,-1.728c-0.963,-0.52 -2.737,-0.842 -2.905,-0.872l-4.45,-0.811" style="fill:#000;fill-rule:nonzero;"/><path d="M831.023,85.376l0,-1.406c0,-0.291 0,-0.475 -0.321,-0.475c-0.199,0 -0.199,0.184 -0.199,0.444l0,1.33c-1.835,-0.321 -2.493,-0.443 -2.906,-0.55c-0.321,-0.077 -0.627,-0.397 -0.627,-0.734c0,-0.015 0,-0.413 0.184,-0.673c0.183,0.581 0.703,0.627 0.78,0.627c0.321,0 0.535,-0.245 0.535,-0.581c0,-0.382 -0.321,-0.811 -0.872,-0.811c-0.657,0 -1.024,0.704 -1.024,1.438c0,0.627 0.367,1.33 1.086,1.728c0.52,0.29 1.177,0.398 2.844,0.703l0,1.132c0,0.29 0,0.474 0.321,0.474c0.199,0 0.199,-0.184 0.199,-0.443l0,-1.071c0.092,0.016 5.26,0.933 6.805,1.269c0.321,0.077 1.407,0.321 1.407,1.01c0,0.015 0,0.366 -0.169,0.642c-0.183,-0.597 -0.703,-0.642 -0.795,-0.642c-0.306,0 -0.535,0.244 -0.535,0.581c0,0.382 0.336,0.81 0.887,0.81c0.642,0 1.024,-0.673 1.024,-1.391c0,-0.918 -0.948,-1.545 -1.269,-1.728c-0.963,-0.52 -2.737,-0.842 -2.905,-0.872l-4.45,-0.811" style="fill:#000;fill-rule:nonzero;"/><path d="M677.06,254.683c0.199,-0.826 0.581,-1.453 2.233,-1.529c0.091,0 0.351,-0.016 0.351,-0.413c0,-0.016 0,-0.214 -0.275,-0.214c-0.673,0 -1.407,0.061 -2.08,0.061c-0.703,0 -1.421,-0.061 -2.11,-0.061c-0.122,0 -0.367,0 -0.367,0.412c0,0.215 0.199,0.215 0.367,0.215c1.178,0.03 1.407,0.458 1.407,0.917c0,0.061 -0.046,0.367 -0.061,0.428l-2.309,9.175l-4.557,-10.765c-0.169,-0.367 -0.184,-0.382 -0.658,-0.382l-2.768,0c-0.413,0 -0.596,0 -0.596,0.412c0,0.215 0.183,0.215 0.581,0.215c0.092,0 1.392,0 1.392,0.198l-2.768,11.072c-0.199,0.825 -0.551,1.483 -2.218,1.544c-0.122,0 -0.351,0.015 -0.351,0.413c0,0.138 0.107,0.229 0.26,0.229c0.673,0 1.391,-0.061 2.064,-0.061c0.704,0 1.453,0.061 2.126,0.061c0.107,0 0.367,0 0.367,-0.412c0,-0.215 -0.184,-0.23 -0.413,-0.23c-1.193,-0.046 -1.361,-0.489 -1.361,-0.902c0,-0.153 0.031,-0.245 0.092,-0.474l2.722,-10.888c0.076,0.122 0.076,0.153 0.183,0.367l5.138,12.142c0.138,0.352 0.199,0.397 0.382,0.397c0.23,0 0.23,-0.061 0.337,-0.428l2.89,-11.499" style="fill:#000;fill-rule:nonzero;"/><path d="M1023.77,254.683c0.199,-0.826 0.581,-1.453 2.233,-1.529c0.091,0 0.351,-0.016 0.351,-0.413c0,-0.016 0,-0.214 -0.275,-0.214c-0.673,0 -1.407,0.061 -2.08,0.061c-0.703,0 -1.422,-0.061 -2.11,-0.061c-0.122,0 -0.367,0 -0.367,0.412c0,0.215 0.199,0.215 0.367,0.215c1.178,0.03 1.407,0.458 1.407,0.917c0,0.061 -0.046,0.367 -0.061,0.428l-2.309,9.175l-4.557,-10.765c-0.169,-0.367 -0.184,-0.382 -0.658,-0.382l-2.768,0c-0.413,0 -0.596,0 -0.596,0.412c0,0.215 0.183,0.215 0.581,0.215c0.092,0 1.392,0 1.392,0.198l-2.768,11.072c-0.199,0.825 -0.551,1.483 -2.218,1.544c-0.122,0 -0.351,0.015 -0.351,0.413c0,0.138 0.107,0.229 0.26,0.229c0.673,0 1.391,-0.061 2.064,-0.061c0.703,0 1.453,0.061 2.126,0.061c0.107,0 0.367,0 0.367,-0.412c0,-0.215 -0.184,-0.23 -0.413,-0.23c-1.193,-0.046 -1.361,-0.489 -1.361,-0.902c0,-0.153 0.031,-0.245 0.092,-0.474l2.722,-10.888c0.076,0.122 0.076,0.153 0.183,0.367l5.138,12.142c0.138,0.352 0.199,0.397 0.382,0.397c0.23,0 0.23,-0.061 0.337,-0.428l2.89,-11.499" style="fill:#000;fill-rule:nonzero;"/><path d="M681.541,264.026l1.468,0c0.275,0 0.459,0 0.459,-0.321c0,-0.199 -0.184,-0.199 -0.429,-0.199l-1.361,0l0.535,-2.125c0.016,-0.077 0.046,-0.153 0.046,-0.199c0,-0.26 -0.214,-0.474 -0.489,-0.474c-0.367,0 -0.581,0.244 -0.688,0.627c-0.092,0.351 0.092,-0.337 -0.535,2.171l-1.468,0c-0.275,0 -0.474,0 -0.474,0.321c0,0.199 0.183,0.199 0.443,0.199l1.361,0l-0.856,3.395c-0.077,0.367 -0.214,0.872 -0.214,1.07c0,0.841 0.718,1.361 1.544,1.361c1.606,0 2.508,-2.018 2.508,-2.202c0,-0.183 -0.183,-0.183 -0.23,-0.183c-0.168,0 -0.183,0.03 -0.305,0.275c-0.398,0.902 -1.132,1.713 -1.927,1.713c-0.306,0 -0.505,-0.184 -0.505,-0.704c0,-0.153 0.061,-0.458 0.092,-0.596l1.025,-4.129" style="fill:#000;fill-rule:nonzero;"/><path d="M1028.25,264.026l1.468,0c0.275,0 0.458,0 0.458,-0.321c0,-0.199 -0.183,-0.199 -0.428,-0.199l-1.361,0l0.535,-2.125c0.016,-0.077 0.046,-0.153 0.046,-0.199c0,-0.26 -0.214,-0.474 -0.489,-0.474c-0.367,0 -0.581,0.244 -0.688,0.627c-0.092,0.351 0.091,-0.337 -0.535,2.171l-1.468,0c-0.275,0 -0.474,0 -0.474,0.321c0,0.199 0.183,0.199 0.443,0.199l1.361,0l-0.856,3.395c-0.077,0.367 -0.214,0.872 -0.214,1.07c0,0.841 0.718,1.361 1.544,1.361c1.606,0 2.508,-2.018 2.508,-2.202c0,-0.183 -0.183,-0.183 -0.23,-0.183c-0.168,0 -0.183,0.03 -0.305,0.275c-0.398,0.902 -1.132,1.713 -1.927,1.713c-0.306,0 -0.505,-0.184 -0.505,-0.704c0,-0.153 0.061,-0.458 0.092,-0.596l1.025,-4.129" style="fill:#000;fill-rule:nonzero;"/><text x="97.244px" y="150.277px" style="font-family:'FiraSans-Regular';font-size:18px;fill:#000;">DFT</text><text x="740.841px" y="174.955px" style="font-family:'FiraSans-Regular';font-size:18px;fill:#000;">2D-DFT</text></svg>