<?xml version="1.0" standalone="no"?><!DOCTYPE svg PUBLIC "-//W3C//DTD SVG 1.1//EN" "http://www.w3.org/Graphics/SVG/1.1/DTD/svg11.dtd"><svg width="100%" height="100%" viewBox="0 0 1280 380" version="1.1" xmlns="http://www.w3.org/2000/svg" xmlns:xlink="http://www.w3.org/1999/xlink" xml:space="preserve" style="fill-rule:evenodd;clip-rule:evenodd;stroke-linejoin:round;stroke-miterlimit:1.41421;"><path id="path3045" d="M379.246,126.023l0,209.311l18.703,8.721l0,-209.311l-18.703,-8.721Z" style="fill:#fff;fill-rule:nonzero;stroke-width:0.98px;stroke:#000;"/><path id="path30451" d="M969.68,126.023l0,209.311l18.702,8.721l0,-209.311l-18.702,-8.721Z" style="fill:#fff;fill-rule:nonzero;stroke-width:0.98px;stroke:#000;"/><path id="path3047" d="M379.246,126.023l18.703,-8.721l18.703,8.721l-18.703,8.721l-18.703,-8.721Z" style="fill:#fff;fill-rule:nonzero;stroke-width:0.98px;stroke:#000;"/><path id="path30471" d="M969.68,126.023l18.702,-8.721l18.703,8.721l-18.703,8.721l-18.702,-8.721Z" style="fill:#fff;fill-rule:nonzero;stroke-width:0.98px;stroke:#000;"/><path id="path3049" d="M397.949,344.055l18.703,-8.721l0,-209.311l-18.703,8.721l0,209.311Z" style="fill:#fff;fill-rule:nonzero;stroke-width:0.98px;stroke:#000;"/><path id="path30491" d="M988.382,344.055l18.703,-8.721l0,-209.311l-18.703,8.721l0,209.311Z" style="fill:#fff;fill-rule:nonzero;stroke-width:0.98px;stroke:#000;"/><path id="path3053" d="M412.532,80.673l0,17.442l18.703,8.721l0,-17.442l-18.703,-8.721Z" style="fill:#fff;fill-rule:nonzero;stroke-width:0.98px;stroke:#000;"/><path id="path30531" d="M1002.97,80.673l0,17.442l18.703,8.721l0,-17.442l-18.703,-8.721Z" style="fill:#fff;fill-rule:nonzero;stroke-width:0.98px;stroke:#000;"/><path id="path3055" d="M412.532,80.673l108.477,-50.584l18.702,8.721l-108.476,50.584l-18.703,-8.721Z" style="fill:#fff;fill-rule:nonzero;stroke-width:0.98px;stroke:#000;"/><path id="path30551" d="M1002.97,80.673l108.476,-50.584l18.703,8.721l-108.476,50.584l-18.703,-8.721Z" style="fill:#fff;fill-rule:nonzero;stroke-width:0.98px;stroke:#000;"/><path id="path3057" d="M431.235,89.394l0,17.442l108.476,-50.583l0,-17.443l-108.476,50.584Z" style="fill:#fff;fill-rule:nonzero;stroke-width:0.98px;stroke:#000;"/><path id="path30571" d="M1021.67,89.394l0,17.442l108.476,-50.583l0,-17.443l-108.476,50.584Z" style="fill:#fff;fill-rule:nonzero;stroke-width:0.98px;stroke:#000;"/><path id="path3061" d="M568.632,180.095l0,17.443l18.703,-8.722l0,-17.442l-18.703,8.721Z" style="fill:#fff;fill-rule:nonzero;stroke-width:0.98px;stroke:#000;"/><path id="path30611" d="M1159.07,180.095l0,17.443l18.703,-8.722l0,-17.442l-18.703,8.721Z" style="fill:#fff;fill-rule:nonzero;stroke-width:0.98px;stroke:#000;"/><path id="path3063" d="M568.632,180.095l-153.363,-71.514l18.703,-8.722l153.363,71.515l-18.703,8.721Z" style="fill:#fff;fill-rule:nonzero;stroke-width:0.98px;stroke:#000;"/><path id="path30631" d="M1159.07,180.095l-153.364,-71.514l18.703,-8.722l153.364,71.515l-18.703,8.721Z" style="fill:#fff;fill-rule:nonzero;stroke-width:0.98px;stroke:#000;"/><path id="path3065" d="M568.632,197.538l-153.363,-71.515l0,-17.442l153.363,71.514l0,17.443Z" style="fill:#fff;fill-rule:nonzero;stroke-width:0.98px;stroke:#000;"/><path id="path30651" d="M1159.07,197.538l-153.364,-71.515l0,-17.442l153.364,71.514l0,17.443Z" style="fill:#fff;fill-rule:nonzero;stroke-width:0.98px;stroke:#000;"/><path d="M729.846,182.709l8.638,0c0.415,0 1.002,0 1.002,-0.622c0,-0.587 -0.587,-0.587 -1.002,-0.587l-8.638,0l0,-8.673c0,-0.449 0,-1.036 -0.622,-1.036c-0.622,0 -0.622,0.587 -0.622,1.036l0,8.673l-8.672,0c-0.415,0 -1.002,0 -1.002,0.587c0,0.622 0.587,0.622 1.002,0.622l8.672,0l0,8.673c0,0.449 0,1.036 0.622,1.036c0.622,0 0.622,-0.587 0.622,-1.036l0,-8.673" style="fill:#000;fill-rule:nonzero;"/><path d="M883.018,182.709l8.638,0c0.415,0 1.002,0 1.002,-0.622c0,-0.587 -0.587,-0.587 -1.002,-0.587l-8.638,0l0,-8.673c0,-0.449 0,-1.036 -0.622,-1.036c-0.622,0 -0.622,0.587 -0.622,1.036l0,8.673l-8.672,0c-0.415,0 -1.002,0 -1.002,0.587c0,0.622 0.587,0.622 1.002,0.622l8.672,0l0,8.673c0,0.449 0,1.036 0.622,1.036c0.622,0 0.622,-0.587 0.622,-1.036l0,-8.673" style="fill:#000;fill-rule:nonzero;"/><g><path d="M87.823,247.301c0.264,-1.096 0.751,-1.949 2.944,-2.03c0.142,0 0.467,-0.021 0.467,-0.548c0,-0.021 0,-0.305 -0.345,-0.305c-0.914,0 -1.868,0.081 -2.782,0.081c-0.913,0 -1.888,-0.081 -2.781,-0.081c-0.163,0 -0.508,0 -0.508,0.548c0,0.305 0.284,0.305 0.508,0.305c1.563,0.02 1.868,0.609 1.868,1.198c0,0.081 -0.061,0.507 -0.102,0.588l-3.066,12.183l-6.05,-14.294c-0.203,-0.487 -0.244,-0.528 -0.873,-0.528l-3.675,0c-0.548,0 -0.792,0 -0.792,0.548c0,0.305 0.244,0.305 0.771,0.305c0.143,0 1.868,0 1.868,0.243l-3.675,14.7c-0.264,1.097 -0.731,1.99 -2.964,2.071c-0.162,0 -0.467,0.021 -0.467,0.548c0,0.183 0.142,0.285 0.366,0.285c0.873,0 1.827,-0.081 2.741,-0.081c0.934,0 1.908,0.081 2.822,0.081c0.142,0 0.487,0 0.487,-0.549c0,-0.263 -0.244,-0.284 -0.548,-0.284c-1.584,-0.061 -1.807,-0.67 -1.807,-1.218c0,-0.183 0.02,-0.325 0.101,-0.629l3.635,-14.457c0.101,0.163 0.101,0.224 0.243,0.488l6.802,16.141c0.203,0.467 0.284,0.508 0.528,0.508c0.305,0 0.305,-0.081 0.447,-0.569l3.837,-15.248" style="fill:#000;fill-rule:nonzero;"/><path d="M96.858,259.686l1.868,0c0.386,0 0.63,0 0.63,-0.406c0,-0.284 -0.244,-0.284 -0.589,-0.284l-1.787,0c0.447,-2.416 0.589,-3.289 0.751,-3.858c0.102,-0.406 0.508,-0.812 0.975,-0.812c0.02,0 0.528,0 0.893,0.224c-0.771,0.243 -0.832,0.933 -0.832,1.055c0,0.427 0.325,0.711 0.751,0.711c0.528,0 1.096,-0.447 1.096,-1.178c0,-0.873 -0.934,-1.34 -1.908,-1.34c-0.853,0 -1.787,0.467 -2.294,1.422c-0.386,0.71 -0.528,1.563 -0.934,3.776l-1.523,0c-0.366,0 -0.63,0 -0.63,0.426c0,0.264 0.264,0.264 0.61,0.264l1.4,0c-0.02,0.122 -1.218,7.005 -1.685,9.056c-0.081,0.406 -0.406,1.868 -1.34,1.868c0,0 -0.467,0 -0.832,-0.224c0.792,-0.263 0.832,-0.954 0.832,-1.055c0,-0.427 -0.325,-0.711 -0.751,-0.711c-0.528,0 -1.096,0.447 -1.096,1.157c0,0.873 0.893,1.361 1.847,1.361c1.239,0 2.071,-1.259 2.295,-1.686c0.69,-1.279 1.137,-3.614 1.177,-3.857l1.076,-5.909" style="fill:#000;fill-rule:nonzero;"/><path d="M120.005,255.504l-5.482,-5.442c-0.325,-0.324 -0.386,-0.385 -0.589,-0.385c-0.285,0 -0.548,0.243 -0.548,0.548c0,0.203 0.04,0.243 0.345,0.548l5.481,5.502l-5.481,5.503c-0.305,0.304 -0.345,0.365 -0.345,0.548c0,0.304 0.263,0.548 0.548,0.548c0.203,0 0.264,-0.041 0.589,-0.386l5.461,-5.441l5.665,5.665c0.061,0.04 0.244,0.162 0.406,0.162c0.325,0 0.548,-0.244 0.548,-0.548c0,-0.041 0,-0.163 -0.081,-0.305c-0.02,-0.04 -4.386,-4.345 -5.746,-5.746l5.015,-5.015c0.122,-0.162 0.548,-0.507 0.67,-0.67c0.041,-0.061 0.142,-0.162 0.142,-0.365c0,-0.305 -0.223,-0.548 -0.548,-0.548c-0.223,0 -0.325,0.121 -0.629,0.406l-5.421,5.421" style="fill:#000;fill-rule:nonzero;"/><path d="M157.424,247.301c0.285,-1.096 0.772,-1.949 2.965,-2.03c0.142,0 0.467,-0.021 0.467,-0.548c0,-0.021 0,-0.305 -0.365,-0.305c-0.894,0 -1.848,0.081 -2.762,0.081c-0.934,0 -1.888,-0.081 -2.782,-0.081c-0.182,0 -0.507,0 -0.507,0.548c0,0.305 0.284,0.305 0.507,0.305c1.543,0.02 1.848,0.609 1.848,1.198c0,0.081 -0.041,0.507 -0.081,0.588l-3.066,12.183l-6.051,-14.294c-0.223,-0.487 -0.243,-0.528 -0.873,-0.528l-3.675,0c-0.548,0 -0.792,0 -0.792,0.548c0,0.305 0.244,0.305 0.772,0.305c0.142,0 1.868,0 1.868,0.243l-3.675,14.7c-0.284,1.097 -0.751,1.99 -2.964,2.071c-0.163,0 -0.467,0.021 -0.467,0.548c0,0.183 0.142,0.285 0.365,0.285c0.873,0 1.827,-0.081 2.741,-0.081c0.934,0 1.909,0.081 2.822,0.081c0.122,0 0.487,0 0.487,-0.549c0,-0.263 -0.243,-0.284 -0.547,-0.284c-1.584,-0.061 -1.808,-0.67 -1.808,-1.218c0,-0.183 0.021,-0.325 0.102,-0.629l3.614,-14.457c0.122,0.163 0.122,0.224 0.243,0.488l6.823,16.141c0.203,0.467 0.284,0.508 0.528,0.508c0.304,0 0.304,-0.081 0.426,-0.569l3.837,-15.248" style="fill:#000;fill-rule:nonzero;"/><path d="M163.739,254.55c0.02,-0.041 0.081,-0.285 0.081,-0.305c0,-0.102 -0.081,-0.264 -0.325,-0.264c-0.365,0 -1.969,0.142 -2.436,0.183c-0.163,0.02 -0.427,0.04 -0.427,0.446c0,0.264 0.264,0.264 0.508,0.264c0.913,0 0.913,0.143 0.913,0.285c0,0.142 -0.182,0.913 -0.304,1.34l-0.447,1.766c-0.162,0.65 -1.218,4.832 -1.259,5.076c-0.101,0.467 -0.101,0.711 -0.101,0.934c0,1.929 1.239,3.167 2.822,3.167c2.376,0 4.934,-2.598 4.934,-5.441c0,-2.233 -1.563,-3.188 -2.883,-3.188c-0.995,0 -1.827,0.549 -2.396,1.056l1.32,-5.319ZM162.785,266.894c-0.934,0 -1.483,-0.812 -1.483,-1.949c0,-0.711 0.183,-1.36 0.711,-3.513c0.122,-0.365 0.122,-0.406 0.487,-0.812c0.711,-0.852 1.584,-1.279 2.274,-1.279c0.731,0 1.381,0.569 1.381,1.868c0,0.772 -0.406,2.721 -0.995,3.838c-0.446,0.934 -1.401,1.847 -2.375,1.847" style="fill:#000;fill-rule:nonzero;"/><path d="M186.418,255.504l-5.482,-5.442c-0.325,-0.324 -0.386,-0.385 -0.589,-0.385c-0.284,0 -0.548,0.243 -0.548,0.548c0,0.203 0.041,0.243 0.345,0.548l5.482,5.502l-5.482,5.503c-0.304,0.304 -0.345,0.365 -0.345,0.548c0,0.304 0.264,0.548 0.548,0.548c0.203,0 0.264,-0.041 0.589,-0.386l5.462,-5.441l5.665,5.665c0.061,0.04 0.243,0.162 0.406,0.162c0.324,0 0.548,-0.244 0.548,-0.548c0,-0.041 0,-0.163 -0.082,-0.305c-0.02,-0.04 -4.385,-4.345 -5.745,-5.746l5.015,-5.015c0.122,-0.162 0.548,-0.507 0.67,-0.67c0.04,-0.061 0.142,-0.162 0.142,-0.365c0,-0.305 -0.224,-0.548 -0.548,-0.548c-0.224,0 -0.325,0.121 -0.63,0.406l-5.421,5.421" style="fill:#000;fill-rule:nonzero;"/><path d="M223.777,247.301c0.264,-1.096 0.751,-1.949 2.944,-2.03c0.142,0 0.467,-0.021 0.467,-0.548c0,-0.021 0,-0.305 -0.345,-0.305c-0.914,0 -1.868,0.081 -2.782,0.081c-0.914,0 -1.888,-0.081 -2.781,-0.081c-0.163,0 -0.488,0 -0.488,0.548c0,0.305 0.264,0.305 0.488,0.305c1.563,0.02 1.867,0.609 1.867,1.198c0,0.081 -0.06,0.507 -0.081,0.588l-3.086,12.183l-6.05,-14.294c-0.203,-0.487 -0.244,-0.528 -0.874,-0.528l-3.654,0c-0.548,0 -0.812,0 -0.812,0.548c0,0.305 0.264,0.305 0.771,0.305c0.142,0 1.869,0 1.869,0.243l-3.676,14.7c-0.263,1.097 -0.731,1.99 -2.964,2.071c-0.162,0 -0.447,0.021 -0.447,0.548c0,0.183 0.122,0.285 0.346,0.285c0.873,0 1.827,-0.081 2.74,-0.081c0.934,0 1.909,0.081 2.823,0.081c0.142,0 0.487,0 0.487,-0.549c0,-0.263 -0.244,-0.284 -0.548,-0.284c-1.584,-0.061 -1.807,-0.67 -1.807,-1.218c0,-0.183 0.04,-0.325 0.122,-0.629l3.614,-14.457c0.101,0.163 0.101,0.224 0.244,0.488l6.822,16.141c0.182,0.467 0.263,0.508 0.507,0.508c0.304,0 0.304,-0.081 0.447,-0.569l3.837,-15.248" style="fill:#000;fill-rule:nonzero;"/><path d="M229.726,259.686l1.949,0c0.366,0 0.61,0 0.61,-0.406c0,-0.284 -0.244,-0.284 -0.569,-0.284l-1.807,0l0.69,-2.822c0.02,-0.102 0.061,-0.183 0.061,-0.264c0,-0.345 -0.264,-0.609 -0.649,-0.609c-0.468,0 -0.752,0.325 -0.894,0.812c-0.142,0.487 0.122,-0.426 -0.731,2.883l-1.949,0c-0.366,0 -0.609,0 -0.609,0.426c0,0.264 0.223,0.264 0.568,0.264l1.828,0l-1.137,4.528c-0.102,0.467 -0.284,1.157 -0.284,1.401c0,1.137 0.954,1.827 2.05,1.827c2.111,0 3.33,-2.68 3.33,-2.923c0,-0.264 -0.264,-0.264 -0.305,-0.264c-0.243,0 -0.264,0.04 -0.406,0.365c-0.548,1.218 -1.523,2.274 -2.558,2.274c-0.406,0 -0.67,-0.243 -0.67,-0.934c0,-0.183 0.061,-0.589 0.101,-0.771l1.381,-5.503" style="fill:#000;fill-rule:nonzero;"/></g><path d="M293.209,185.455c0,-0.657 -0.207,-0.933 -0.415,-0.933c-0.138,0 -0.414,0.138 -0.449,0.829c-0.138,2.142 -2.28,3.421 -4.284,3.421c-1.797,0 -3.352,-0.968 -4.976,-2.039c-1.658,-1.14 -3.317,-2.246 -5.355,-2.246c-2.868,0 -5.149,2.212 -5.149,5.045c0,0.691 0.242,0.933 0.45,0.933c0.276,0 0.414,-0.588 0.414,-0.726c0.173,-2.591 2.695,-3.524 4.285,-3.524c1.796,0 3.351,0.967 4.975,2.038c1.659,1.141 3.317,2.246 5.356,2.246c2.867,0 5.148,-2.211 5.148,-5.044ZM293.209,192.676c0,-0.898 -0.38,-0.933 -0.415,-0.933c-0.138,0 -0.414,0.138 -0.449,0.829c-0.138,2.143 -2.28,3.386 -4.284,3.386c-1.797,0 -3.352,-0.967 -4.976,-2.038c-1.658,-1.106 -3.317,-2.211 -5.355,-2.211c-2.868,0 -5.149,2.176 -5.149,5.044c0,0.657 0.242,0.898 0.45,0.898c0.276,0 0.414,-0.587 0.414,-0.691c0.173,-2.591 2.695,-3.524 4.285,-3.524c1.796,0 3.351,0.968 4.975,2.039c1.659,1.105 3.317,2.211 5.356,2.211c2.937,0 5.148,-2.28 5.148,-5.01" style="fill:#000;fill-rule:nonzero;"/><path d="M800.224,183.588c0,-0.864 -0.76,-1.624 -1.659,-1.624c-0.898,0 -1.624,0.76 -1.624,1.624c0,0.898 0.726,1.658 1.624,1.658c0.899,0 1.659,-0.76 1.659,-1.658" style="fill:#000;fill-rule:nonzero;"/><path d="M813.975,183.588c0,-0.864 -0.76,-1.624 -1.658,-1.624c-0.899,0 -1.624,0.76 -1.624,1.624c0,0.898 0.725,1.658 1.624,1.658c0.898,0 1.658,-0.76 1.658,-1.658" style="fill:#000;fill-rule:nonzero;"/><path d="M827.727,183.588c0,-0.864 -0.76,-1.624 -1.659,-1.624c-0.898,0 -1.624,0.76 -1.624,1.624c0,0.898 0.726,1.658 1.624,1.658c0.899,0 1.659,-0.76 1.659,-1.658" style="fill:#000;fill-rule:nonzero;"/><path d="M406.805,356.988l2.327,0c0.513,0 0.785,0 0.785,-0.544c0,-0.302 -0.272,-0.302 -0.725,-0.302l-2.236,0l0.574,-3.082c0.091,-0.574 0.484,-2.508 0.635,-2.81c0.241,-0.514 0.695,-0.937 1.269,-0.937c0.12,0 0.815,0 1.329,0.484c-1.178,0.121 -1.45,1.057 -1.45,1.48c0,0.605 0.483,0.937 0.997,0.937c0.695,0 1.48,-0.604 1.48,-1.632c0,-1.238 -1.238,-1.873 -2.356,-1.873c-0.907,0 -2.629,0.514 -3.415,3.173c-0.181,0.574 -0.241,0.846 -0.906,4.26l-1.873,0c-0.514,0 -0.816,0 -0.816,0.513c0,0.333 0.242,0.333 0.755,0.333l1.813,0l-2.054,10.665c-0.484,2.629 -0.937,5.107 -2.327,5.107c-0.121,0 -0.785,0 -1.299,-0.514c1.239,-0.061 1.48,-1.027 1.48,-1.45c0,-0.605 -0.483,-0.937 -0.997,-0.937c-0.725,0 -1.51,0.574 -1.51,1.601c0,1.239 1.208,1.874 2.326,1.874c1.481,0 2.568,-1.602 3.052,-2.629c0.846,-1.692 1.48,-4.955 1.51,-5.167l1.632,-8.55" style="fill:#000;fill-rule:nonzero;"/><path d="M997.239,356.988l2.326,0c0.514,0 0.786,0 0.786,-0.544c0,-0.302 -0.272,-0.302 -0.725,-0.302l-2.236,0l0.574,-3.082c0.09,-0.574 0.483,-2.508 0.634,-2.81c0.242,-0.514 0.695,-0.937 1.269,-0.937c0.121,0 0.816,0 1.33,0.484c-1.179,0.121 -1.451,1.057 -1.451,1.48c0,0.605 0.484,0.937 0.998,0.937c0.694,0 1.48,-0.604 1.48,-1.632c0,-1.238 -1.239,-1.873 -2.357,-1.873c-0.906,0 -2.628,0.514 -3.414,3.173c-0.181,0.574 -0.242,0.846 -0.906,4.26l-1.874,0c-0.513,0 -0.815,0 -0.815,0.513c0,0.333 0.241,0.333 0.755,0.333l1.813,0l-2.055,10.665c-0.483,2.629 -0.936,5.107 -2.326,5.107c-0.121,0 -0.786,0 -1.299,-0.514c1.238,-0.061 1.48,-1.027 1.48,-1.45c0,-0.605 -0.483,-0.937 -0.997,-0.937c-0.725,0 -1.511,0.574 -1.511,1.601c0,1.239 1.209,1.874 2.327,1.874c1.48,0 2.568,-1.602 3.051,-2.629c0.846,-1.692 1.481,-4.955 1.511,-5.167l1.632,-8.55" style="fill:#000;fill-rule:nonzero;"/><path d="M416.534,359.737c0,-0.513 -0.03,-0.513 -0.574,-0.513c-1.239,1.178 -2.961,1.208 -3.747,1.208l0,0.695c0.454,0 1.723,0 2.78,-0.544l0,9.729c0,0.635 0,0.876 -1.903,0.876l-0.726,0l0,0.695c0.333,-0.03 2.689,-0.09 3.384,-0.09c0.605,0 2.992,0.06 3.415,0.09l0,-0.695l-0.726,0c-1.903,0 -1.903,-0.241 -1.903,-0.876l0,-10.575" style="fill:#000;fill-rule:nonzero;"/><path d="M586.408,203.128c0,-0.03 0,-0.302 -0.332,-0.302c-0.635,0 -2.599,0.211 -3.324,0.272c-0.212,0.03 -0.514,0.06 -0.514,0.544c0,0.302 0.242,0.302 0.665,0.302c1.299,0 1.36,0.211 1.36,0.483c0,0.181 -0.242,1.088 -0.393,1.662l-2.206,8.823c-0.332,1.359 -0.453,1.782 -0.453,2.749c0,2.568 1.45,4.23 3.444,4.23c3.203,0 6.527,-4.019 6.527,-7.916c0,-2.478 -1.451,-4.321 -3.596,-4.321c-1.239,0 -2.356,0.756 -3.172,1.602l1.994,-8.128ZM583.87,213.34c0.151,-0.604 0.151,-0.634 0.393,-0.936c1.329,-1.753 2.568,-2.176 3.263,-2.176c0.967,0 1.692,0.816 1.692,2.538c0,1.602 -0.876,4.714 -1.36,5.741c-0.906,1.813 -2.145,2.78 -3.203,2.78c-0.906,0 -1.812,-0.725 -1.812,-2.72c0,-0.513 0,-1.027 0.423,-2.719l0.604,-2.508" style="fill:#000;fill-rule:nonzero;"/><path d="M1176.84,203.128c0,-0.03 0,-0.302 -0.333,-0.302c-0.634,0 -2.598,0.211 -3.323,0.272c-0.212,0.03 -0.514,0.06 -0.514,0.544c0,0.302 0.242,0.302 0.665,0.302c1.299,0 1.359,0.211 1.359,0.483c0,0.181 -0.241,1.088 -0.392,1.662l-2.206,8.823c-0.332,1.359 -0.453,1.782 -0.453,2.749c0,2.568 1.45,4.23 3.444,4.23c3.203,0 6.526,-4.019 6.526,-7.916c0,-2.478 -1.45,-4.321 -3.595,-4.321c-1.239,0 -2.357,0.756 -3.173,1.602l1.995,-8.128ZM1174.3,213.34c0.151,-0.604 0.151,-0.634 0.392,-0.936c1.33,-1.753 2.569,-2.176 3.263,-2.176c0.967,0 1.692,0.816 1.692,2.538c0,1.602 -0.876,4.714 -1.359,5.741c-0.907,1.813 -2.145,2.78 -3.203,2.78c-0.906,0 -1.813,-0.725 -1.813,-2.72c0,-0.513 0,-1.027 0.423,-2.719l0.605,-2.508" style="fill:#000;fill-rule:nonzero;"/><path d="M598.04,213.552c0,-0.514 -0.06,-0.544 -0.574,-0.544c-1.239,1.209 -2.961,1.239 -3.746,1.239l0,0.665c0.453,0 1.722,0 2.749,-0.514l0,9.729c0,0.634 0,0.876 -1.903,0.876l-0.725,0l0,0.665c0.362,0 2.689,-0.061 3.414,-0.061c0.574,0 2.991,0.061 3.414,0.061l0,-0.665l-0.725,0c-1.904,0 -1.904,-0.242 -1.904,-0.876l0,-10.575" style="fill:#000;fill-rule:nonzero;"/><clipPath id="_clip1"><path d="M598.04,213.552c0,-0.514 -0.06,-0.544 -0.574,-0.544c-1.239,1.209 -2.961,1.239 -3.746,1.239l0,0.665c0.453,0 1.722,0 2.749,-0.514l0,9.729c0,0.634 0,0.876 -1.903,0.876l-0.725,0l0,0.665c0.362,0 2.689,-0.061 3.414,-0.061c0.574,0 2.991,0.061 3.414,0.061l0,-0.665l-0.725,0c-1.904,0 -1.904,-0.242 -1.904,-0.876l0,-10.575" clip-rule="nonzero"/></clipPath><g clip-path="url(#_clip1)"><path d="M546.542,31.059l2.568,0c0.544,0 0.786,0 0.786,-0.544c0,-0.302 -0.242,-0.302 -0.755,-0.302l-2.357,0c0.967,-3.837 1.088,-4.381 1.088,-4.563c0,-0.453 -0.302,-0.725 -0.786,-0.725c-0.06,0 -0.816,0.03 -1.057,0.997l-1.058,4.291l-2.568,0c-0.514,0 -0.786,0 -0.786,0.513c0,0.333 0.212,0.333 0.756,0.333l2.356,0c-1.933,7.674 -2.054,8.127 -2.054,8.611c0,1.48 1.027,2.508 2.508,2.508c2.749,0 4.29,-3.958 4.29,-4.17c0,-0.272 -0.211,-0.272 -0.332,-0.272c-0.242,0 -0.272,0.061 -0.393,0.363c-1.178,2.81 -2.599,3.474 -3.505,3.474c-0.574,0 -0.846,-0.362 -0.846,-1.238c0,-0.665 0.06,-0.846 0.151,-1.3l1.994,-7.976" style="fill:#000;fill-rule:nonzero;"/><path d="M557.117,33.808c0,-0.513 -0.03,-0.513 -0.544,-0.513c-1.238,1.208 -2.961,1.208 -3.746,1.208l0,0.695c0.453,0 1.722,0 2.749,-0.544l0,9.729c0,0.635 0,0.876 -1.903,0.876l-0.725,0l0,0.695c0.362,-0.03 2.689,-0.09 3.414,-0.09c0.574,0 2.991,0.06 3.414,0.09l0,-0.695l-0.725,0c-1.934,0 -1.934,-0.241 -1.934,-0.876l0,-10.575" style="fill:#000;fill-rule:nonzero;"/></g><path d="M552.743,36.922l2.568,0c0.544,0 0.785,0 0.785,-0.544c0,-0.302 -0.241,-0.302 -0.755,-0.302l-2.357,0c0.967,-3.837 1.088,-4.381 1.088,-4.563c0,-0.453 -0.302,-0.725 -0.786,-0.725c-0.06,0 -0.815,0.031 -1.057,0.997l-1.058,4.291l-2.568,0c-0.513,0 -0.785,0 -0.785,0.513c0,0.333 0.211,0.333 0.755,0.333l2.357,0c-1.934,7.674 -2.055,8.127 -2.055,8.611c0,1.48 1.027,2.508 2.508,2.508c2.749,0 4.29,-3.958 4.29,-4.17c0,-0.272 -0.211,-0.272 -0.332,-0.272c-0.242,0 -0.272,0.061 -0.393,0.363c-1.178,2.81 -2.598,3.474 -3.505,3.474c-0.574,0 -0.846,-0.362 -0.846,-1.238c0,-0.665 0.061,-0.846 0.151,-1.3l1.995,-7.976" style="fill:#000;fill-rule:nonzero;"/><path d="M1143.18,36.922l2.569,0c0.543,0 0.785,0 0.785,-0.544c0,-0.302 -0.242,-0.302 -0.755,-0.302l-2.357,0c0.967,-3.837 1.088,-4.381 1.088,-4.563c0,-0.453 -0.302,-0.725 -0.786,-0.725c-0.06,0 -0.816,0.031 -1.057,0.997l-1.058,4.291l-2.568,0c-0.514,0 -0.786,0 -0.786,0.513c0,0.333 0.212,0.333 0.756,0.333l2.356,0c-1.933,7.674 -2.054,8.127 -2.054,8.611c0,1.48 1.027,2.508 2.508,2.508c2.749,0 4.29,-3.958 4.29,-4.17c0,-0.272 -0.211,-0.272 -0.332,-0.272c-0.242,0 -0.272,0.061 -0.393,0.363c-1.178,2.81 -2.599,3.474 -3.505,3.474c-0.574,0 -0.846,-0.362 -0.846,-1.238c0,-0.665 0.061,-0.846 0.151,-1.3l1.994,-7.976" style="fill:#000;fill-rule:nonzero;"/><path d="M563.318,39.671c0,-0.513 -0.031,-0.513 -0.544,-0.513c-1.239,1.208 -2.961,1.208 -3.747,1.208l0,0.695c0.453,0 1.722,0 2.75,-0.544l0,9.729c0,0.635 0,0.876 -1.904,0.876l-0.725,0l0,0.695c0.363,-0.03 2.689,-0.09 3.414,-0.09c0.574,0 2.991,0.06 3.414,0.09l0,-0.695l-0.725,0c-1.933,0 -1.933,-0.241 -1.933,-0.876l0,-10.575" style="fill:#000;fill-rule:nonzero;"/><path d="M112.998,146.911l-6.609,6.719l0.881,0.881l5.728,-5.067l5.673,5.067l0.881,-0.881l-6.554,-6.719" style="fill:#000;fill-rule:nonzero;"/><path d="M127.648,163.323c0.276,-0.661 0.496,-1.101 4.076,-1.101l0.936,0l0,-2.313c-1.872,0.055 -4.241,0.165 -5.562,0.165c-1.983,0 -4.517,0 -6.444,-0.165l0,2.313c0.44,0 4.351,0 4.351,0.606c0,0.165 -0.166,0.44 -0.221,0.606l-9.968,22.415l-10.465,-23.627l4.627,0l0,-2.313c-1.873,0.165 -6.609,0.165 -8.757,0.165c-1.928,0 -6.058,0 -7.766,-0.165l0,2.313l4.516,0l13.604,30.622c0.386,0.881 0.606,1.266 1.983,1.266c0.771,0 1.432,0 1.982,-1.156l13.108,-29.631" style="fill:#000;fill-rule:nonzero;"/><path d="M148.357,187.446l3.359,0c0.716,0 1.157,0 1.157,-0.771c0,-0.495 -0.441,-0.495 -1.047,-0.495l-3.249,0c0.826,-4.406 1.101,-6.004 1.377,-6.995c0.165,-0.771 0.936,-1.487 1.762,-1.487c0,0 0.991,0 1.597,0.386c-1.376,0.44 -1.487,1.707 -1.487,1.927c0,0.771 0.551,1.267 1.377,1.267c0.937,0 1.983,-0.771 1.983,-2.093c0,-1.597 -1.707,-2.478 -3.47,-2.478c-1.542,0 -3.249,0.881 -4.185,2.588c-0.716,1.322 -0.992,2.864 -1.708,6.885l-2.754,0c-0.66,0 -1.156,0 -1.156,0.771c0,0.495 0.496,0.495 1.101,0.495l2.589,0c-0.055,0.221 -2.258,12.723 -3.084,16.468c-0.166,0.771 -0.771,3.415 -2.424,3.415c-0.055,0 -0.881,0 -1.542,-0.441c1.432,-0.441 1.542,-1.707 1.542,-1.928c0,-0.771 -0.606,-1.266 -1.377,-1.266c-0.936,0 -1.982,0.771 -1.982,2.092c0,1.598 1.597,2.479 3.359,2.479c2.203,0 3.745,-2.258 4.186,-3.029c1.212,-2.369 2.038,-6.609 2.093,-7.05l1.983,-10.74" style="fill:#000;fill-rule:nonzero;"/><path d="M162.621,200.609c0,1.928 -0.33,4.131 -2.699,6.389c-0.165,0.11 -0.275,0.22 -0.275,0.386c0,0.275 0.275,0.495 0.496,0.495c0.495,0 3.469,-2.753 3.469,-6.884c0,-2.203 -0.881,-3.8 -2.478,-3.8c-1.101,0 -1.983,0.881 -1.983,1.982c0,1.102 0.826,1.983 2.038,1.983c0.826,0 1.377,-0.551 1.432,-0.551" style="fill:#000;fill-rule:nonzero;"/><path d="M176.059,178.084c0,-0.055 0.111,-0.496 0.111,-0.551c0,-0.165 -0.111,-0.496 -0.551,-0.496c-0.716,0 -3.58,0.275 -4.461,0.386c-0.276,0 -0.771,0.055 -0.771,0.771c0,0.495 0.495,0.495 0.936,0.495c1.652,0 1.652,0.221 1.652,0.496c0,0.275 -0.33,1.652 -0.551,2.479l-0.826,3.194c-0.275,1.156 -2.203,8.757 -2.258,9.252c-0.165,0.827 -0.165,1.267 -0.165,1.708c0,3.47 2.203,5.728 5.067,5.728c4.351,0 8.977,-4.737 8.977,-9.914c0,-4.02 -2.809,-5.783 -5.177,-5.783c-1.817,0 -3.359,0.992 -4.406,1.928l2.423,-9.693ZM174.297,200.554c-1.707,0 -2.699,-1.487 -2.699,-3.525c0,-1.321 0.331,-2.478 1.322,-6.443c0.22,-0.606 0.22,-0.716 0.881,-1.487c1.322,-1.487 2.864,-2.258 4.131,-2.258c1.322,0 2.533,0.991 2.533,3.359c0,1.432 -0.771,4.957 -1.817,6.995c-0.826,1.707 -2.589,3.359 -4.351,3.359" style="fill:#000;fill-rule:nonzero;"/><path d="M191.756,200.609c0,1.928 -0.331,4.131 -2.699,6.389c-0.11,0.11 -0.22,0.22 -0.22,0.386c0,0.275 0.275,0.495 0.496,0.495c0.44,0 3.414,-2.753 3.414,-6.884c0,-2.203 -0.826,-3.8 -2.423,-3.8c-1.157,0 -1.983,0.881 -1.983,1.982c0,1.102 0.771,1.983 2.038,1.983c0.826,0 1.377,-0.551 1.377,-0.551" style="fill:#000;fill-rule:nonzero;"/><path d="M204.588,187.446l3.525,0c0.661,0 1.102,0 1.102,-0.771c0,-0.495 -0.441,-0.495 -0.992,-0.495l-3.304,0l1.267,-5.122c0,-0.166 0.11,-0.331 0.11,-0.496c0,-0.606 -0.496,-1.102 -1.212,-1.102c-0.826,0 -1.377,0.606 -1.597,1.488c-0.275,0.881 0.165,-0.827 -1.322,5.232l-3.58,0c-0.661,0 -1.101,0 -1.101,0.771c0,0.495 0.44,0.495 1.046,0.495l3.305,0l-2.038,8.207c-0.22,0.881 -0.551,2.148 -0.551,2.588c0,2.038 1.763,3.305 3.745,3.305c3.856,0 6.059,-4.902 6.059,-5.343c0,-0.44 -0.496,-0.44 -0.551,-0.44c-0.441,0 -0.496,0.055 -0.771,0.661c-0.937,2.203 -2.754,4.13 -4.627,4.13c-0.771,0 -1.211,-0.44 -1.211,-1.707c0,-0.331 0.11,-1.046 0.165,-1.432l2.533,-9.969" style="fill:#000;fill-rule:nonzero;"/><path d="M1006.29,365.842c0.148,-0.541 0.148,-0.64 1.034,-0.64c0.173,0 0.394,0 0.394,-0.32c0,-0.172 -0.123,-0.246 -0.221,-0.246c-0.37,0 -1.305,0.074 -1.674,0.074c-0.345,0 -0.862,-0.025 -1.207,-0.025c-0.394,-0.024 -0.837,-0.049 -1.231,-0.049c-0.098,0 -0.344,0 -0.344,0.345c0,0.221 0.147,0.221 0.615,0.221c0.345,0 0.419,0 0.813,0.025c0.443,0.049 0.492,0.098 0.492,0.295c0,0.099 0,0.123 -0.074,0.345l-1.772,7.115c-0.296,1.182 -1.305,2.142 -2.315,2.142c-0.221,0 -1.181,-0.025 -1.551,-0.788c0.911,0 1.108,-0.739 1.108,-1.009c0,-0.444 -0.369,-0.69 -0.714,-0.69c-0.418,0 -1.034,0.345 -1.034,1.231c0,1.01 0.936,1.699 2.241,1.699c1.526,0 3.249,-0.985 3.643,-2.536l1.797,-7.189" style="fill:#000;fill-rule:nonzero;"/><path d="M1190.06,216.107c0.148,-0.542 0.148,-0.641 1.034,-0.641c0.172,0 0.394,0 0.394,-0.32c0,-0.172 -0.123,-0.246 -0.222,-0.246c-0.369,0 -1.305,0.074 -1.674,0.074c-0.345,0 -0.862,-0.025 -1.206,-0.025c-0.394,-0.024 -0.837,-0.049 -1.231,-0.049c-0.099,0 -0.345,0 -0.345,0.345c0,0.221 0.148,0.221 0.616,0.221c0.344,0 0.418,0 0.812,0.025c0.443,0.049 0.492,0.099 0.492,0.296c0,0.098 0,0.123 -0.073,0.344l-1.773,7.115c-0.295,1.182 -1.305,2.142 -2.314,2.142c-0.222,0 -1.182,-0.025 -1.551,-0.788c0.911,0 1.108,-0.739 1.108,-1.009c0,-0.443 -0.37,-0.69 -0.714,-0.69c-0.419,0 -1.034,0.345 -1.034,1.231c0,1.01 0.935,1.699 2.24,1.699c1.527,0 3.25,-0.985 3.644,-2.536l1.797,-7.188" style="fill:#000;fill-rule:nonzero;"/><path d="M1153.96,42.954c0.147,-0.542 0.147,-0.64 1.034,-0.64c0.172,0 0.394,0 0.394,-0.32c0,-0.172 -0.123,-0.246 -0.222,-0.246c-0.369,0 -1.305,0.074 -1.674,0.074c-0.345,0 -0.862,-0.025 -1.206,-0.025c-0.394,-0.025 -0.837,-0.049 -1.231,-0.049c-0.099,0 -0.345,0 -0.345,0.344c0,0.222 0.148,0.222 0.616,0.222c0.344,0 0.418,0 0.812,0.025c0.443,0.049 0.492,0.098 0.492,0.295c0,0.099 0,0.123 -0.074,0.345l-1.772,7.115c-0.295,1.181 -1.305,2.141 -2.314,2.141c-0.222,0 -1.182,-0.024 -1.551,-0.787c0.911,0 1.108,-0.739 1.108,-1.01c0,-0.443 -0.37,-0.689 -0.714,-0.689c-0.419,0 -1.034,0.345 -1.034,1.231c0,1.009 0.935,1.699 2.24,1.699c1.526,0 3.25,-0.985 3.644,-2.536l1.797,-7.189" style="fill:#000;fill-rule:nonzero;"/></svg>