<?xml version="1.0" standalone="no"?>
<!DOCTYPE svg PUBLIC "-//W3C//DTD SVG 1.1//EN" "http://www.w3.org/Graphics/SVG/1.1/DTD/svg11.dtd">
<svg width="100%" height="100%" viewBox="0 0 1280 380" version="1.1" xmlns="http://www.w3.org/2000/svg" xmlns:xlink="http://www.w3.org/1999/xlink" xml:space="preserve" style="fill-rule:evenodd;clip-rule:evenodd;stroke-linejoin:round;stroke-miterlimit:1.41421;">
    <path id="path3045" d="M379.246,126.023L379.246,335.334L397.949,344.055L397.949,134.744L379.246,126.023Z" style="fill:white;fill-rule:nonzero;stroke-width:0.98px;stroke:black;"/>
    <path id="path30451" d="M969.68,126.023L969.68,335.334L988.382,344.055L988.382,134.744L969.68,126.023Z" style="fill:white;fill-rule:nonzero;stroke-width:0.98px;stroke:black;"/>
    <path id="path3047" d="M379.246,126.023L397.949,117.302L416.652,126.023L397.949,134.744L379.246,126.023Z" style="fill:white;fill-rule:nonzero;stroke-width:0.98px;stroke:black;"/>
    <path id="path30471" d="M969.68,126.023L988.382,117.302L1007.09,126.023L988.382,134.744L969.68,126.023Z" style="fill:white;fill-rule:nonzero;stroke-width:0.98px;stroke:black;"/>
    <path id="path3049" d="M397.949,344.055L416.652,335.334L416.652,126.023L397.949,134.744L397.949,344.055Z" style="fill:white;fill-rule:nonzero;stroke-width:0.98px;stroke:black;"/>
    <path id="path30491" d="M988.382,344.055L1007.09,335.334L1007.09,126.023L988.382,134.744L988.382,344.055Z" style="fill:white;fill-rule:nonzero;stroke-width:0.98px;stroke:black;"/>
    <path id="path3053" d="M412.532,80.673L412.532,98.115L431.235,106.836L431.235,89.394L412.532,80.673Z" style="fill:white;fill-rule:nonzero;stroke-width:0.98px;stroke:black;"/>
    <path id="path30531" d="M1002.97,80.673L1002.97,98.115L1021.67,106.836L1021.67,89.394L1002.97,80.673Z" style="fill:white;fill-rule:nonzero;stroke-width:0.98px;stroke:black;"/>
    <path id="path3055" d="M412.532,80.673L521.009,30.089L539.711,38.81L431.235,89.394L412.532,80.673Z" style="fill:white;fill-rule:nonzero;stroke-width:0.98px;stroke:black;"/>
    <path id="path30551" d="M1002.97,80.673L1111.44,30.089L1130.14,38.81L1021.67,89.394L1002.97,80.673Z" style="fill:white;fill-rule:nonzero;stroke-width:0.98px;stroke:black;"/>
    <path id="path3057" d="M431.235,89.394L431.235,106.836L539.711,56.253L539.711,38.81L431.235,89.394Z" style="fill:white;fill-rule:nonzero;stroke-width:0.98px;stroke:black;"/>
    <path id="path30571" d="M1021.67,89.394L1021.67,106.836L1130.14,56.253L1130.14,38.81L1021.67,89.394Z" style="fill:white;fill-rule:nonzero;stroke-width:0.98px;stroke:black;"/>
    <path id="path3061" d="M568.632,180.095L568.632,197.538L587.335,188.816L587.335,171.374L568.632,180.095Z" style="fill:white;fill-rule:nonzero;stroke-width:0.98px;stroke:black;"/>
    <path id="path30611" d="M1159.07,180.095L1159.07,197.538L1177.77,188.816L1177.77,171.374L1159.07,180.095Z" style="fill:white;fill-rule:nonzero;stroke-width:0.98px;stroke:black;"/>
    <path id="path3063" d="M568.632,180.095L415.269,108.581L433.972,99.859L587.335,171.374L568.632,180.095Z" style="fill:white;fill-rule:nonzero;stroke-width:0.98px;stroke:black;"/>
    <path id="path30631" d="M1159.07,180.095L1005.7,108.581L1024.4,99.859L1177.77,171.374L1159.07,180.095Z" style="fill:white;fill-rule:nonzero;stroke-width:0.98px;stroke:black;"/>
    <path id="path3065" d="M568.632,197.538L415.269,126.023L415.269,108.581L568.632,180.095L568.632,197.538Z" style="fill:white;fill-rule:nonzero;stroke-width:0.98px;stroke:black;"/>
    <path id="path30651" d="M1159.07,197.538L1005.7,126.023L1005.7,108.581L1159.07,180.095L1159.07,197.538Z" style="fill:white;fill-rule:nonzero;stroke-width:0.98px;stroke:black;"/>
    <path d="M729.846,182.709L738.484,182.709C738.899,182.709 739.486,182.709 739.486,182.087C739.486,181.5 738.899,181.5 738.484,181.5L729.846,181.5L729.846,172.827C729.846,172.378 729.846,171.791 729.224,171.791C728.602,171.791 728.602,172.378 728.602,172.827L728.602,181.5L719.93,181.5C719.515,181.5 718.928,181.5 718.928,182.087C718.928,182.709 719.515,182.709 719.93,182.709L728.602,182.709L728.602,191.382C728.602,191.831 728.602,192.418 729.224,192.418C729.846,192.418 729.846,191.831 729.846,191.382L729.846,182.709" style="fill:black;fill-rule:nonzero;"/>
    <path d="M883.018,182.709L891.656,182.709C892.071,182.709 892.658,182.709 892.658,182.087C892.658,181.5 892.071,181.5 891.656,181.5L883.018,181.5L883.018,172.827C883.018,172.378 883.018,171.791 882.396,171.791C881.774,171.791 881.774,172.378 881.774,172.827L881.774,181.5L873.102,181.5C872.687,181.5 872.1,181.5 872.1,182.087C872.1,182.709 872.687,182.709 873.102,182.709L881.774,182.709L881.774,191.382C881.774,191.831 881.774,192.418 882.396,192.418C883.018,192.418 883.018,191.831 883.018,191.382L883.018,182.709" style="fill:black;fill-rule:nonzero;"/>
    <g>
        <path d="M87.823,247.301C88.087,246.205 88.574,245.352 90.767,245.271C90.909,245.271 91.234,245.25 91.234,244.723C91.234,244.702 91.234,244.418 90.889,244.418C89.975,244.418 89.021,244.499 88.107,244.499C87.194,244.499 86.219,244.418 85.326,244.418C85.163,244.418 84.818,244.418 84.818,244.966C84.818,245.271 85.102,245.271 85.326,245.271C86.889,245.291 87.194,245.88 87.194,246.469C87.194,246.55 87.133,246.976 87.092,247.057L84.026,259.24L77.976,244.946C77.773,244.459 77.732,244.418 77.103,244.418L73.428,244.418C72.88,244.418 72.636,244.418 72.636,244.966C72.636,245.271 72.88,245.271 73.407,245.271C73.55,245.271 75.275,245.271 75.275,245.514L71.6,260.214C71.336,261.311 70.869,262.204 68.636,262.285C68.474,262.285 68.169,262.306 68.169,262.833C68.169,263.016 68.311,263.118 68.535,263.118C69.408,263.118 70.362,263.037 71.276,263.037C72.21,263.037 73.184,263.118 74.098,263.118C74.24,263.118 74.585,263.118 74.585,262.569C74.585,262.306 74.341,262.285 74.037,262.285C72.453,262.224 72.23,261.615 72.23,261.067C72.23,260.884 72.25,260.742 72.331,260.438L75.966,245.981C76.067,246.144 76.067,246.205 76.209,246.469L83.011,262.61C83.214,263.077 83.295,263.118 83.539,263.118C83.844,263.118 83.844,263.037 83.986,262.549L87.823,247.301" style="fill:black;fill-rule:nonzero;"/>
        <path d="M96.858,259.686L98.726,259.686C99.112,259.686 99.356,259.686 99.356,259.28C99.356,258.996 99.112,258.996 98.767,258.996L96.98,258.996C97.427,256.58 97.569,255.707 97.731,255.138C97.833,254.732 98.239,254.326 98.706,254.326C98.726,254.326 99.234,254.326 99.599,254.55C98.828,254.793 98.767,255.483 98.767,255.605C98.767,256.032 99.092,256.316 99.518,256.316C100.046,256.316 100.614,255.869 100.614,255.138C100.614,254.265 99.68,253.798 98.706,253.798C97.853,253.798 96.919,254.265 96.412,255.22C96.026,255.93 95.884,256.783 95.478,258.996L93.955,258.996C93.589,258.996 93.325,258.996 93.325,259.422C93.325,259.686 93.589,259.686 93.935,259.686L95.335,259.686C95.315,259.808 94.117,266.691 93.65,268.742C93.569,269.148 93.244,270.61 92.31,270.61C92.31,270.61 91.843,270.61 91.478,270.386C92.27,270.123 92.31,269.432 92.31,269.331C92.31,268.904 91.985,268.62 91.559,268.62C91.031,268.62 90.463,269.067 90.463,269.777C90.463,270.65 91.356,271.138 92.31,271.138C93.549,271.138 94.381,269.879 94.605,269.452C95.295,268.173 95.742,265.838 95.782,265.595L96.858,259.686" style="fill:black;fill-rule:nonzero;"/>
        <path d="M120.005,255.504L114.523,250.062C114.198,249.738 114.137,249.677 113.934,249.677C113.649,249.677 113.386,249.92 113.386,250.225C113.386,250.428 113.426,250.468 113.731,250.773L119.212,256.275L113.731,261.778C113.426,262.082 113.386,262.143 113.386,262.326C113.386,262.63 113.649,262.874 113.934,262.874C114.137,262.874 114.198,262.833 114.523,262.488L119.984,257.047L125.649,262.712C125.71,262.752 125.893,262.874 126.055,262.874C126.38,262.874 126.603,262.63 126.603,262.326C126.603,262.285 126.603,262.163 126.522,262.021C126.502,261.981 122.136,257.676 120.776,256.275L125.791,251.26C125.913,251.098 126.339,250.753 126.461,250.59C126.502,250.529 126.603,250.428 126.603,250.225C126.603,249.92 126.38,249.677 126.055,249.677C125.832,249.677 125.73,249.798 125.426,250.083L120.005,255.504" style="fill:black;fill-rule:nonzero;"/>
        <path d="M157.424,247.301C157.709,246.205 158.196,245.352 160.389,245.271C160.531,245.271 160.856,245.25 160.856,244.723C160.856,244.702 160.856,244.418 160.491,244.418C159.597,244.418 158.643,244.499 157.729,244.499C156.795,244.499 155.841,244.418 154.947,244.418C154.765,244.418 154.44,244.418 154.44,244.966C154.44,245.271 154.724,245.271 154.947,245.271C156.49,245.291 156.795,245.88 156.795,246.469C156.795,246.55 156.754,246.976 156.714,247.057L153.648,259.24L147.597,244.946C147.374,244.459 147.354,244.418 146.724,244.418L143.049,244.418C142.501,244.418 142.257,244.418 142.257,244.966C142.257,245.271 142.501,245.271 143.029,245.271C143.171,245.271 144.897,245.271 144.897,245.514L141.222,260.214C140.938,261.311 140.471,262.204 138.258,262.285C138.095,262.285 137.791,262.306 137.791,262.833C137.791,263.016 137.933,263.118 138.156,263.118C139.029,263.118 139.983,263.037 140.897,263.037C141.831,263.037 142.806,263.118 143.719,263.118C143.841,263.118 144.206,263.118 144.206,262.569C144.206,262.306 143.963,262.285 143.659,262.285C142.075,262.224 141.851,261.615 141.851,261.067C141.851,260.884 141.872,260.742 141.953,260.438L145.567,245.981C145.689,246.144 145.689,246.205 145.81,246.469L152.633,262.61C152.836,263.077 152.917,263.118 153.161,263.118C153.465,263.118 153.465,263.037 153.587,262.549L157.424,247.301" style="fill:black;fill-rule:nonzero;"/>
        <path d="M163.739,254.55C163.759,254.509 163.82,254.265 163.82,254.245C163.82,254.143 163.739,253.981 163.495,253.981C163.13,253.981 161.526,254.123 161.059,254.164C160.896,254.184 160.632,254.204 160.632,254.61C160.632,254.874 160.896,254.874 161.14,254.874C162.053,254.874 162.053,255.017 162.053,255.159C162.053,255.301 161.871,256.072 161.749,256.499L161.302,258.265C161.14,258.915 160.084,263.097 160.043,263.341C159.942,263.808 159.942,264.052 159.942,264.275C159.942,266.204 161.181,267.442 162.764,267.442C165.14,267.442 167.698,264.844 167.698,262.001C167.698,259.768 166.135,258.813 164.815,258.813C163.82,258.813 162.988,259.362 162.419,259.869L163.739,254.55ZM162.785,266.894C161.851,266.894 161.302,266.082 161.302,264.945C161.302,264.234 161.485,263.585 162.013,261.432C162.135,261.067 162.135,261.026 162.5,260.62C163.211,259.768 164.084,259.341 164.774,259.341C165.505,259.341 166.155,259.91 166.155,261.209C166.155,261.981 165.749,263.93 165.16,265.047C164.714,265.981 163.759,266.894 162.785,266.894" style="fill:black;fill-rule:nonzero;"/>
        <path d="M186.418,255.504L180.936,250.062C180.611,249.738 180.55,249.677 180.347,249.677C180.063,249.677 179.799,249.92 179.799,250.225C179.799,250.428 179.84,250.468 180.144,250.773L185.626,256.275L180.144,261.778C179.84,262.082 179.799,262.143 179.799,262.326C179.799,262.63 180.063,262.874 180.347,262.874C180.55,262.874 180.611,262.833 180.936,262.488L186.398,257.047L192.063,262.712C192.124,262.752 192.306,262.874 192.469,262.874C192.793,262.874 193.017,262.63 193.017,262.326C193.017,262.285 193.017,262.163 192.935,262.021C192.915,261.981 188.55,257.676 187.19,256.275L192.205,251.26C192.327,251.098 192.753,250.753 192.875,250.59C192.915,250.529 193.017,250.428 193.017,250.225C193.017,249.92 192.793,249.677 192.469,249.677C192.245,249.677 192.144,249.798 191.839,250.083L186.418,255.504" style="fill:black;fill-rule:nonzero;"/>
        <path d="M223.777,247.301C224.041,246.205 224.528,245.352 226.721,245.271C226.863,245.271 227.188,245.25 227.188,244.723C227.188,244.702 227.188,244.418 226.843,244.418C225.929,244.418 224.975,244.499 224.061,244.499C223.147,244.499 222.173,244.418 221.28,244.418C221.117,244.418 220.792,244.418 220.792,244.966C220.792,245.271 221.056,245.271 221.28,245.271C222.843,245.291 223.147,245.88 223.147,246.469C223.147,246.55 223.087,246.976 223.066,247.057L219.98,259.24L213.93,244.946C213.727,244.459 213.686,244.418 213.056,244.418L209.402,244.418C208.854,244.418 208.59,244.418 208.59,244.966C208.59,245.271 208.854,245.271 209.361,245.271C209.503,245.271 211.23,245.271 211.23,245.514L207.554,260.214C207.291,261.311 206.823,262.204 204.59,262.285C204.428,262.285 204.143,262.306 204.143,262.833C204.143,263.016 204.265,263.118 204.489,263.118C205.362,263.118 206.316,263.037 207.229,263.037C208.163,263.037 209.138,263.118 210.052,263.118C210.194,263.118 210.539,263.118 210.539,262.569C210.539,262.306 210.295,262.285 209.991,262.285C208.407,262.224 208.184,261.615 208.184,261.067C208.184,260.884 208.224,260.742 208.306,260.438L211.92,245.981C212.021,246.144 212.021,246.205 212.164,246.469L218.986,262.61C219.168,263.077 219.249,263.118 219.493,263.118C219.797,263.118 219.797,263.037 219.94,262.549L223.777,247.301" style="fill:black;fill-rule:nonzero;"/>
        <path d="M229.726,259.686L231.675,259.686C232.041,259.686 232.285,259.686 232.285,259.28C232.285,258.996 232.041,258.996 231.716,258.996L229.909,258.996L230.599,256.174C230.619,256.072 230.66,255.991 230.66,255.91C230.66,255.565 230.396,255.301 230.011,255.301C229.543,255.301 229.259,255.626 229.117,256.113C228.975,256.6 229.239,255.687 228.386,258.996L226.437,258.996C226.071,258.996 225.828,258.996 225.828,259.422C225.828,259.686 226.051,259.686 226.396,259.686L228.224,259.686L227.087,264.214C226.985,264.681 226.803,265.371 226.803,265.615C226.803,266.752 227.757,267.442 228.853,267.442C230.964,267.442 232.183,264.762 232.183,264.519C232.183,264.255 231.919,264.255 231.878,264.255C231.635,264.255 231.614,264.295 231.472,264.62C230.924,265.838 229.949,266.894 228.914,266.894C228.508,266.894 228.244,266.651 228.244,265.96C228.244,265.777 228.305,265.371 228.345,265.189L229.726,259.686" style="fill:black;fill-rule:nonzero;"/>
    </g>
    <path d="M293.209,185.455C293.209,184.798 293.002,184.522 292.794,184.522C292.656,184.522 292.38,184.66 292.345,185.351C292.207,187.493 290.065,188.772 288.061,188.772C286.264,188.772 284.709,187.804 283.085,186.733C281.427,185.593 279.768,184.487 277.73,184.487C274.862,184.487 272.581,186.699 272.581,189.532C272.581,190.223 272.823,190.465 273.031,190.465C273.307,190.465 273.445,189.877 273.445,189.739C273.618,187.148 276.14,186.215 277.73,186.215C279.526,186.215 281.081,187.182 282.705,188.253C284.364,189.394 286.022,190.499 288.061,190.499C290.928,190.499 293.209,188.288 293.209,185.455ZM293.209,192.676C293.209,191.778 292.829,191.743 292.794,191.743C292.656,191.743 292.38,191.881 292.345,192.572C292.207,194.715 290.065,195.958 288.061,195.958C286.264,195.958 284.709,194.991 283.085,193.92C281.427,192.814 279.768,191.709 277.73,191.709C274.862,191.709 272.581,193.885 272.581,196.753C272.581,197.41 272.823,197.651 273.031,197.651C273.307,197.651 273.445,197.064 273.445,196.96C273.618,194.369 276.14,193.436 277.73,193.436C279.526,193.436 281.081,194.404 282.705,195.475C284.364,196.58 286.022,197.686 288.061,197.686C290.998,197.686 293.209,195.406 293.209,192.676" style="fill:black;fill-rule:nonzero;"/>
    <path d="M800.224,183.588C800.224,182.724 799.464,181.964 798.565,181.964C797.667,181.964 796.941,182.724 796.941,183.588C796.941,184.486 797.667,185.246 798.565,185.246C799.464,185.246 800.224,184.486 800.224,183.588" style="fill:black;fill-rule:nonzero;"/>
    <path d="M813.975,183.588C813.975,182.724 813.215,181.964 812.317,181.964C811.418,181.964 810.693,182.724 810.693,183.588C810.693,184.486 811.418,185.246 812.317,185.246C813.215,185.246 813.975,184.486 813.975,183.588" style="fill:black;fill-rule:nonzero;"/>
    <path d="M827.727,183.588C827.727,182.724 826.967,181.964 826.068,181.964C825.17,181.964 824.444,182.724 824.444,183.588C824.444,184.486 825.17,185.246 826.068,185.246C826.967,185.246 827.727,184.486 827.727,183.588" style="fill:black;fill-rule:nonzero;"/>
    <path d="M406.805,356.988L409.132,356.988C409.645,356.988 409.917,356.988 409.917,356.444C409.917,356.142 409.645,356.142 409.192,356.142L406.956,356.142L407.53,353.06C407.621,352.486 408.014,350.552 408.165,350.25C408.406,349.736 408.86,349.313 409.434,349.313C409.554,349.313 410.249,349.313 410.763,349.797C409.585,349.918 409.313,350.854 409.313,351.277C409.313,351.882 409.796,352.214 410.31,352.214C411.005,352.214 411.79,351.61 411.79,350.582C411.79,349.344 410.552,348.709 409.434,348.709C408.527,348.709 406.805,349.223 406.019,351.882C405.838,352.456 405.778,352.728 405.113,356.142L403.24,356.142C402.726,356.142 402.424,356.142 402.424,356.655C402.424,356.988 402.666,356.988 403.179,356.988L404.992,356.988L402.938,367.653C402.454,370.282 402.001,372.76 400.611,372.76C400.49,372.76 399.826,372.76 399.312,372.246C400.551,372.185 400.792,371.219 400.792,370.796C400.792,370.191 400.309,369.859 399.795,369.859C399.07,369.859 398.285,370.433 398.285,371.46C398.285,372.699 399.493,373.334 400.611,373.334C402.092,373.334 403.179,371.732 403.663,370.705C404.509,369.013 405.143,365.75 405.173,365.538L406.805,356.988" style="fill:black;fill-rule:nonzero;"/>
    <path d="M997.239,356.988L999.565,356.988C1000.08,356.988 1000.35,356.988 1000.35,356.444C1000.35,356.142 1000.08,356.142 999.626,356.142L997.39,356.142L997.964,353.06C998.054,352.486 998.447,350.552 998.598,350.25C998.84,349.736 999.293,349.313 999.867,349.313C999.988,349.313 1000.68,349.313 1001.2,349.797C1000.02,349.918 999.746,350.854 999.746,351.277C999.746,351.882 1000.23,352.214 1000.74,352.214C1001.44,352.214 1002.22,351.61 1002.22,350.582C1002.22,349.344 1000.99,348.709 999.867,348.709C998.961,348.709 997.239,349.223 996.453,351.882C996.272,352.456 996.211,352.728 995.547,356.142L993.673,356.142C993.16,356.142 992.858,356.142 992.858,356.655C992.858,356.988 993.099,356.988 993.613,356.988L995.426,356.988L993.371,367.653C992.888,370.282 992.435,372.76 991.045,372.76C990.924,372.76 990.259,372.76 989.746,372.246C990.984,372.185 991.226,371.219 991.226,370.796C991.226,370.191 990.743,369.859 990.229,369.859C989.504,369.859 988.718,370.433 988.718,371.46C988.718,372.699 989.927,373.334 991.045,373.334C992.525,373.334 993.613,371.732 994.096,370.705C994.942,369.013 995.577,365.75 995.607,365.538L997.239,356.988" style="fill:black;fill-rule:nonzero;"/>
    <path d="M416.534,359.737C416.534,359.224 416.504,359.224 415.96,359.224C414.721,360.402 412.999,360.432 412.213,360.432L412.213,361.127C412.667,361.127 413.936,361.127 414.993,360.583L414.993,370.312C414.993,370.947 414.993,371.188 413.09,371.188L412.364,371.188L412.364,371.883C412.697,371.853 415.053,371.793 415.748,371.793C416.353,371.793 418.74,371.853 419.163,371.883L419.163,371.188L418.437,371.188C416.534,371.188 416.534,370.947 416.534,370.312L416.534,359.737" style="fill:black;fill-rule:nonzero;"/>
    <path d="M1006.97,359.737C1006.97,359.224 1006.94,359.224 1006.39,359.224C1005.15,360.402 1003.43,360.432 1002.65,360.432L1002.65,361.127C1003.1,361.127 1004.37,361.127 1005.43,360.583L1005.43,370.312C1005.43,370.947 1005.43,371.188 1003.52,371.188L1002.8,371.188L1002.8,371.883C1003.13,371.853 1005.49,371.793 1006.18,371.793C1006.79,371.793 1009.17,371.853 1009.6,371.883L1009.6,371.188L1008.87,371.188C1006.97,371.188 1006.97,370.947 1006.97,370.312L1006.97,359.737" style="fill:black;fill-rule:nonzero;"/>
    <path d="M586.408,203.128C586.408,203.098 586.408,202.826 586.076,202.826C585.441,202.826 583.477,203.037 582.752,203.098C582.54,203.128 582.238,203.158 582.238,203.642C582.238,203.944 582.48,203.944 582.903,203.944C584.202,203.944 584.263,204.155 584.263,204.427C584.263,204.608 584.021,205.515 583.87,206.089L581.664,214.912C581.332,216.271 581.211,216.694 581.211,217.661C581.211,220.229 582.661,221.891 584.655,221.891C587.858,221.891 591.182,217.872 591.182,213.975C591.182,211.497 589.731,209.654 587.586,209.654C586.347,209.654 585.23,210.41 584.414,211.256L586.408,203.128ZM583.87,213.34C584.021,212.736 584.021,212.706 584.263,212.404C585.592,210.651 586.831,210.228 587.526,210.228C588.493,210.228 589.218,211.044 589.218,212.766C589.218,214.368 588.342,217.48 587.858,218.507C586.952,220.32 585.713,221.287 584.655,221.287C583.749,221.287 582.843,220.562 582.843,218.567C582.843,218.054 582.843,217.54 583.266,215.848L583.87,213.34" style="fill:black;fill-rule:nonzero;"/>
    <path d="M1176.84,203.128C1176.84,203.098 1176.84,202.826 1176.51,202.826C1175.88,202.826 1173.91,203.037 1173.19,203.098C1172.97,203.128 1172.67,203.158 1172.67,203.642C1172.67,203.944 1172.91,203.944 1173.34,203.944C1174.64,203.944 1174.7,204.155 1174.7,204.427C1174.7,204.608 1174.45,205.515 1174.3,206.089L1172.1,214.912C1171.77,216.271 1171.64,216.694 1171.64,217.661C1171.64,220.229 1173.1,221.891 1175.09,221.891C1178.29,221.891 1181.62,217.872 1181.62,213.975C1181.62,211.497 1180.16,209.654 1178.02,209.654C1176.78,209.654 1175.66,210.41 1174.85,211.256L1176.84,203.128ZM1174.3,213.34C1174.45,212.736 1174.45,212.706 1174.7,212.404C1176.03,210.651 1177.27,210.228 1177.96,210.228C1178.93,210.228 1179.65,211.044 1179.65,212.766C1179.65,214.368 1178.78,217.48 1178.29,218.507C1177.38,220.32 1176.15,221.287 1175.09,221.287C1174.18,221.287 1173.28,220.562 1173.28,218.567C1173.28,218.054 1173.28,217.54 1173.7,215.848L1174.3,213.34" style="fill:black;fill-rule:nonzero;"/>
    <path d="M598.04,213.552C598.04,213.038 597.98,213.008 597.466,213.008C596.227,214.217 594.505,214.247 593.72,214.247L593.72,214.912C594.173,214.912 595.442,214.912 596.469,214.398L596.469,224.127C596.469,224.761 596.469,225.003 594.566,225.003L593.841,225.003L593.841,225.668C594.203,225.668 596.53,225.607 597.255,225.607C597.829,225.607 600.246,225.668 600.669,225.668L600.669,225.003L599.944,225.003C598.04,225.003 598.04,224.761 598.04,224.127L598.04,213.552" style="fill:black;fill-rule:nonzero;"/>
    <clipPath id="_clip1">
        <path d="M598.04,213.552C598.04,213.038 597.98,213.008 597.466,213.008C596.227,214.217 594.505,214.247 593.72,214.247L593.72,214.912C594.173,214.912 595.442,214.912 596.469,214.398L596.469,224.127C596.469,224.761 596.469,225.003 594.566,225.003L593.841,225.003L593.841,225.668C594.203,225.668 596.53,225.607 597.255,225.607C597.829,225.607 600.246,225.668 600.669,225.668L600.669,225.003L599.944,225.003C598.04,225.003 598.04,224.761 598.04,224.127L598.04,213.552" clip-rule="nonzero"/>
    </clipPath>
    <g clip-path="url(#_clip1)">
        <path d="M546.542,31.059L549.11,31.059C549.654,31.059 549.896,31.059 549.896,30.515C549.896,30.213 549.654,30.213 549.141,30.213L546.784,30.213C547.751,26.376 547.872,25.832 547.872,25.65C547.872,25.197 547.57,24.925 547.086,24.925C547.026,24.925 546.27,24.955 546.029,25.922L544.971,30.213L542.403,30.213C541.889,30.213 541.617,30.213 541.617,30.726C541.617,31.059 541.829,31.059 542.373,31.059L544.729,31.059C542.796,38.733 542.675,39.186 542.675,39.67C542.675,41.15 543.702,42.178 545.183,42.178C547.932,42.178 549.473,38.22 549.473,38.008C549.473,37.736 549.262,37.736 549.141,37.736C548.899,37.736 548.869,37.797 548.748,38.099C547.57,40.909 546.149,41.573 545.243,41.573C544.669,41.573 544.397,41.211 544.397,40.335C544.397,39.67 544.457,39.489 544.548,39.035L546.542,31.059" style="fill:black;fill-rule:nonzero;"/>
        <path d="M557.117,33.808C557.117,33.295 557.087,33.295 556.573,33.295C555.335,34.503 553.612,34.503 552.827,34.503L552.827,35.198C553.28,35.198 554.549,35.198 555.576,34.654L555.576,44.383C555.576,45.018 555.576,45.259 553.673,45.259L552.948,45.259L552.948,45.954C553.31,45.924 555.637,45.864 556.362,45.864C556.936,45.864 559.353,45.924 559.776,45.954L559.776,45.259L559.051,45.259C557.117,45.259 557.117,45.018 557.117,44.383L557.117,33.808" style="fill:black;fill-rule:nonzero;"/>
    </g>
    <path d="M1188.47,213.552C1188.47,213.038 1188.41,213.008 1187.9,213.008C1186.66,214.217 1184.94,214.247 1184.15,214.247L1184.15,214.912C1184.61,214.912 1185.88,214.912 1186.9,214.398L1186.9,224.127C1186.9,224.761 1186.9,225.003 1185,225.003L1184.27,225.003L1184.27,225.668C1184.64,225.668 1186.96,225.607 1187.69,225.607C1188.26,225.607 1190.68,225.668 1191.1,225.668L1191.1,225.003L1190.38,225.003C1188.47,225.003 1188.47,224.761 1188.47,224.127L1188.47,213.552" style="fill:black;fill-rule:nonzero;"/>
    <clipPath id="_clip2">
        <path d="M1188.47,213.552C1188.47,213.038 1188.41,213.008 1187.9,213.008C1186.66,214.217 1184.94,214.247 1184.15,214.247L1184.15,214.912C1184.61,214.912 1185.88,214.912 1186.9,214.398L1186.9,224.127C1186.9,224.761 1186.9,225.003 1185,225.003L1184.27,225.003L1184.27,225.668C1184.64,225.668 1186.96,225.607 1187.69,225.607C1188.26,225.607 1190.68,225.668 1191.1,225.668L1191.1,225.003L1190.38,225.003C1188.47,225.003 1188.47,224.761 1188.47,224.127L1188.47,213.552" clip-rule="nonzero"/>
    </clipPath>
    <g clip-path="url(#_clip2)">
        <path d="M1136.98,31.059L1139.54,31.059C1140.09,31.059 1140.33,31.059 1140.33,30.515C1140.33,30.213 1140.09,30.213 1139.57,30.213L1137.22,30.213C1138.18,26.376 1138.31,25.832 1138.31,25.65C1138.31,25.197 1138,24.925 1137.52,24.925C1137.46,24.925 1136.7,24.955 1136.46,25.922L1135.4,30.213L1132.84,30.213C1132.32,30.213 1132.05,30.213 1132.05,30.726C1132.05,31.059 1132.26,31.059 1132.81,31.059L1135.16,31.059C1133.23,38.733 1133.11,39.186 1133.11,39.67C1133.11,41.15 1134.14,42.178 1135.62,42.178C1138.37,42.178 1139.91,38.22 1139.91,38.008C1139.91,37.736 1139.69,37.736 1139.57,37.736C1139.33,37.736 1139.3,37.797 1139.18,38.099C1138,40.909 1136.58,41.573 1135.68,41.573C1135.1,41.573 1134.83,41.211 1134.83,40.335C1134.83,39.67 1134.89,39.489 1134.98,39.035L1136.98,31.059" style="fill:black;fill-rule:nonzero;"/>
        <path d="M1147.55,33.808C1147.55,33.295 1147.52,33.295 1147.01,33.295C1145.77,34.503 1144.05,34.503 1143.26,34.503L1143.26,35.198C1143.71,35.198 1144.98,35.198 1146.01,34.654L1146.01,44.383C1146.01,45.018 1146.01,45.259 1144.11,45.259L1143.38,45.259L1143.38,45.954C1143.74,45.924 1146.07,45.864 1146.8,45.864C1147.37,45.864 1149.79,45.924 1150.21,45.954L1150.21,45.259L1149.49,45.259C1147.55,45.259 1147.55,45.018 1147.55,44.383L1147.55,33.808" style="fill:black;fill-rule:nonzero;"/>
    </g>
    <path d="M552.743,36.922L555.311,36.922C555.855,36.922 556.096,36.922 556.096,36.378C556.096,36.076 555.855,36.076 555.341,36.076L552.984,36.076C553.951,32.239 554.072,31.695 554.072,31.513C554.072,31.06 553.77,30.788 553.286,30.788C553.226,30.788 552.471,30.819 552.229,31.785L551.171,36.076L548.603,36.076C548.09,36.076 547.818,36.076 547.818,36.589C547.818,36.922 548.029,36.922 548.573,36.922L550.93,36.922C548.996,44.596 548.875,45.049 548.875,45.533C548.875,47.013 549.902,48.041 551.383,48.041C554.132,48.041 555.673,44.083 555.673,43.871C555.673,43.599 555.462,43.599 555.341,43.599C555.099,43.599 555.069,43.66 554.948,43.962C553.77,46.772 552.35,47.436 551.443,47.436C550.869,47.436 550.597,47.074 550.597,46.198C550.597,45.533 550.658,45.352 550.748,44.898L552.743,36.922" style="fill:black;fill-rule:nonzero;"/>
    <path d="M1143.18,36.922L1145.75,36.922C1146.29,36.922 1146.53,36.922 1146.53,36.378C1146.53,36.076 1146.29,36.076 1145.78,36.076L1143.42,36.076C1144.38,32.239 1144.51,31.695 1144.51,31.513C1144.51,31.06 1144.2,30.788 1143.72,30.788C1143.66,30.788 1142.9,30.819 1142.66,31.785L1141.61,36.076L1139.04,36.076C1138.52,36.076 1138.25,36.076 1138.25,36.589C1138.25,36.922 1138.46,36.922 1139.01,36.922L1141.36,36.922C1139.43,44.596 1139.31,45.049 1139.31,45.533C1139.31,47.013 1140.34,48.041 1141.82,48.041C1144.57,48.041 1146.11,44.083 1146.11,43.871C1146.11,43.599 1145.9,43.599 1145.78,43.599C1145.53,43.599 1145.5,43.66 1145.38,43.962C1144.2,46.772 1142.78,47.436 1141.88,47.436C1141.3,47.436 1141.03,47.074 1141.03,46.198C1141.03,45.533 1141.09,45.352 1141.18,44.898L1143.18,36.922" style="fill:black;fill-rule:nonzero;"/>
    <path d="M563.318,39.671C563.318,39.158 563.287,39.158 562.774,39.158C561.535,40.366 559.813,40.366 559.027,40.366L559.027,41.061C559.48,41.061 560.749,41.061 561.777,40.517L561.777,50.246C561.777,50.881 561.777,51.122 559.873,51.122L559.148,51.122L559.148,51.817C559.511,51.787 561.837,51.727 562.562,51.727C563.136,51.727 565.553,51.787 565.976,51.817L565.976,51.122L565.251,51.122C563.318,51.122 563.318,50.881 563.318,50.246L563.318,39.671" style="fill:black;fill-rule:nonzero;"/>
    <path d="M1153.75,39.671C1153.75,39.158 1153.72,39.158 1153.21,39.158C1151.97,40.366 1150.25,40.366 1149.46,40.366L1149.46,41.061C1149.91,41.061 1151.18,41.061 1152.21,40.517L1152.21,50.246C1152.21,50.881 1152.21,51.122 1150.31,51.122L1149.58,51.122L1149.58,51.817C1149.94,51.787 1152.27,51.727 1153,51.727C1153.57,51.727 1155.99,51.787 1156.41,51.817L1156.41,51.122L1155.68,51.122C1153.75,51.122 1153.75,50.881 1153.75,50.246L1153.75,39.671" style="fill:black;fill-rule:nonzero;"/>
    <path d="M112.998,146.911L106.389,153.63L107.27,154.511L112.998,149.444L118.671,154.511L119.552,153.63L112.998,146.911" style="fill:black;fill-rule:nonzero;"/>
    <path d="M127.648,163.323C127.924,162.662 128.144,162.222 131.724,162.222L132.66,162.222L132.66,159.909C130.788,159.964 128.419,160.074 127.098,160.074C125.115,160.074 122.581,160.074 120.654,159.909L120.654,162.222C121.094,162.222 125.005,162.222 125.005,162.828C125.005,162.993 124.839,163.268 124.784,163.434L114.816,185.849L104.351,162.222L108.978,162.222L108.978,159.909C107.105,160.074 102.369,160.074 100.221,160.074C98.293,160.074 94.163,160.074 92.455,159.909L92.455,162.222L96.971,162.222L110.575,192.844C110.961,193.725 111.181,194.11 112.558,194.11C113.329,194.11 113.99,194.11 114.54,192.954L127.648,163.323" style="fill:black;fill-rule:nonzero;"/>
    <path d="M148.357,187.446L151.716,187.446C152.432,187.446 152.873,187.446 152.873,186.675C152.873,186.18 152.432,186.18 151.826,186.18L148.577,186.18C149.403,181.774 149.678,180.176 149.954,179.185C150.119,178.414 150.89,177.698 151.716,177.698C151.716,177.698 152.707,177.698 153.313,178.084C151.937,178.524 151.826,179.791 151.826,180.011C151.826,180.782 152.377,181.278 153.203,181.278C154.14,181.278 155.186,180.507 155.186,179.185C155.186,177.588 153.479,176.707 151.716,176.707C150.174,176.707 148.467,177.588 147.531,179.295C146.815,180.617 146.539,182.159 145.823,186.18L143.069,186.18C142.409,186.18 141.913,186.18 141.913,186.951C141.913,187.446 142.409,187.446 143.014,187.446L145.603,187.446C145.548,187.667 143.345,200.169 142.519,203.914C142.353,204.685 141.748,207.329 140.095,207.329C140.04,207.329 139.214,207.329 138.553,206.888C139.985,206.447 140.095,205.181 140.095,204.96C140.095,204.189 139.489,203.694 138.718,203.694C137.782,203.694 136.736,204.465 136.736,205.786C136.736,207.384 138.333,208.265 140.095,208.265C142.298,208.265 143.84,206.007 144.281,205.236C145.493,202.867 146.319,198.627 146.374,198.186L148.357,187.446" style="fill:black;fill-rule:nonzero;"/>
    <path d="M162.621,200.609C162.621,202.537 162.291,204.74 159.922,206.998C159.757,207.108 159.647,207.218 159.647,207.384C159.647,207.659 159.922,207.879 160.143,207.879C160.638,207.879 163.612,205.126 163.612,200.995C163.612,198.792 162.731,197.195 161.134,197.195C160.033,197.195 159.151,198.076 159.151,199.177C159.151,200.279 159.977,201.16 161.189,201.16C162.015,201.16 162.566,200.609 162.621,200.609" style="fill:black;fill-rule:nonzero;"/>
    <path d="M176.059,178.084C176.059,178.029 176.17,177.588 176.17,177.533C176.17,177.368 176.059,177.037 175.619,177.037C174.903,177.037 172.039,177.312 171.158,177.423C170.882,177.423 170.387,177.478 170.387,178.194C170.387,178.689 170.882,178.689 171.323,178.689C172.975,178.689 172.975,178.91 172.975,179.185C172.975,179.46 172.645,180.837 172.424,181.664L171.598,184.858C171.323,186.014 169.395,193.615 169.34,194.11C169.175,194.937 169.175,195.377 169.175,195.818C169.175,199.288 171.378,201.546 174.242,201.546C178.593,201.546 183.219,196.809 183.219,191.632C183.219,187.612 180.41,185.849 178.042,185.849C176.225,185.849 174.683,186.841 173.636,187.777L176.059,178.084ZM174.297,200.554C172.59,200.554 171.598,199.067 171.598,197.029C171.598,195.708 171.929,194.551 172.92,190.586C173.14,189.98 173.14,189.87 173.801,189.099C175.123,187.612 176.665,186.841 177.932,186.841C179.254,186.841 180.465,187.832 180.465,190.2C180.465,191.632 179.694,195.157 178.648,197.195C177.822,198.902 176.059,200.554 174.297,200.554" style="fill:black;fill-rule:nonzero;"/>
    <path d="M191.756,200.609C191.756,202.537 191.425,204.74 189.057,206.998C188.947,207.108 188.837,207.218 188.837,207.384C188.837,207.659 189.112,207.879 189.333,207.879C189.773,207.879 192.747,205.126 192.747,200.995C192.747,198.792 191.921,197.195 190.324,197.195C189.167,197.195 188.341,198.076 188.341,199.177C188.341,200.279 189.112,201.16 190.379,201.16C191.205,201.16 191.756,200.609 191.756,200.609" style="fill:black;fill-rule:nonzero;"/>
    <path d="M204.588,187.446L208.113,187.446C208.774,187.446 209.215,187.446 209.215,186.675C209.215,186.18 208.774,186.18 208.223,186.18L204.919,186.18L206.186,181.058C206.186,180.892 206.296,180.727 206.296,180.562C206.296,179.956 205.8,179.46 205.084,179.46C204.258,179.46 203.707,180.066 203.487,180.948C203.212,181.829 203.652,180.121 202.165,186.18L198.585,186.18C197.924,186.18 197.484,186.18 197.484,186.951C197.484,187.446 197.924,187.446 198.53,187.446L201.835,187.446L199.797,195.653C199.577,196.534 199.246,197.801 199.246,198.241C199.246,200.279 201.009,201.546 202.991,201.546C206.847,201.546 209.05,196.644 209.05,196.203C209.05,195.763 208.554,195.763 208.499,195.763C208.058,195.763 208.003,195.818 207.728,196.424C206.791,198.627 204.974,200.554 203.101,200.554C202.33,200.554 201.89,200.114 201.89,198.847C201.89,198.516 202,197.801 202.055,197.415L204.588,187.446" style="fill:black;fill-rule:nonzero;"/>
</svg>
