<?xml version="1.0" standalone="no"?><!DOCTYPE svg PUBLIC "-//W3C//DTD SVG 1.1//EN" "http://www.w3.org/Graphics/SVG/1.1/DTD/svg11.dtd"><svg width="100%" height="100%" viewBox="0 0 1280 380" version="1.1" xmlns="http://www.w3.org/2000/svg" xmlns:xlink="http://www.w3.org/1999/xlink" xml:space="preserve" style="fill-rule:evenodd;clip-rule:evenodd;stroke-linecap:round;stroke-linejoin:round;stroke-miterlimit:1.41421;"><rect x="42.694" y="108.48" width="263.987" height="174.172" style="fill:#fff;stroke-width:1px;stroke:#000;"/><path d="M680.975,182.709l8.638,0c0.414,0 1.002,0 1.002,-0.622c0,-0.587 -0.588,-0.587 -1.002,-0.587l-8.638,0l0,-8.673c0,-0.449 0,-1.036 -0.622,-1.036c-0.622,0 -0.622,0.587 -0.622,1.036l0,8.673l-8.672,0c-0.415,0 -1.002,0 -1.002,0.587c0,0.622 0.587,0.622 1.002,0.622l8.672,0l0,8.673c0,0.449 0,1.036 0.622,1.036c0.622,0 0.622,-0.587 0.622,-1.036l0,-8.673" style="fill:#000;fill-rule:nonzero;"/><path d="M834.147,182.709l8.638,0c0.414,0 1.002,0 1.002,-0.622c0,-0.587 -0.588,-0.587 -1.002,-0.587l-8.638,0l0,-8.673c0,-0.449 0,-1.036 -0.622,-1.036c-0.622,0 -0.622,0.587 -0.622,1.036l0,8.673l-8.673,0c-0.414,0 -1.002,0 -1.002,0.587c0,0.622 0.588,0.622 1.002,0.622l8.673,0l0,8.673c0,0.449 0,1.036 0.622,1.036c0.622,0 0.622,-0.587 0.622,-1.036l0,-8.673" style="fill:#000;fill-rule:nonzero;"/><rect x="403.948" y="88.602" width="224.231" height="16.579" style="fill:#fff;stroke-width:1px;stroke:#000;"/><rect x="914.186" y="88.602" width="224.231" height="16.579" style="fill:#fff;stroke-width:1px;stroke:#000;"/><path d="M384.212,109.504l0,172.044l16.579,0l0,-172.044l-16.579,0Z" style="fill:#fff;stroke-width:1px;stroke:#000;"/><path d="M894.45,109.504l0,172.044l16.579,0l0,-172.044l-16.579,0Z" style="fill:#fff;stroke-width:1px;stroke:#000;"/><path d="M355.543,185.455c0,-0.657 -0.207,-0.933 -0.415,-0.933c-0.138,0 -0.414,0.138 -0.449,0.829c-0.138,2.142 -2.28,3.421 -4.284,3.421c-1.797,0 -3.352,-0.968 -4.976,-2.039c-1.658,-1.14 -3.317,-2.246 -5.355,-2.246c-2.868,0 -5.149,2.212 -5.149,5.045c0,0.691 0.242,0.933 0.45,0.933c0.276,0 0.414,-0.588 0.414,-0.726c0.173,-2.591 2.695,-3.524 4.285,-3.524c1.796,0 3.351,0.967 4.975,2.038c1.659,1.141 3.317,2.246 5.356,2.246c2.867,0 5.148,-2.211 5.148,-5.044ZM355.543,192.676c0,-0.898 -0.38,-0.933 -0.415,-0.933c-0.138,0 -0.414,0.138 -0.449,0.829c-0.138,2.143 -2.28,3.386 -4.284,3.386c-1.797,0 -3.352,-0.967 -4.976,-2.038c-1.658,-1.106 -3.317,-2.211 -5.355,-2.211c-2.868,0 -5.149,2.176 -5.149,5.044c0,0.657 0.242,0.898 0.45,0.898c0.276,0 0.414,-0.587 0.414,-0.691c0.173,-2.591 2.695,-3.524 4.285,-3.524c1.796,0 3.351,0.968 4.975,2.039c1.659,1.105 3.317,2.211 5.356,2.211c2.937,0 5.148,-2.28 5.148,-5.01" style="fill:#000;fill-rule:nonzero;"/><path d="M751.352,183.588c0,-0.864 -0.76,-1.624 -1.658,-1.624c-0.899,0 -1.624,0.76 -1.624,1.624c0,0.898 0.725,1.658 1.624,1.658c0.898,0 1.658,-0.76 1.658,-1.658" style="fill:#000;fill-rule:nonzero;"/><path d="M765.104,183.588c0,-0.864 -0.76,-1.624 -1.659,-1.624c-0.898,0 -1.624,0.76 -1.624,1.624c0,0.898 0.726,1.658 1.624,1.658c0.899,0 1.659,-0.76 1.659,-1.658" style="fill:#000;fill-rule:nonzero;"/><path d="M778.855,183.588c0,-0.864 -0.76,-1.624 -1.658,-1.624c-0.898,0 -1.624,0.76 -1.624,1.624c0,0.898 0.726,1.658 1.624,1.658c0.898,0 1.658,-0.76 1.658,-1.658" style="fill:#000;fill-rule:nonzero;"/><path d="M132.066,162.92l-5.586,5.68l0.745,0.745l4.841,-4.237l4.796,4.237l0.744,-0.745l-5.54,-5.68" style="fill:#000;fill-rule:nonzero;"/><path d="M144.45,176.794c0.233,-0.513 0.419,-0.932 3.445,-0.932l0.791,0l0,-1.955c-1.582,0.047 -3.584,0.14 -4.702,0.14c-1.676,0 -3.817,0 -5.447,-0.14l0,1.955c0.373,0 3.632,0 3.632,0.512c0,0.187 -0.093,0.373 -0.14,0.513l-8.426,18.948l-8.892,-19.973l3.91,0l0,-1.955c-1.583,0.14 -5.586,0.14 -7.355,0.14c-1.63,0 -5.121,0 -6.565,-0.14l0,1.955l3.818,0l11.499,25.885c0.326,0.791 0.512,1.117 1.676,1.117c0.652,0 1.21,0 1.676,-1.024l11.08,-25.046" style="fill:#000;fill-rule:nonzero;"/><path d="M164.282,212.548c0,-0.14 0,-0.233 -0.698,-0.931c-5.214,-5.261 -6.564,-13.129 -6.564,-19.507c0,-7.262 1.583,-14.525 6.704,-19.739c0.558,-0.466 0.558,-0.559 0.558,-0.699c0,-0.279 -0.186,-0.418 -0.419,-0.418c-0.419,0 -4.143,2.839 -6.61,8.147c-2.142,4.562 -2.654,9.218 -2.654,12.709c0,3.259 0.466,8.287 2.747,12.989c2.514,5.121 6.098,7.821 6.517,7.821c0.233,0 0.419,-0.093 0.419,-0.372" style="fill:#000;fill-rule:nonzero;"/><path d="M182.066,185.872l3.539,0c0.838,0 1.257,0 1.257,-0.838c0,-0.466 -0.419,-0.466 -1.118,-0.466l-3.445,0l0.885,-4.748c0.139,-0.885 0.745,-3.864 0.977,-4.33c0.373,-0.791 1.071,-1.443 1.956,-1.443c0.186,0 1.257,0 2.048,0.745c-1.816,0.186 -2.235,1.629 -2.235,2.281c0,0.931 0.745,1.443 1.537,1.443c1.07,0 2.281,-0.931 2.281,-2.514c0,-1.909 -1.909,-2.886 -3.631,-2.886c-1.397,0 -4.051,0.791 -5.261,4.888c-0.279,0.884 -0.419,1.304 -1.397,6.564l-2.886,0c-0.792,0 -1.257,0 -1.257,0.792c0,0.512 0.372,0.512 1.164,0.512l2.747,0l-3.12,16.434c-0.744,4.05 -1.443,7.821 -3.631,7.821c-0.14,0 -1.21,0 -2.002,-0.745c1.955,-0.093 2.328,-1.629 2.328,-2.235c0,-0.977 -0.745,-1.443 -1.536,-1.443c-1.118,0 -2.328,0.885 -2.328,2.468c0,1.908 1.862,2.886 3.538,2.886c2.328,0 4.004,-2.467 4.749,-4.05c1.303,-2.607 2.281,-7.635 2.327,-7.961l2.514,-13.175" style="fill:#000;fill-rule:nonzero;"/><path d="M197.942,202.492c0,-2.747 -1.071,-4.376 -2.654,-4.376c-1.397,0 -2.235,1.024 -2.235,2.188c0,1.117 0.838,2.234 2.235,2.234c0.466,0 1.024,-0.186 1.443,-0.558c0.14,-0.093 0.14,-0.14 0.186,-0.14c0.047,0 0.094,0.047 0.094,0.652c0,3.072 -1.444,5.586 -2.84,6.937c-0.466,0.465 -0.466,0.558 -0.466,0.698c0,0.279 0.233,0.419 0.419,0.419c0.466,0 3.818,-3.212 3.818,-8.054" style="fill:#000;fill-rule:nonzero;"/><rect x="394.758" y="180.626" width="9.898" height="18.607" style="fill:#fff;"/><rect x="904.996" y="180.626" width="9.898" height="18.607" style="fill:#fff;"/><rect x="506.513" y="80.865" width="9.898" height="18.607" style="fill:#fff;"/><rect x="1016.75" y="80.865" width="9.898" height="18.607" style="fill:#fff;"/><rect x="522.391" y="89.499" width="9.898" height="18.607" style="fill:#fff;"/><rect x="1031.44" y="89.499" width="11.091" height="18.607" style="fill:#fff;"/><path d="M216.61,185.872l3.911,0c0.838,0 1.257,0 1.257,-0.838c0,-0.466 -0.419,-0.466 -1.164,-0.466l-3.678,0c1.49,-5.912 1.723,-6.75 1.723,-7.03c0,-0.698 -0.512,-1.117 -1.211,-1.117c-0.139,0 -1.303,0.047 -1.676,1.49l-1.629,6.657l-3.911,0c-0.838,0 -1.257,0 -1.257,0.792c0,0.512 0.326,0.512 1.164,0.512l3.678,0c-3.026,11.825 -3.166,12.523 -3.166,13.268c0,2.235 1.583,3.817 3.818,3.817c4.236,0 6.61,-6.052 6.61,-6.378c0,-0.419 -0.325,-0.419 -0.465,-0.419c-0.373,0 -0.419,0.093 -0.652,0.559c-1.769,4.33 -4.004,5.354 -5.4,5.354c-0.885,0 -1.304,-0.559 -1.304,-1.909c0,-1.024 0.093,-1.303 0.233,-2.002l3.119,-12.29" style="fill:#000;fill-rule:nonzero;"/><path d="M235.093,192.11c0,-3.259 -0.466,-8.287 -2.747,-13.035c-2.514,-5.121 -6.099,-7.821 -6.518,-7.821c-0.233,0 -0.419,0.186 -0.419,0.418c0,0.14 0,0.233 0.792,0.978c4.096,4.097 6.471,10.754 6.471,19.46c0,7.123 -1.537,14.432 -6.704,19.693c-0.559,0.512 -0.559,0.605 -0.559,0.745c0,0.233 0.186,0.372 0.419,0.372c0.419,0 4.19,-2.793 6.657,-8.1c2.095,-4.609 2.608,-9.218 2.608,-12.71" style="fill:#000;fill-rule:nonzero;"/><path d="M405.248,185.939c0.133,-0.319 0.213,-0.506 1.624,-0.506l0,-1.118c-0.559,0.053 -1.251,0.053 -1.837,0.053c-0.639,0 -1.758,-0.027 -2.29,-0.053l0,1.118c0.213,0 1.385,0.027 1.385,0.293c0,0.053 -0.08,0.213 -0.107,0.266l-2.503,6.125l-2.716,-6.684l1.358,0l0,-1.118c-0.772,0.026 -2.024,0.053 -2.743,0.053c-0.985,0 -1.997,-0.027 -2.369,-0.053l0,1.118l1.411,0c0.506,1.198 0.506,1.225 0.506,1.252c0,0.106 -0.08,0.239 -0.107,0.319l-1.89,4.58l-2.503,-6.151l1.331,0l0,-1.118c-0.958,0.053 -1.944,0.053 -2.929,0.053c-0.745,0 -1.784,-0.027 -2.583,-0.053l0,1.118l1.385,0l3.648,8.92c0.186,0.4 0.266,0.64 0.879,0.64c0.585,0 0.692,-0.24 0.852,-0.64l2.529,-6.177l2.53,6.177c0.16,0.4 0.266,0.64 0.852,0.64c0.586,0 0.692,-0.24 0.852,-0.64l3.435,-8.414" style="fill:#000;fill-rule:nonzero;"/><path d="M915.486,185.939c0.133,-0.319 0.213,-0.506 1.624,-0.506l0,-1.118c-0.559,0.053 -1.251,0.053 -1.837,0.053c-0.639,0 -1.757,-0.027 -2.29,-0.053l0,1.118c0.213,0 1.385,0.027 1.385,0.293c0,0.053 -0.08,0.213 -0.107,0.266l-2.503,6.125l-2.716,-6.684l1.358,0l0,-1.118c-0.772,0.026 -2.024,0.053 -2.742,0.053c-0.986,0 -1.998,-0.027 -2.37,-0.053l0,1.118l1.411,0c0.506,1.198 0.506,1.225 0.506,1.252c0,0.106 -0.08,0.239 -0.107,0.319l-1.89,4.58l-2.503,-6.151l1.331,0l0,-1.118c-0.958,0.053 -1.944,0.053 -2.929,0.053c-0.745,0 -1.784,-0.027 -2.583,-0.053l0,1.118l1.385,0l3.648,8.92c0.186,0.4 0.266,0.64 0.879,0.64c0.585,0 0.692,-0.24 0.852,-0.64l2.529,-6.177l2.53,6.177c0.16,0.4 0.266,0.64 0.852,0.64c0.586,0 0.692,-0.24 0.852,-0.64l3.435,-8.414" style="fill:#000;fill-rule:nonzero;"/><path d="M413.21,187.803c0,-0.453 -0.027,-0.479 -0.506,-0.479c-1.066,1.065 -2.61,1.092 -3.302,1.092l0,0.585c0.426,0 1.518,0 2.45,-0.452l0,8.574c0,0.559 0,0.772 -1.678,0.772l-0.639,0l0,0.586c0.293,0 2.37,-0.054 2.982,-0.054c0.533,0 2.636,0.054 3.009,0.054l0,-0.586l-0.639,0c-1.677,0 -1.677,-0.213 -1.677,-0.772l0,-9.32" style="fill:#000;fill-rule:nonzero;"/><path d="M510.649,100.096l-1.651,0l0,1.119c0.666,-0.027 2.104,-0.054 3.009,-0.054c0.932,0 2.343,0.027 3.009,0.054l0,-1.119l-1.651,0l0,-4.979c0,-2.609 2.05,-3.754 3.568,-3.754c0.799,0 1.305,0.479 1.305,2.289l0,6.444l-1.651,0l0,1.119c0.666,-0.027 2.104,-0.054 3.009,-0.054c0.932,0 2.343,0.027 3.009,0.054l0,-1.119l-1.651,0l0,-6.177c0,-2.503 -1.278,-3.435 -3.674,-3.435c-2.291,0 -3.516,1.384 -4.048,2.343l0,-8.148l-4.234,0.186l0,1.119c1.491,0 1.651,0 1.651,0.932l0,13.18" style="fill:#000;fill-rule:nonzero;"/><path d="M1020.89,100.096l-1.651,0l0,1.119c0.666,-0.027 2.104,-0.054 3.009,-0.054c0.932,0 2.344,0.027 3.009,0.054l0,-1.119l-1.651,0l0,-4.979c0,-2.609 2.05,-3.754 3.568,-3.754c0.799,0 1.305,0.479 1.305,2.289l0,6.444l-1.651,0l0,1.119c0.666,-0.027 2.104,-0.054 3.009,-0.054c0.932,0 2.344,0.027 3.009,0.054l0,-1.119l-1.651,0l0,-6.177c0,-2.503 -1.278,-3.435 -3.674,-3.435c-2.291,0 -3.516,1.384 -4.048,2.343l0,-8.148l-4.234,0.186l0,1.119c1.491,0 1.651,0 1.651,0.932l0,13.18" style="fill:#000;fill-rule:nonzero;"/><path d="M528.756,94.132c0,-0.453 -0.027,-0.48 -0.506,-0.48c-1.065,1.066 -2.583,1.092 -3.275,1.092l0,0.586c0.399,0 1.517,0 2.422,-0.453l0,8.574c0,0.56 0,0.773 -1.677,0.773l-0.639,0l0,0.585c0.293,0 2.37,-0.053 2.982,-0.053c0.533,0 2.663,0.053 3.036,0.053l0,-0.585l-0.639,0c-1.704,0 -1.704,-0.213 -1.704,-0.773l0,-9.319" style="fill:#000;fill-rule:nonzero;"/><path d="M389.643,293.163l2.051,0c0.452,0 0.692,0 0.692,-0.48c0,-0.266 -0.24,-0.266 -0.639,-0.266l-1.971,0l0.506,-2.716c0.08,-0.506 0.426,-2.21 0.559,-2.476c0.213,-0.453 0.64,-0.826 1.119,-0.826c0.106,0 0.719,0 1.171,0.426c-1.038,0.107 -1.278,0.932 -1.278,1.305c0,0.533 0.426,0.826 0.879,0.826c0.612,0 1.305,-0.533 1.305,-1.438c0,-1.092 -1.092,-1.651 -2.077,-1.651c-0.799,0 -2.317,0.452 -3.009,2.796c-0.16,0.506 -0.213,0.745 -0.799,3.754l-1.651,0c-0.452,0 -0.719,0 -0.719,0.453c0,0.293 0.24,0.293 0.666,0.293l1.598,0l-1.811,9.399c-0.426,2.317 -0.826,4.5 -2.05,4.5c-0.107,0 -0.693,0 -1.145,-0.453c1.091,-0.053 1.304,-0.905 1.304,-1.278c0,-0.532 -0.426,-0.825 -0.878,-0.825c-0.639,0 -1.332,0.506 -1.332,1.411c0,1.092 1.065,1.651 2.051,1.651c1.304,0 2.263,-1.411 2.689,-2.317c0.746,-1.491 1.305,-4.366 1.331,-4.553l1.438,-7.535" style="fill:#000;fill-rule:nonzero;"/><path d="M899.881,293.163l2.051,0c0.452,0 0.692,0 0.692,-0.48c0,-0.266 -0.24,-0.266 -0.639,-0.266l-1.971,0l0.506,-2.716c0.08,-0.506 0.426,-2.21 0.56,-2.476c0.213,-0.453 0.639,-0.826 1.118,-0.826c0.106,0 0.719,0 1.172,0.426c-1.039,0.107 -1.279,0.932 -1.279,1.305c0,0.533 0.426,0.826 0.879,0.826c0.613,0 1.305,-0.533 1.305,-1.438c0,-1.092 -1.092,-1.651 -2.077,-1.651c-0.799,0 -2.317,0.452 -3.009,2.796c-0.16,0.506 -0.213,0.745 -0.799,3.754l-1.651,0c-0.452,0 -0.719,0 -0.719,0.453c0,0.293 0.24,0.293 0.666,0.293l1.598,0l-1.811,9.399c-0.426,2.317 -0.825,4.5 -2.05,4.5c-0.107,0 -0.693,0 -1.145,-0.453c1.091,-0.053 1.304,-0.905 1.304,-1.278c0,-0.532 -0.426,-0.825 -0.878,-0.825c-0.639,0 -1.332,0.506 -1.332,1.411c0,1.092 1.066,1.651 2.051,1.651c1.304,0 2.263,-1.411 2.689,-2.317c0.746,-1.491 1.305,-4.366 1.332,-4.553l1.437,-7.535" style="fill:#000;fill-rule:nonzero;"/><path d="M637.207,97.12l2.236,0c0.48,0 0.719,0 0.719,-0.479c0,-0.267 -0.239,-0.267 -0.665,-0.267l-2.104,0c0.852,-3.381 0.985,-3.861 0.985,-4.02c0,-0.4 -0.293,-0.639 -0.692,-0.639c-0.08,0 -0.746,0.026 -0.959,0.852l-0.932,3.807l-2.236,0c-0.48,0 -0.719,0 -0.719,0.453c0,0.293 0.186,0.293 0.665,0.293l2.104,0c-1.704,6.763 -1.811,7.163 -1.811,7.589c0,1.305 0.906,2.21 2.184,2.21c2.449,0 3.807,-3.488 3.807,-3.675c0,-0.239 -0.186,-0.239 -0.292,-0.239c-0.213,0 -0.24,0.053 -0.347,0.319c-1.038,2.476 -2.29,3.062 -3.115,3.062c-0.506,0 -0.746,-0.319 -0.746,-1.091c0,-0.586 0.054,-0.746 0.16,-1.145l1.758,-7.03" style="fill:#000;fill-rule:nonzero;"/><path d="M1147.44,97.12l2.236,0c0.48,0 0.719,0 0.719,-0.479c0,-0.267 -0.239,-0.267 -0.665,-0.267l-2.104,0c0.852,-3.381 0.985,-3.861 0.985,-4.02c0,-0.4 -0.293,-0.639 -0.692,-0.639c-0.08,0 -0.746,0.026 -0.959,0.852l-0.932,3.807l-2.236,0c-0.479,0 -0.719,0 -0.719,0.453c0,0.293 0.186,0.293 0.666,0.293l2.103,0c-1.704,6.763 -1.811,7.163 -1.811,7.589c0,1.305 0.906,2.21 2.184,2.21c2.45,0 3.808,-3.488 3.808,-3.675c0,-0.239 -0.187,-0.239 -0.293,-0.239c-0.213,0 -0.24,0.053 -0.346,0.319c-1.039,2.476 -2.29,3.062 -3.116,3.062c-0.506,0 -0.745,-0.319 -0.745,-1.091c0,-0.586 0.053,-0.746 0.159,-1.145l1.758,-7.03" style="fill:#000;fill-rule:nonzero;"/><path d="M921.443,191.224c0.16,-0.586 0.187,-0.693 1.119,-0.693c0.186,0 0.426,0 0.426,-0.346c0,-0.186 -0.133,-0.266 -0.24,-0.266c-0.399,0 -1.411,0.08 -1.811,0.08c-0.372,0 -0.932,-0.027 -1.304,-0.027c-0.426,-0.026 -0.906,-0.053 -1.332,-0.053c-0.106,0 -0.372,0 -0.372,0.373c0,0.239 0.159,0.239 0.665,0.239c0.373,0 0.453,0 0.879,0.027c0.479,0.053 0.532,0.107 0.532,0.32c0,0.106 0,0.133 -0.079,0.372l-1.918,7.696c-0.319,1.278 -1.411,2.316 -2.503,2.316c-0.213,0 -1.278,-0.026 -1.677,-0.852c0.985,0 1.198,-0.799 1.198,-1.091c0,-0.48 -0.399,-0.746 -0.772,-0.746c-0.453,0 -1.118,0.373 -1.118,1.331c0,1.092 1.011,1.838 2.423,1.838c1.651,0 3.515,-1.065 3.941,-2.743l1.943,-7.775" style="fill:#000;fill-rule:nonzero;"/><path d="M1041.05,98.553c0.16,-0.585 0.187,-0.692 1.119,-0.692c0.186,0 0.426,0 0.426,-0.346c0,-0.186 -0.134,-0.266 -0.24,-0.266c-0.399,0 -1.411,0.08 -1.811,0.08c-0.372,0 -0.932,-0.027 -1.304,-0.027c-0.426,-0.027 -0.906,-0.053 -1.332,-0.053c-0.106,0 -0.373,0 -0.373,0.373c0,0.239 0.16,0.239 0.666,0.239c0.373,0 0.453,0 0.879,0.027c0.479,0.053 0.532,0.106 0.532,0.319c0,0.107 0,0.133 -0.08,0.373l-1.917,7.695c-0.319,1.279 -1.411,2.317 -2.503,2.317c-0.213,0 -1.278,-0.027 -1.677,-0.852c0.985,0 1.198,-0.799 1.198,-1.092c0,-0.479 -0.399,-0.745 -0.772,-0.745c-0.453,0 -1.119,0.372 -1.119,1.331c0,1.092 1.012,1.837 2.424,1.837c1.65,0 3.514,-1.065 3.94,-2.742l1.944,-7.776" style="fill:#000;fill-rule:nonzero;"/></svg>