<?xml version="1.0" standalone="no"?><!DOCTYPE svg PUBLIC "-//W3C//DTD SVG 1.1//EN" "http://www.w3.org/Graphics/SVG/1.1/DTD/svg11.dtd"><svg width="100%" height="100%" viewBox="0 0 1280 380" version="1.1" xmlns="http://www.w3.org/2000/svg" xmlns:xlink="http://www.w3.org/1999/xlink" xml:space="preserve" style="fill-rule:evenodd;clip-rule:evenodd;stroke-linecap:round;stroke-linejoin:round;stroke-miterlimit:1.41421;"><path d="M680.975,182.709l8.638,0c0.414,0 1.002,0 1.002,-0.622c0,-0.587 -0.588,-0.587 -1.002,-0.587l-8.638,0l0,-8.673c0,-0.449 0,-1.036 -0.622,-1.036c-0.622,0 -0.622,0.587 -0.622,1.036l0,8.673l-8.672,0c-0.415,0 -1.002,0 -1.002,0.587c0,0.622 0.587,0.622 1.002,0.622l8.672,0l0,8.673c0,0.449 0,1.036 0.622,1.036c0.622,0 0.622,-0.587 0.622,-1.036l0,-8.673" style="fill:#000;fill-rule:nonzero;"/><path d="M834.147,182.709l8.638,0c0.414,0 1.002,0 1.002,-0.622c0,-0.587 -0.588,-0.587 -1.002,-0.587l-8.638,0l0,-8.673c0,-0.449 0,-1.036 -0.622,-1.036c-0.622,0 -0.622,0.587 -0.622,1.036l0,8.673l-8.673,0c-0.414,0 -1.002,0 -1.002,0.587c0,0.622 0.588,0.622 1.002,0.622l8.673,0l0,8.673c0,0.449 0,1.036 0.622,1.036c0.622,0 0.622,-0.587 0.622,-1.036l0,-8.673" style="fill:#000;fill-rule:nonzero;"/><rect x="403.948" y="88.602" width="172.044" height="16.579" style="fill:#fff;stroke-width:1px;stroke:#000;"/><path d="M384.212,109.504l0,172.044l16.579,0l0,-172.044l-16.579,0Z" style="fill:#fff;stroke-width:1px;stroke:#000;"/><path d="M962.454,109.504l0,172.044l16.58,0l0,-172.044l-16.58,0Z" style="fill:#fff;stroke-width:1px;stroke:#000;"/><rect x="980.294" y="88.602" width="172.044" height="16.579" style="fill:#fff;stroke-width:1px;stroke:#000;"/><path d="M293.209,185.455c0,-0.657 -0.207,-0.933 -0.415,-0.933c-0.138,0 -0.414,0.138 -0.449,0.829c-0.138,2.142 -2.28,3.421 -4.284,3.421c-1.797,0 -3.352,-0.968 -4.976,-2.039c-1.658,-1.14 -3.317,-2.246 -5.355,-2.246c-2.868,0 -5.149,2.212 -5.149,5.045c0,0.691 0.242,0.933 0.45,0.933c0.276,0 0.414,-0.588 0.414,-0.726c0.173,-2.591 2.695,-3.524 4.285,-3.524c1.796,0 3.351,0.967 4.975,2.038c1.659,1.141 3.317,2.246 5.356,2.246c2.867,0 5.148,-2.211 5.148,-5.044ZM293.209,192.676c0,-0.898 -0.38,-0.933 -0.415,-0.933c-0.138,0 -0.414,0.138 -0.449,0.829c-0.138,2.143 -2.28,3.386 -4.284,3.386c-1.797,0 -3.352,-0.967 -4.976,-2.038c-1.658,-1.106 -3.317,-2.211 -5.355,-2.211c-2.868,0 -5.149,2.176 -5.149,5.044c0,0.657 0.242,0.898 0.45,0.898c0.276,0 0.414,-0.587 0.414,-0.691c0.173,-2.591 2.695,-3.524 4.285,-3.524c1.796,0 3.351,0.968 4.975,2.039c1.659,1.105 3.317,2.211 5.356,2.211c2.937,0 5.148,-2.28 5.148,-5.01" style="fill:#000;fill-rule:nonzero;"/><path d="M751.352,183.588c0,-0.864 -0.76,-1.624 -1.658,-1.624c-0.899,0 -1.624,0.76 -1.624,1.624c0,0.898 0.725,1.658 1.624,1.658c0.898,0 1.658,-0.76 1.658,-1.658" style="fill:#000;fill-rule:nonzero;"/><path d="M765.104,183.588c0,-0.864 -0.76,-1.624 -1.659,-1.624c-0.898,0 -1.624,0.76 -1.624,1.624c0,0.898 0.726,1.658 1.624,1.658c0.899,0 1.659,-0.76 1.659,-1.658" style="fill:#000;fill-rule:nonzero;"/><path d="M778.855,183.588c0,-0.864 -0.76,-1.624 -1.658,-1.624c-0.898,0 -1.624,0.76 -1.624,1.624c0,0.898 0.726,1.658 1.624,1.658c0.898,0 1.658,-0.76 1.658,-1.658" style="fill:#000;fill-rule:nonzero;"/><path d="M112.998,146.911l-6.609,6.719l0.881,0.881l5.728,-5.067l5.673,5.067l0.881,-0.881l-6.554,-6.719" style="fill:#000;fill-rule:nonzero;"/><path d="M127.648,163.323c0.276,-0.661 0.496,-1.101 4.076,-1.101l0.936,0l0,-2.313c-1.872,0.055 -4.241,0.165 -5.562,0.165c-1.983,0 -4.517,0 -6.444,-0.165l0,2.313c0.44,0 4.351,0 4.351,0.606c0,0.165 -0.166,0.44 -0.221,0.606l-9.968,22.415l-10.465,-23.627l4.627,0l0,-2.313c-1.873,0.165 -6.609,0.165 -8.757,0.165c-1.928,0 -6.058,0 -7.766,-0.165l0,2.313l4.516,0l13.604,30.622c0.386,0.881 0.606,1.266 1.983,1.266c0.771,0 1.432,0 1.982,-1.156l13.108,-29.631" style="fill:#000;fill-rule:nonzero;"/><path d="M148.357,187.446l3.359,0c0.716,0 1.157,0 1.157,-0.771c0,-0.495 -0.441,-0.495 -1.047,-0.495l-3.249,0c0.826,-4.406 1.101,-6.004 1.377,-6.995c0.165,-0.771 0.936,-1.487 1.762,-1.487c0,0 0.991,0 1.597,0.386c-1.376,0.44 -1.487,1.707 -1.487,1.927c0,0.771 0.551,1.267 1.377,1.267c0.937,0 1.983,-0.771 1.983,-2.093c0,-1.597 -1.707,-2.478 -3.47,-2.478c-1.542,0 -3.249,0.881 -4.185,2.588c-0.716,1.322 -0.992,2.864 -1.708,6.885l-2.754,0c-0.66,0 -1.156,0 -1.156,0.771c0,0.495 0.496,0.495 1.101,0.495l2.589,0c-0.055,0.221 -2.258,12.723 -3.084,16.468c-0.166,0.771 -0.771,3.415 -2.424,3.415c-0.055,0 -0.881,0 -1.542,-0.441c1.432,-0.441 1.542,-1.707 1.542,-1.928c0,-0.771 -0.606,-1.266 -1.377,-1.266c-0.936,0 -1.982,0.771 -1.982,2.092c0,1.598 1.597,2.479 3.359,2.479c2.203,0 3.745,-2.258 4.186,-3.029c1.212,-2.369 2.038,-6.609 2.093,-7.05l1.983,-10.74" style="fill:#000;fill-rule:nonzero;"/><path d="M162.621,200.609c0,1.928 -0.33,4.131 -2.699,6.389c-0.165,0.11 -0.275,0.22 -0.275,0.386c0,0.275 0.275,0.495 0.496,0.495c0.495,0 3.469,-2.753 3.469,-6.884c0,-2.203 -0.881,-3.8 -2.478,-3.8c-1.101,0 -1.983,0.881 -1.983,1.982c0,1.102 0.826,1.983 2.038,1.983c0.826,0 1.377,-0.551 1.432,-0.551" style="fill:#000;fill-rule:nonzero;"/><path d="M179.588,187.446l3.525,0c0.661,0 1.102,0 1.102,-0.771c0,-0.495 -0.441,-0.495 -0.992,-0.495l-3.304,0l1.267,-5.122c0,-0.166 0.11,-0.331 0.11,-0.496c0,-0.606 -0.496,-1.102 -1.212,-1.102c-0.826,0 -1.377,0.606 -1.597,1.488c-0.275,0.881 0.165,-0.827 -1.322,5.232l-3.58,0c-0.661,0 -1.101,0 -1.101,0.771c0,0.495 0.44,0.495 1.046,0.495l3.305,0l-2.038,8.207c-0.22,0.881 -0.551,2.148 -0.551,2.588c0,2.038 1.763,3.305 3.745,3.305c3.856,0 6.059,-4.902 6.059,-5.343c0,-0.44 -0.496,-0.44 -0.551,-0.44c-0.441,0 -0.496,0.055 -0.771,0.661c-0.937,2.203 -2.754,4.13 -4.627,4.13c-0.771,0 -1.211,-0.44 -1.211,-1.707c0,-0.331 0.11,-1.046 0.165,-1.432l2.533,-9.969" style="fill:#000;fill-rule:nonzero;"/><path d="M564.998,68.754l2.263,0c0.48,0 0.693,0 0.693,-0.479c0,-0.266 -0.213,-0.266 -0.666,-0.266l-2.077,0c0.852,-3.382 0.959,-3.861 0.959,-4.021c0,-0.399 -0.267,-0.639 -0.693,-0.639c-0.053,0 -0.719,0.027 -0.932,0.879l-0.932,3.781l-2.263,0c-0.453,0 -0.692,0 -0.692,0.453c0,0.292 0.186,0.292 0.665,0.292l2.077,0c-1.704,6.764 -1.81,7.163 -1.81,7.589c0,1.305 0.905,2.21 2.21,2.21c2.423,0 3.781,-3.488 3.781,-3.674c0,-0.24 -0.187,-0.24 -0.293,-0.24c-0.213,0 -0.24,0.053 -0.346,0.32c-1.039,2.476 -2.29,3.062 -3.089,3.062c-0.506,0 -0.746,-0.32 -0.746,-1.092c0,-0.586 0.054,-0.746 0.133,-1.145l1.758,-7.03" style="fill:#000;fill-rule:nonzero;"/><path d="M574.317,71.177c0,-0.452 -0.026,-0.452 -0.479,-0.452c-1.092,1.065 -2.609,1.065 -3.302,1.065l0,0.612c0.4,0 1.518,0 2.423,-0.479l0,8.574c0,0.559 0,0.772 -1.677,0.772l-0.639,0l0,0.613c0.319,-0.027 2.37,-0.08 3.009,-0.08c0.506,0 2.636,0.053 3.009,0.08l0,-0.613l-0.639,0c-1.705,0 -1.705,-0.213 -1.705,-0.772l0,-9.32" style="fill:#000;fill-rule:nonzero;"/><path d="M393.163,294.545l2.05,0c0.453,0 0.692,0 0.692,-0.479c0,-0.266 -0.239,-0.266 -0.639,-0.266l-1.97,0l0.506,-2.716c0.08,-0.506 0.426,-2.21 0.559,-2.477c0.213,-0.452 0.612,-0.825 1.118,-0.825c0.107,0 0.719,0 1.172,0.426c-1.039,0.106 -1.278,0.932 -1.278,1.305c0,0.532 0.426,0.825 0.879,0.825c0.612,0 1.304,-0.532 1.304,-1.438c0,-1.091 -1.091,-1.651 -2.077,-1.651c-0.798,0 -2.316,0.453 -3.009,2.796c-0.159,0.506 -0.213,0.746 -0.798,3.755l-1.651,0c-0.453,0 -0.719,0 -0.719,0.452c0,0.293 0.213,0.293 0.665,0.293l1.598,0l-1.811,9.4c-0.426,2.316 -0.825,4.5 -2.05,4.5c-0.106,0 -0.692,0 -1.145,-0.453c1.092,-0.053 1.305,-0.905 1.305,-1.278c0,-0.533 -0.426,-0.825 -0.879,-0.825c-0.639,0 -1.331,0.505 -1.331,1.411c0,1.092 1.065,1.651 2.05,1.651c1.305,0 2.263,-1.412 2.69,-2.317c0.745,-1.491 1.304,-4.367 1.331,-4.553l1.438,-7.536" style="fill:#000;fill-rule:nonzero;"/><path d="M401.737,296.968c0,-0.452 -0.027,-0.452 -0.506,-0.452c-1.092,1.038 -2.61,1.065 -3.302,1.065l0,0.612c0.4,0 1.518,0 2.45,-0.479l0,8.574c0,0.559 0,0.772 -1.678,0.772l-0.639,0l0,0.613c0.293,-0.027 2.37,-0.08 2.983,-0.08c0.532,0 2.636,0.053 3.008,0.08l0,-0.613l-0.639,0c-1.677,0 -1.677,-0.213 -1.677,-0.772l0,-9.32" style="fill:#000;fill-rule:nonzero;"/><path d="M967.685,296.453l2.05,0c0.479,0 0.719,0 0.719,-0.48c0,-0.266 -0.24,-0.266 -0.639,-0.266l-1.97,0l0.479,-2.716c0.106,-0.506 0.453,-2.21 0.586,-2.476c0.213,-0.453 0.612,-0.826 1.118,-0.826c0.107,0 0.719,0 1.172,0.426c-1.065,0.107 -1.278,0.932 -1.278,1.305c0,0.533 0.426,0.825 0.878,0.825c0.613,0 1.305,-0.532 1.305,-1.437c0,-1.092 -1.092,-1.651 -2.077,-1.651c-0.799,0 -2.317,0.452 -3.035,2.796c-0.134,0.506 -0.213,0.745 -0.773,3.754l-1.651,0c-0.452,0 -0.719,0 -0.719,0.453c0,0.293 0.214,0.293 0.666,0.293l1.571,0l-1.784,9.399c-0.426,2.317 -0.825,4.5 -2.077,4.5c-0.08,0 -0.692,0 -1.145,-0.453c1.092,-0.053 1.305,-0.905 1.305,-1.278c0,-0.532 -0.426,-0.825 -0.879,-0.825c-0.612,0 -1.304,0.506 -1.304,1.411c0,1.092 1.065,1.651 2.023,1.651c1.332,0 2.264,-1.411 2.69,-2.317c0.772,-1.491 1.331,-4.366 1.358,-4.553l1.411,-7.535" style="fill:#000;fill-rule:nonzero;"/><path d="M980.679,299.382c0.16,-0.586 0.16,-0.693 1.118,-0.693c0.187,0 0.426,0 0.426,-0.346c0,-0.186 -0.133,-0.239 -0.239,-0.239c-0.426,0 -1.411,0.053 -1.837,0.053c-0.347,0 -0.906,0 -1.279,0c-0.426,-0.027 -0.905,-0.053 -1.331,-0.053c-0.107,0 -0.373,0 -0.373,0.346c0,0.239 0.16,0.239 0.666,0.239c0.373,0 0.453,0 0.879,0.054c0.479,0.053 0.532,0.079 0.532,0.292c0,0.107 0,0.16 -0.08,0.4l-1.917,7.695c-0.319,1.252 -1.411,2.317 -2.503,2.317c-0.24,0 -1.278,-0.053 -1.677,-0.879c0.985,0 1.198,-0.799 1.198,-1.092c0,-0.479 -0.4,-0.719 -0.772,-0.719c-0.453,0 -1.145,0.373 -1.145,1.305c0,1.092 1.038,1.864 2.449,1.864c1.651,0 3.515,-1.065 3.941,-2.743l1.944,-7.801" style="fill:#000;fill-rule:nonzero;"/><path d="M1136.91,65.488l2.263,0c0.479,0 0.692,0 0.692,-0.479c0,-0.266 -0.213,-0.266 -0.665,-0.266l-2.077,0c0.852,-3.382 0.958,-3.861 0.958,-4.021c0,-0.4 -0.266,-0.639 -0.692,-0.639c-0.053,0 -0.719,0.026 -0.932,0.878l-0.932,3.782l-2.263,0c-0.453,0 -0.693,0 -0.693,0.452c0,0.293 0.187,0.293 0.666,0.293l2.077,0c-1.704,6.763 -1.811,7.163 -1.811,7.589c0,1.305 0.906,2.21 2.21,2.21c2.423,0 3.781,-3.488 3.781,-3.675c0,-0.239 -0.186,-0.239 -0.292,-0.239c-0.213,0 -0.24,0.053 -0.347,0.319c-1.038,2.477 -2.29,3.062 -3.088,3.062c-0.506,0 -0.746,-0.319 -0.746,-1.091c0,-0.586 0.053,-0.746 0.133,-1.145l1.758,-7.03" style="fill:#000;fill-rule:nonzero;"/><path d="M1150.75,68.417c0.133,-0.586 0.16,-0.666 1.092,-0.666c0.213,0 0.452,0 0.452,-0.372c0,-0.187 -0.133,-0.24 -0.266,-0.24c-0.399,0 -1.411,0.053 -1.811,0.053c-0.346,0 -0.932,0 -1.304,0c-0.4,-0.026 -0.906,-0.053 -1.305,-0.053c-0.133,0 -0.373,0 -0.373,0.346c0,0.266 0.133,0.266 0.639,0.266c0.399,0 0.453,0 0.879,0.027c0.479,0.053 0.532,0.107 0.532,0.293c0,0.133 0,0.16 -0.053,0.399l-1.944,7.696c-0.319,1.251 -1.384,2.316 -2.476,2.316c-0.24,0 -1.305,-0.053 -1.678,-0.878c0.959,0 1.172,-0.799 1.172,-1.092c0,-0.479 -0.399,-0.719 -0.772,-0.719c-0.453,0 -1.119,0.373 -1.119,1.305c0,1.091 1.039,1.864 2.45,1.864c1.651,0 3.515,-1.066 3.914,-2.743l1.971,-7.802" style="fill:#000;fill-rule:nonzero;"/></svg>